NotoSansEthiopic-Regular.ufo
<glyph name="ha.eth" format="2">
	<advance width="618"/>
	<unicode hex="1200"/>
	<anchor x="309" y="714" name="top"/>
	<note>
		uni1200
	</note>
	<outline>
		<contour>
			<point x="307" y="-10" type="curve" smooth="yes"/>
			<point x="458" y="-10"/>
			<point x="528" y="90"/>
			<point x="528" y="242" type="curve" smooth="yes"/>
			<point x="528" y="714" type="line"/>
			<point x="437" y="714" type="line"/>
			<point x="437" y="250" type="line" smooth="yes"/>
			<point x="437" y="141"/>
			<point x="407" y="70"/>
			<point x="307" y="70" type="curve" smooth="yes"/>
			<point x="216" y="70"/>
			<point x="181" y="135"/>
			<point x="181" y="249" type="curve" smooth="yes"/>
			<point x="181" y="714" type="line"/>
			<point x="90" y="714" type="line"/>
			<point x="90" y="244" type="line" smooth="yes"/>
			<point x="90" y="80"/>
			<point x="154" y="-10"/>
		</contour>
	</outline>
</glyph>
<glyph name="hi.eth" format="2">
  <advance width="508"/>
  <unicode hex="1202"/>
  <note>
uni1202
</note>
  <anchor x="273" y="714" name="top"/>
  <outline>
    <contour>
      <point x="134" y="0" type="line"/>
      <point x="204" y="0" type="line"/>
      <point x="491" y="714" type="line"/>
      <point x="399" y="714" type="line"/>
      <point x="284" y="423" type="line"/>
      <point x="201" y="425"/>
      <point x="143" y="461"/>
      <point x="143" y="567" type="curve" smooth="yes"/>
      <point x="143" y="714" type="line"/>
      <point x="53" y="714" type="line"/>
      <point x="53" y="559" type="line" smooth="yes"/>
      <point x="53" y="416"/>
      <point x="132" y="357"/>
      <point x="253" y="348" type="curve"/>
      <point x="134" y="55" type="line"/>
    </contour>
    <contour>
      <point x="187" y="0" type="line"/>
      <point x="326" y="0" type="line"/>
      <point x="326" y="73" type="line"/>
      <point x="187" y="73" type="line"/>
    </contour>
    <component base="rightdoubleflag" xOffset="215"/>
  </outline>
</glyph>
<glyph name="haa.eth" format="2">
  <advance width="516"/>
  <unicode hex="1203"/>
  <note>
uni1203
</note>
  <anchor x="272" y="714" name="top"/>
  <outline>
    <contour>
      <point x="111" y="0" type="line"/>
      <point x="204" y="0" type="line"/>
      <point x="491" y="714" type="line"/>
      <point x="399" y="714" type="line"/>
      <point x="284" y="423" type="line"/>
      <point x="201" y="425"/>
      <point x="143" y="461"/>
      <point x="143" y="567" type="curve" smooth="yes"/>
      <point x="143" y="714" type="line"/>
      <point x="53" y="714" type="line"/>
      <point x="53" y="559" type="line" smooth="yes"/>
      <point x="53" y="416"/>
      <point x="132" y="357"/>
      <point x="253" y="348" type="curve"/>
    </contour>
  </outline>
</glyph>
<glyph name="hee.eth" format="2">
  <advance width="528"/>
  <unicode hex="1204"/>
  <note>
uni1204
</note>
  <anchor x="281" y="714" name="top"/>
  <outline>
    <contour>
      <point x="131" y="0" type="line"/>
      <point x="204" y="0" type="line"/>
      <point x="491" y="714" type="line"/>
      <point x="399" y="714" type="line"/>
      <point x="284" y="423" type="line"/>
      <point x="201" y="425"/>
      <point x="143" y="461"/>
      <point x="143" y="567" type="curve" smooth="yes"/>
      <point x="143" y="714" type="line"/>
      <point x="53" y="714" type="line"/>
      <point x="53" y="559" type="line" smooth="yes"/>
      <point x="53" y="416"/>
      <point x="132" y="357"/>
      <point x="253" y="348" type="curve"/>
      <point x="131" y="63" type="line"/>
    </contour>
    <contour>
      <point x="215" y="66" type="line"/>
      <point x="254" y="196" type="line"/>
      <point x="346" y="196" type="line" smooth="yes"/>
      <point x="399" y="196"/>
      <point x="421" y="174"/>
      <point x="421" y="137" type="curve" smooth="yes"/>
      <point x="421" y="96"/>
      <point x="398" y="66"/>
      <point x="328" y="66" type="curve" smooth="yes"/>
    </contour>
    <contour>
      <point x="143" y="0" type="line"/>
      <point x="325" y="0" type="line" smooth="yes"/>
      <point x="450" y="0"/>
      <point x="510" y="57"/>
      <point x="510" y="140" type="curve" smooth="yes"/>
      <point x="510" y="219"/>
      <point x="461" y="264"/>
      <point x="362" y="264" type="curve" smooth="yes"/>
      <point x="227" y="264" type="line"/>
    </contour>
  </outline>
</glyph>
<glyph name="he.eth" format="2">
  <advance width="726"/>
  <unicode hex="1205"/>
  <note>
uni1205
</note>
  <anchor x="343" y="714" name="top"/>
  <outline>
    <contour>
      <point x="415" y="-10" type="curve" smooth="yes"/>
      <point x="566" y="-10"/>
      <point x="636" y="90"/>
      <point x="636" y="242" type="curve" smooth="yes"/>
      <point x="636" y="714" type="line"/>
      <point x="545" y="714" type="line"/>
      <point x="545" y="250" type="line" smooth="yes"/>
      <point x="545" y="141"/>
      <point x="515" y="70"/>
      <point x="415" y="70" type="curve" smooth="yes"/>
      <point x="324" y="70"/>
      <point x="289" y="135"/>
      <point x="289" y="249" type="curve" smooth="yes"/>
      <point x="289" y="527" type="line"/>
      <point x="198" y="527" type="line"/>
      <point x="198" y="244" type="line" smooth="yes"/>
      <point x="198" y="80"/>
      <point x="262" y="-10"/>
    </contour>
    <contour>
      <point x="199" y="453" type="curve"/>
      <point x="289" y="527" type="line"/>
      <point x="216" y="527" type="line" smooth="yes"/>
      <point x="163" y="527"/>
      <point x="141" y="551"/>
      <point x="141" y="642" type="curve" smooth="yes"/>
      <point x="141" y="714" type="line"/>
      <point x="50" y="714" type="line"/>
      <point x="50" y="639" type="line" smooth="yes"/>
      <point x="50" y="499"/>
      <point x="115" y="453"/>
    </contour>
  </outline>
</glyph>
<glyph name="ho.eth" format="2">
  <advance width="774"/>
  <unicode hex="1206"/>
  <note>
uni1206
</note>
  <anchor x="423" y="724" name="top"/>
  <outline>
    <contour>
      <point x="307" y="-10" type="curve" smooth="yes"/>
      <point x="458" y="-10"/>
      <point x="528" y="90"/>
      <point x="528" y="242" type="curve" smooth="yes"/>
      <point x="528" y="687" type="line"/>
      <point x="437" y="687" type="line"/>
      <point x="437" y="250" type="line" smooth="yes"/>
      <point x="437" y="141"/>
      <point x="407" y="70"/>
      <point x="307" y="70" type="curve" smooth="yes"/>
      <point x="216" y="70"/>
      <point x="181" y="135"/>
      <point x="181" y="249" type="curve" smooth="yes"/>
      <point x="181" y="714" type="line"/>
      <point x="90" y="714" type="line"/>
      <point x="90" y="244" type="line" smooth="yes"/>
      <point x="90" y="80"/>
      <point x="154" y="-10"/>
    </contour>
    <contour>
      <point x="498" y="460" type="line"/>
      <point x="582" y="460" type="line" smooth="yes"/>
      <point x="703" y="460"/>
      <point x="756" y="515"/>
      <point x="756" y="596" type="curve" smooth="yes"/>
      <point x="756" y="680"/>
      <point x="706" y="724"/>
      <point x="608" y="724" type="curve" smooth="yes"/>
      <point x="539" y="724"/>
      <point x="480" y="706"/>
      <point x="437" y="687" type="curve"/>
    </contour>
    <contour>
      <point x="528" y="528" type="line"/>
      <point x="528" y="643" type="line"/>
      <point x="545" y="649"/>
      <point x="569" y="655"/>
      <point x="597" y="655" type="curve" smooth="yes"/>
      <point x="645" y="655"/>
      <point x="667" y="634"/>
      <point x="667" y="595" type="curve" smooth="yes"/>
      <point x="667" y="548"/>
      <point x="637" y="528"/>
      <point x="569" y="528" type="curve" smooth="yes"/>
    </contour>
  </outline>
</glyph>
<glyph name="la.eth" format="2">
  <advance width="590"/>
  <unicode hex="1208"/>
  <note>
uni1208
</note>
  <anchor x="304" y="714" name="top"/>
  <outline>
    <contour>
      <point x="43" y="0" type="curve"/>
      <point x="131" y="0" type="line"/>
      <point x="161" y="364"/>
      <point x="217" y="461"/>
      <point x="319" y="486" type="curve"/>
      <point x="470" y="0" type="line"/>
      <point x="565" y="0" type="line"/>
      <point x="344" y="714" type="line"/>
      <point x="247" y="714" type="line"/>
      <point x="295" y="559" type="line"/>
      <point x="137" y="510"/>
      <point x="79" y="381"/>
    </contour>
  </outline>
</glyph>
<glyph name="laa.eth" format="2">
  <advance width="569"/>
  <unicode hex="120B"/>
  <note>
uni120B
</note>
  <anchor x="293" y="714" name="top"/>
  <outline>
    <contour>
      <point x="449" y="0" type="line"/>
      <point x="544" y="0" type="line"/>
      <point x="323" y="714" type="line"/>
      <point x="226" y="714" type="line"/>
      <point x="274" y="559" type="line"/>
      <point x="143" y="518"/>
      <point x="81" y="426"/>
      <point x="43" y="177" type="curve"/>
      <point x="129" y="177" type="line"/>
      <point x="162" y="400"/>
      <point x="215" y="466"/>
      <point x="298" y="486" type="curve"/>
    </contour>
  </outline>
</glyph>
<glyph name="lee.eth" format="2">
  <advance width="772"/>
  <unicode hex="120C"/>
  <note>
uni120C
</note>
  <anchor x="398" y="714" name="top"/>
  <outline>
    <contour>
      <point x="43" y="0" type="curve"/>
      <point x="131" y="0" type="line"/>
      <point x="161" y="364"/>
      <point x="217" y="461"/>
      <point x="319" y="486" type="curve"/>
      <point x="470" y="0" type="line"/>
      <point x="565" y="0" type="line"/>
      <point x="550" y="48" type="line"/>
      <point x="344" y="714" type="line"/>
      <point x="247" y="714" type="line"/>
      <point x="295" y="559" type="line"/>
      <point x="137" y="510"/>
      <point x="79" y="381"/>
    </contour>
    <contour>
      <point x="494" y="66" type="line"/>
      <point x="455" y="196" type="line"/>
      <point x="590" y="196" type="line" smooth="yes"/>
      <point x="643" y="196"/>
      <point x="665" y="174"/>
      <point x="665" y="137" type="curve" smooth="yes"/>
      <point x="665" y="96"/>
      <point x="642" y="66"/>
      <point x="572" y="66" type="curve" smooth="yes"/>
    </contour>
    <contour>
      <point x="494" y="0" type="line"/>
      <point x="569" y="0" type="line" smooth="yes"/>
      <point x="694" y="0"/>
      <point x="754" y="57"/>
      <point x="754" y="140" type="curve" smooth="yes"/>
      <point x="754" y="219"/>
      <point x="705" y="264"/>
      <point x="595" y="264" type="curve" smooth="yes"/>
      <point x="411" y="264" type="line"/>
    </contour>
  </outline>
</glyph>
<glyph name="le.eth" format="2">
  <advance width="664"/>
  <unicode hex="120D"/>
  <note>
uni120D
</note>
  <anchor x="344" y="714" name="top"/>
  <outline>
    <contour>
      <point x="43" y="0" type="curve"/>
      <point x="205" y="0" type="line" smooth="yes"/>
      <point x="316" y="0"/>
      <point x="380" y="50"/>
      <point x="380" y="140" type="curve" smooth="yes"/>
      <point x="380" y="216"/>
      <point x="328" y="264"/>
      <point x="244" y="264" type="curve" smooth="yes"/>
      <point x="170" y="264" type="line"/>
      <point x="201" y="406"/>
      <point x="265" y="469"/>
      <point x="336" y="490" type="curve"/>
      <point x="551" y="0" type="line"/>
      <point x="646" y="0" type="line"/>
      <point x="338" y="714" type="line"/>
      <point x="241" y="714" type="line"/>
      <point x="306" y="563" type="line"/>
      <point x="148" y="514"/>
      <point x="79" y="381"/>
    </contour>
    <contour>
      <point x="141" y="66" type="line"/>
      <point x="145" y="109"/>
      <point x="151" y="152"/>
      <point x="158" y="196" type="curve"/>
      <point x="215" y="196" type="line" smooth="yes"/>
      <point x="265" y="196"/>
      <point x="291" y="176"/>
      <point x="291" y="137" type="curve" smooth="yes"/>
      <point x="291" y="88"/>
      <point x="257" y="66"/>
      <point x="188" y="66" type="curve" smooth="yes"/>
    </contour>
  </outline>
</glyph>
<glyph name="hha.eth" format="2">
  <advance width="757"/>
  <unicode hex="1210"/>
  <note>
uni1210
</note>
  <anchor x="378" y="714" name="top"/>
  <outline>
    <contour>
      <point x="74" y="0" type="line"/>
      <point x="165" y="0" type="line"/>
      <point x="165" y="175" type="line" smooth="yes"/>
      <point x="165" y="292"/>
      <point x="229" y="348"/>
      <point x="333" y="351" type="curve"/>
      <point x="333" y="0" type="line"/>
      <point x="424" y="0" type="line"/>
      <point x="424" y="351" type="line"/>
      <point x="531" y="348"/>
      <point x="592" y="292"/>
      <point x="592" y="174" type="curve" smooth="yes"/>
      <point x="592" y="0" type="line"/>
      <point x="683" y="0" type="line"/>
      <point x="683" y="185" type="line" smooth="yes"/>
      <point x="683" y="342"/>
      <point x="584" y="429"/>
      <point x="424" y="434" type="curve"/>
      <point x="424" y="714" type="line"/>
      <point x="333" y="714" type="line"/>
      <point x="333" y="434" type="line"/>
      <point x="177" y="429"/>
      <point x="74" y="342"/>
      <point x="74" y="185" type="curve" smooth="yes"/>
    </contour>
  </outline>
</glyph>
<glyph name="hhaa.eth" format="2">
  <advance width="757"/>
  <unicode hex="1213"/>
  <note>
uni1213
</note>
  <anchor x="378" y="714" name="top"/>
  <outline>
    <contour>
      <point x="592" y="0" type="line"/>
      <point x="683" y="0" type="line"/>
      <point x="683" y="195" type="line" smooth="yes"/>
      <point x="683" y="352"/>
      <point x="584" y="439"/>
      <point x="424" y="444" type="curve"/>
      <point x="424" y="714" type="line"/>
      <point x="333" y="714" type="line"/>
      <point x="333" y="444" type="line"/>
      <point x="177" y="439"/>
      <point x="74" y="352"/>
      <point x="74" y="195" type="curve" smooth="yes"/>
      <point x="74" y="156" type="line"/>
      <point x="165" y="156" type="line"/>
      <point x="165" y="185" type="line" smooth="yes"/>
      <point x="165" y="302"/>
      <point x="229" y="358"/>
      <point x="333" y="361" type="curve"/>
      <point x="333" y="156" type="line"/>
      <point x="424" y="156" type="line"/>
      <point x="424" y="361" type="line"/>
      <point x="531" y="358"/>
      <point x="592" y="302"/>
      <point x="592" y="184" type="curve" smooth="yes"/>
    </contour>
  </outline>
</glyph>
<glyph name="hhee.eth" format="2">
  <advance width="929"/>
  <unicode hex="1214"/>
  <note>
uni1214
</note>
  <anchor x="492" y="714" name="top"/>
  <outline>
    <contour>
      <point x="592" y="0" type="line"/>
      <point x="726" y="0" type="line" smooth="yes"/>
      <point x="851" y="0"/>
      <point x="911" y="57"/>
      <point x="911" y="140" type="curve" smooth="yes"/>
      <point x="911" y="219"/>
      <point x="862" y="264"/>
      <point x="763" y="264" type="curve" smooth="yes"/>
      <point x="592" y="264" type="line"/>
    </contour>
    <contour>
      <point x="683" y="66" type="line"/>
      <point x="683" y="196" type="line"/>
      <point x="747" y="196" type="line" smooth="yes"/>
      <point x="800" y="196"/>
      <point x="822" y="174"/>
      <point x="822" y="137" type="curve" smooth="yes"/>
      <point x="822" y="96"/>
      <point x="799" y="66"/>
      <point x="729" y="66" type="curve" smooth="yes"/>
    </contour>
    <component base="hha.eth"/>
  </outline>
</glyph>
<glyph name="ma.eth" format="2">
  <advance width="959"/>
  <unicode hex="1218"/>
  <note>
uni1218
</note>
  <anchor x="479" y="714" name="top"/>
  <outline>
    <contour>
      <point x="259" y="-10" type="curve" smooth="yes"/>
      <point x="343" y="-10"/>
      <point x="399" y="36"/>
      <point x="442" y="103" type="curve"/>
      <point x="442" y="644" type="line"/>
      <point x="553" y="644" type="line"/>
      <point x="553" y="73" type="line"/>
      <point x="690" y="73" type="line" smooth="yes"/>
      <point x="823" y="73"/>
      <point x="889" y="188"/>
      <point x="889" y="397" type="curve" smooth="yes"/>
      <point x="889" y="608"/>
      <point x="827" y="714"/>
      <point x="690" y="714" type="curve" smooth="yes"/>
      <point x="329" y="714" type="line" smooth="yes"/>
      <point x="161" y="714"/>
      <point x="70" y="551"/>
      <point x="70" y="312" type="curve" smooth="yes"/>
      <point x="70" y="103"/>
      <point x="125" y="-10"/>
    </contour>
    <contour>
      <point x="263" y="63" type="curve" smooth="yes"/>
      <point x="199" y="63"/>
      <point x="159" y="139"/>
      <point x="159" y="315" type="curve" smooth="yes"/>
      <point x="159" y="535"/>
      <point x="223" y="644"/>
      <point x="337" y="644" type="curve" smooth="yes"/>
      <point x="351" y="644" type="line"/>
      <point x="351" y="113" type="line"/>
      <point x="327" y="78"/>
      <point x="300" y="63"/>
    </contour>
    <contour>
      <point x="644" y="145" type="line"/>
      <point x="644" y="644" type="line"/>
      <point x="682" y="644" type="line" smooth="yes"/>
      <point x="770" y="644"/>
      <point x="801" y="542"/>
      <point x="801" y="398" type="curve" smooth="yes"/>
      <point x="801" y="242"/>
      <point x="773" y="145"/>
      <point x="677" y="145" type="curve" smooth="yes"/>
    </contour>
  </outline>
</glyph>
<glyph name="mi.eth" format="2">
  <advance width="959"/>
  <unicode hex="121A"/>
  <note>
uni121A
</note>
  <anchor x="491" y="714" name="top"/>
  <outline>
    <contour>
      <point x="576" y="0" type="line"/>
      <point x="643" y="0" type="line"/>
      <point x="802" y="384" type="line" smooth="yes"/>
      <point x="828" y="446"/>
      <point x="854" y="522"/>
      <point x="854" y="573" type="curve" smooth="yes"/>
      <point x="854" y="667"/>
      <point x="795" y="714"/>
      <point x="681" y="714" type="curve" smooth="yes"/>
      <point x="285" y="714" type="line" smooth="yes"/>
      <point x="130" y="714"/>
      <point x="38" y="623"/>
      <point x="38" y="476" type="curve" smooth="yes"/>
      <point x="38" y="350"/>
      <point x="109" y="280"/>
      <point x="223" y="280" type="curve" smooth="yes"/>
      <point x="302" y="280"/>
      <point x="365" y="313"/>
      <point x="410" y="360" type="curve"/>
      <point x="410" y="648" type="line"/>
      <point x="518" y="648" type="line"/>
      <point x="507" y="597"/>
      <point x="501" y="545"/>
      <point x="501" y="498" type="curve" smooth="yes"/>
      <point x="501" y="409"/>
      <point x="553" y="362"/>
      <point x="646" y="362" type="curve" smooth="yes"/>
      <point x="699" y="362" type="line"/>
      <point x="576" y="63" type="line"/>
    </contour>
    <contour>
      <point x="627" y="0" type="line"/>
      <point x="730" y="0" type="line"/>
      <point x="730" y="73" type="line"/>
      <point x="627" y="73" type="line"/>
    </contour>
    <contour>
      <point x="228" y="351" type="curve" smooth="yes"/>
      <point x="167" y="351"/>
      <point x="127" y="394"/>
      <point x="127" y="476" type="curve" smooth="yes"/>
      <point x="127" y="586"/>
      <point x="190" y="648"/>
      <point x="291" y="648" type="curve" smooth="yes"/>
      <point x="319" y="648" type="line"/>
      <point x="319" y="383" type="line"/>
      <point x="296" y="364"/>
      <point x="271" y="351"/>
    </contour>
    <contour>
      <point x="697" y="428" type="line" smooth="yes"/>
      <point x="615" y="428"/>
      <point x="589" y="450"/>
      <point x="589" y="508" type="curve" smooth="yes"/>
      <point x="589" y="548"/>
      <point x="594" y="589"/>
      <point x="606" y="648" type="curve"/>
      <point x="673" y="648" type="line" smooth="yes"/>
      <point x="732" y="648"/>
      <point x="767" y="620"/>
      <point x="767" y="569" type="curve" smooth="yes"/>
      <point x="767" y="539"/>
      <point x="758" y="508"/>
      <point x="748" y="483" type="curve" smooth="yes"/>
      <point x="726" y="428" type="line"/>
    </contour>
    <component base="rightdoubleflag" xOffset="666"/>
  </outline>
</glyph>
<glyph name="mee.eth" format="2">
  <advance width="956"/>
  <unicode hex="121C"/>
  <note>
uni121C
</note>
  <anchor x="488" y="714" name="top"/>
  <outline>
    <contour>
      <point x="576" y="0" type="line"/>
      <point x="643" y="0" type="line"/>
      <point x="802" y="384" type="line" smooth="yes"/>
      <point x="828" y="446"/>
      <point x="854" y="522"/>
      <point x="854" y="573" type="curve" smooth="yes"/>
      <point x="854" y="667"/>
      <point x="795" y="714"/>
      <point x="681" y="714" type="curve" smooth="yes"/>
      <point x="285" y="714" type="line" smooth="yes"/>
      <point x="130" y="714"/>
      <point x="38" y="623"/>
      <point x="38" y="476" type="curve" smooth="yes"/>
      <point x="38" y="350"/>
      <point x="109" y="280"/>
      <point x="223" y="280" type="curve" smooth="yes"/>
      <point x="302" y="280"/>
      <point x="365" y="313"/>
      <point x="410" y="360" type="curve"/>
      <point x="410" y="648" type="line"/>
      <point x="518" y="648" type="line"/>
      <point x="507" y="597"/>
      <point x="501" y="545"/>
      <point x="501" y="498" type="curve" smooth="yes"/>
      <point x="501" y="409"/>
      <point x="553" y="362"/>
      <point x="646" y="362" type="curve" smooth="yes"/>
      <point x="699" y="362" type="line"/>
      <point x="576" y="64" type="line"/>
    </contour>
    <contour>
      <point x="228" y="351" type="curve" smooth="yes"/>
      <point x="167" y="351"/>
      <point x="127" y="394"/>
      <point x="127" y="476" type="curve" smooth="yes"/>
      <point x="127" y="586"/>
      <point x="190" y="648"/>
      <point x="291" y="648" type="curve" smooth="yes"/>
      <point x="319" y="648" type="line"/>
      <point x="319" y="383" type="line"/>
      <point x="296" y="364"/>
      <point x="271" y="351"/>
    </contour>
    <contour>
      <point x="657" y="66" type="line"/>
      <point x="710" y="196" type="line"/>
      <point x="774" y="196" type="line" smooth="yes"/>
      <point x="827" y="196"/>
      <point x="849" y="174"/>
      <point x="849" y="137" type="curve" smooth="yes"/>
      <point x="849" y="96"/>
      <point x="826" y="66"/>
      <point x="756" y="66" type="curve" smooth="yes"/>
    </contour>
    <contour>
      <point x="599" y="0" type="line"/>
      <point x="753" y="0" type="line" smooth="yes"/>
      <point x="878" y="0"/>
      <point x="938" y="57"/>
      <point x="938" y="140" type="curve" smooth="yes"/>
      <point x="938" y="219"/>
      <point x="889" y="264"/>
      <point x="790" y="264" type="curve" smooth="yes"/>
      <point x="704" y="264" type="line"/>
    </contour>
    <contour>
      <point x="697" y="428" type="line" smooth="yes"/>
      <point x="615" y="428"/>
      <point x="589" y="450"/>
      <point x="589" y="508" type="curve" smooth="yes"/>
      <point x="589" y="548"/>
      <point x="594" y="589"/>
      <point x="606" y="648" type="curve"/>
      <point x="673" y="648" type="line" smooth="yes"/>
      <point x="732" y="648"/>
      <point x="767" y="620"/>
      <point x="767" y="569" type="curve" smooth="yes"/>
      <point x="767" y="539"/>
      <point x="758" y="508"/>
      <point x="748" y="483" type="curve" smooth="yes"/>
      <point x="726" y="428" type="line"/>
    </contour>
  </outline>
</glyph>
<glyph name="me.eth" format="2">
  <advance width="872"/>
  <unicode hex="121D"/>
  <note>
uni121D
</note>
  <anchor x="443" y="714" name="top"/>
  <outline>
    <contour>
      <point x="223" y="280" type="curve" smooth="yes"/>
      <point x="302" y="280"/>
      <point x="365" y="313"/>
      <point x="410" y="360" type="curve"/>
      <point x="410" y="648" type="line"/>
      <point x="511" y="648" type="line"/>
      <point x="511" y="363" type="line"/>
      <point x="673" y="363" type="line" smooth="yes"/>
      <point x="794" y="363"/>
      <point x="848" y="442"/>
      <point x="848" y="548" type="curve" smooth="yes"/>
      <point x="848" y="647"/>
      <point x="785" y="714"/>
      <point x="667" y="714" type="curve" smooth="yes"/>
      <point x="282" y="714" type="line"/>
      <point x="127" y="714"/>
      <point x="38" y="623"/>
      <point x="38" y="476" type="curve" smooth="yes"/>
      <point x="38" y="350"/>
      <point x="109" y="280"/>
    </contour>
    <contour>
      <point x="175" y="0" type="line"/>
      <point x="268" y="0" type="line"/>
      <point x="410" y="360" type="line"/>
      <point x="320" y="360" type="line"/>
    </contour>
    <contour>
      <point x="228" y="351" type="curve" smooth="yes"/>
      <point x="167" y="351"/>
      <point x="127" y="394"/>
      <point x="127" y="476" type="curve" smooth="yes"/>
      <point x="127" y="586"/>
      <point x="190" y="648"/>
      <point x="291" y="648" type="curve" smooth="yes"/>
      <point x="319" y="648" type="line"/>
      <point x="319" y="383" type="line"/>
      <point x="296" y="364"/>
      <point x="271" y="351"/>
    </contour>
    <contour>
      <point x="602" y="429" type="line"/>
      <point x="602" y="648" type="line"/>
      <point x="665" y="648" type="line" smooth="yes"/>
      <point x="738" y="648"/>
      <point x="759" y="592"/>
      <point x="759" y="543" type="curve" smooth="yes"/>
      <point x="759" y="487"/>
      <point x="736" y="429"/>
      <point x="656" y="429" type="curve" smooth="yes"/>
    </contour>
  </outline>
</glyph>
<glyph name="sza.eth" format="2">
  <advance width="834"/>
  <unicode hex="1220"/>
  <note>
uni1220
</note>
  <anchor x="417" y="714" name="top"/>
  <outline>
    <contour>
      <point x="271" y="-10" type="curve" smooth="yes"/>
      <point x="367" y="-10"/>
      <point x="421" y="46"/>
      <point x="443" y="132" type="curve"/>
      <point x="471" y="105"/>
      <point x="510" y="90"/>
      <point x="558" y="90" type="curve" smooth="yes"/>
      <point x="692" y="90"/>
      <point x="744" y="194"/>
      <point x="744" y="309" type="curve" smooth="yes"/>
      <point x="744" y="714" type="line"/>
      <point x="654" y="714" type="line"/>
      <point x="654" y="312" type="line" smooth="yes"/>
      <point x="654" y="234"/>
      <point x="634" y="170"/>
      <point x="560" y="170" type="curve" smooth="yes"/>
      <point x="487" y="170"/>
      <point x="462" y="225"/>
      <point x="462" y="313" type="curve" smooth="yes"/>
      <point x="462" y="714" type="line"/>
      <point x="372" y="714" type="line"/>
      <point x="372" y="218" type="line" smooth="yes"/>
      <point x="372" y="137"/>
      <point x="350" y="70"/>
      <point x="279" y="70" type="curve" smooth="yes"/>
      <point x="203" y="70"/>
      <point x="180" y="128"/>
      <point x="180" y="216" type="curve" smooth="yes"/>
      <point x="180" y="714" type="line"/>
      <point x="90" y="714" type="line"/>
      <point x="90" y="210" type="line" smooth="yes"/>
      <point x="90" y="81"/>
      <point x="141" y="-10"/>
    </contour>
  </outline>
</glyph>
<glyph name="szi.eth" format="2">
  <advance width="847"/>
  <unicode hex="1222"/>
  <note>
uni1222
</note>
  <anchor x="461" y="714" name="top"/>
  <outline>
    <contour>
      <point x="459" y="0" type="line"/>
      <point x="526" y="0" type="line"/>
      <point x="727" y="485" type="line"/>
      <point x="600" y="404" type="line"/>
      <point x="459" y="63" type="line"/>
    </contour>
    <contour>
      <point x="510" y="0" type="line"/>
      <point x="613" y="0" type="line"/>
      <point x="613" y="73" type="line"/>
      <point x="510" y="73" type="line"/>
    </contour>
    <component base="shorttoploops"/>
    <component base="rightdoubleflag" xOffset="554"/>
  </outline>
</glyph>
<glyph name="szaa.eth" format="2">
  <advance width="834"/>
  <unicode hex="1223"/>
  <note>
uni1223
</note>
  <anchor x="417" y="714" name="top"/>
  <outline>
    <contour>
      <point x="443" y="0" type="line"/>
      <point x="536" y="0" type="line"/>
      <point x="727" y="485" type="line"/>
      <point x="637" y="485" type="line"/>
    </contour>
    <component base="shorttoploops"/>
  </outline>
</glyph>
<glyph name="szee.eth" format="2">
  <advance width="857"/>
  <unicode hex="1224"/>
  <note>
uni1224
</note>
  <anchor x="464" y="714" name="top"/>
  <outline>
    <contour>
      <point x="460" y="0" type="line"/>
      <point x="533" y="0" type="line"/>
      <point x="727" y="485" type="line"/>
      <point x="603" y="398" type="line"/>
      <point x="460" y="63" type="line"/>
    </contour>
    <contour>
      <point x="544" y="66" type="line"/>
      <point x="583" y="196" type="line"/>
      <point x="675" y="196" type="line" smooth="yes"/>
      <point x="728" y="196"/>
      <point x="750" y="174"/>
      <point x="750" y="137" type="curve" smooth="yes"/>
      <point x="750" y="96"/>
      <point x="727" y="66"/>
      <point x="657" y="66" type="curve" smooth="yes"/>
    </contour>
    <contour>
      <point x="472" y="0" type="line"/>
      <point x="654" y="0" type="line" smooth="yes"/>
      <point x="779" y="0"/>
      <point x="839" y="57"/>
      <point x="839" y="140" type="curve" smooth="yes"/>
      <point x="839" y="219"/>
      <point x="790" y="264"/>
      <point x="691" y="264" type="curve" smooth="yes"/>
      <point x="556" y="264" type="line"/>
    </contour>
    <component base="shorttoploops"/>
  </outline>
</glyph>
<glyph name="sze.eth" format="2">
  <advance width="935"/>
  <unicode hex="1225"/>
  <note>
uni1225
</note>
  <anchor x="442" y="714" name="top"/>
  <outline>
    <contour>
      <point x="40" y="0" type="line"/>
      <point x="133" y="0" type="line"/>
      <point x="266" y="340" type="line"/>
      <point x="219" y="446" type="line"/>
    </contour>
    <component base="shorttoploops" xOffset="101"/>
  </outline>
</glyph>
<glyph name="szo.eth" format="2">
  <advance width="834"/>
  <unicode hex="1226"/>
  <note>
uni1226
</note>
  <anchor x="417" y="714" name="top"/>
  <outline>
    <contour>
      <point x="187" y="0" type="line"/>
      <point x="280" y="0" type="line"/>
      <point x="456" y="434" type="line"/>
      <point x="340" y="368" type="line"/>
    </contour>
    <component base="shorttoploops"/>
  </outline>
</glyph>
<glyph name="ru.eth" format="2">
  <advance width="615"/>
  <unicode hex="1229"/>
  <note>
uni1229
</note>
  <anchor x="325" y="714" name="top"/>
  <outline>
    <contour>
      <point x="317" y="0" type="line"/>
      <point x="408" y="0" type="line"/>
      <point x="408" y="188" type="line"/>
      <point x="512" y="188" type="line"/>
      <point x="469" y="261" type="line"/>
      <point x="240" y="261" type="line" smooth="yes"/>
      <point x="170" y="261"/>
      <point x="141" y="286"/>
      <point x="141" y="343" type="curve" smooth="yes"/>
      <point x="141" y="399"/>
      <point x="179" y="423"/>
      <point x="269" y="471" type="curve" smooth="yes"/>
      <point x="391" y="536"/>
      <point x="449" y="601"/>
      <point x="449" y="714" type="curve"/>
      <point x="357" y="714" type="line"/>
      <point x="357" y="634"/>
      <point x="322" y="588"/>
      <point x="210" y="529" type="curve" smooth="yes"/>
      <point x="103" y="473"/>
      <point x="50" y="422"/>
      <point x="50" y="335" type="curve" smooth="yes"/>
      <point x="50" y="247"/>
      <point x="100" y="188"/>
      <point x="230" y="188" type="curve" smooth="yes"/>
      <point x="317" y="188" type="line"/>
    </contour>
    <component base="rightsingleflag" xOffset="322" yOffset="-145"/>
  </outline>
</glyph>
<glyph name="ri.eth" format="2">
  <advance width="574"/>
  <unicode hex="122A"/>
  <note>
uni122A
</note>
  <anchor x="287" y="714" name="top"/>
  <outline>
    <contour>
      <point x="280" y="0" type="line"/>
      <point x="451" y="0"/>
      <point x="524" y="91"/>
      <point x="524" y="241" type="curve" smooth="yes"/>
      <point x="524" y="266" type="line"/>
      <point x="432" y="266" type="line"/>
      <point x="432" y="242" type="line" smooth="yes"/>
      <point x="432" y="131"/>
      <point x="387" y="73"/>
      <point x="280" y="73" type="curve"/>
    </contour>
    <component base="nose"/>
  </outline>
</glyph>
<glyph name="raa.eth" format="2">
  <advance width="664"/>
  <unicode hex="122B"/>
  <note>
uni122B
</note>
  <anchor x="349" y="714" name="top"/>
  <outline>
    <contour>
      <point x="280" y="0" type="line"/>
      <point x="374" y="0" type="line"/>
      <point x="382" y="177"/>
      <point x="425" y="238"/>
      <point x="541" y="238" type="curve"/>
      <point x="555" y="189"/>
      <point x="586" y="156"/>
      <point x="631" y="156" type="curve" smooth="yes"/>
      <point x="649" y="156" type="line"/>
      <point x="615" y="311" type="line"/>
      <point x="530" y="311" type="line" smooth="yes"/>
      <point x="376" y="311"/>
      <point x="305" y="228"/>
      <point x="288" y="73" type="curve"/>
      <point x="280" y="73" type="line"/>
    </contour>
    <component base="nose"/>
  </outline>
</glyph>
<glyph name="ree.eth" format="2">
	<advance width="609"/>
	<unicode hex="122C"/>
	<anchor x="317" y="714" name="top"/>
	<note>
		uni122C
	</note>
	<outline>
		<contour>
			<point x="280" y="0" type="line"/>
			<point x="436" y="0" type="line"/>
			<point x="436" y="40" type="line"/>
			<point x="344" y="73" type="line"/>
			<point x="280" y="73" type="line"/>
		</contour>
		<component base="nose"/>
		<component base="ballbig" xOffset="233" yOffset="-173"/>
	</outline>
</glyph>
<glyph name="ro.eth" format="2">
  <advance width="607"/>
  <unicode hex="122E"/>
  <note>
uni122E
</note>
  <anchor x="326" y="714" name="top"/>
  <outline>
    <contour>
      <point x="466" y="-82" type="curve" smooth="yes"/>
      <point x="487" y="-82" type="line"/>
      <point x="461" y="36" type="line"/>
      <point x="487" y="154" type="line"/>
      <point x="466" y="154" type="line" smooth="yes"/>
      <point x="421" y="154"/>
      <point x="389" y="110"/>
      <point x="379" y="73" type="curve"/>
      <point x="318" y="73" type="line" smooth="yes"/>
      <point x="204" y="73"/>
      <point x="161" y="119"/>
      <point x="161" y="230" type="curve" smooth="yes"/>
      <point x="161" y="304" type="line" smooth="yes"/>
      <point x="161" y="569"/>
      <point x="233" y="641"/>
      <point x="362" y="641" type="curve"/>
      <point x="421" y="714" type="line"/>
      <point x="367" y="714" type="line" smooth="yes"/>
      <point x="159" y="714"/>
      <point x="70" y="589"/>
      <point x="70" y="313" type="curve" smooth="yes"/>
      <point x="70" y="225" type="line" smooth="yes"/>
      <point x="70" y="71"/>
      <point x="139" y="0"/>
      <point x="315" y="0" type="curve" smooth="yes"/>
      <point x="379" y="0" type="line"/>
      <point x="389" y="-37"/>
      <point x="419" y="-82"/>
    </contour>
    <component base="ballbig" xOffset="231" yOffset="277"/>
  </outline>
</glyph>
<glyph name="sa.eth" format="2">
	<advance width="618"/>
	<unicode hex="1230"/>
	<anchor x="309" y="760" name="top"/>
	<note>
		uni1230
	</note>
	<outline>
		<contour>
			<point x="264" y="598" type="line"/>
			<point x="355" y="598" type="line"/>
			<point x="355" y="760" type="line"/>
			<point x="264" y="760" type="line"/>
		</contour>
		<component base="shortnarch"/>
	</outline>
</glyph>
<glyph name="saa.eth" format="2">
  <advance width="618"/>
  <unicode hex="1233"/>
  <note>
uni1233
</note>
  <anchor x="309" y="760" name="top"/>
  <outline>
    <contour>
      <point x="267" y="598" type="line"/>
      <point x="358" y="598" type="line"/>
      <point x="358" y="760" type="line"/>
      <point x="267" y="760" type="line"/>
    </contour>
    <component base="baashort" xOffset="10"/>
  </outline>
</glyph>
<glyph name="se.eth" format="2">
	<advance width="618"/>
	<unicode hex="1235"/>
	<anchor x="309" y="760" name="top"/>
	<note>
		uni1235
	</note>
	<outline>
		<contour>
			<point x="263" y="598" type="line"/>
			<point x="360" y="598" type="line"/>
			<point x="280" y="760" type="line"/>
			<point x="183" y="760" type="line"/>
		</contour>
		<component base="shortnarch"/>
	</outline>
</glyph>
<glyph name="qe.eth" format="2">
  <advance width="651"/>
  <unicode hex="1245"/>
  <note>
uni1245
</note>
  <anchor x="325" y="855" name="top"/>
  <outline>
    <contour>
      <point x="280" y="685" type="line"/>
      <point x="371" y="685" type="line"/>
      <point x="371" y="773" type="line"/>
      <point x="280" y="773" type="line"/>
    </contour>
    <component base="qa.eth"/>
    <component base="leftsingleflag" yScale="-1" xOffset="52" yOffset="1106"/>
  </outline>
</glyph>
<glyph name="qwi.eth" format="2">
  <advance width="952"/>
  <unicode hex="124A"/>
  <note>
uni124A
</note>
  <anchor x="488" y="714" name="top"/>
  <outline>
    <contour>
      <point x="917" y="194" type="curve" smooth="yes"/>
      <point x="937" y="194" type="line"/>
      <point x="903" y="349" type="line"/>
      <point x="689" y="349" type="line"/>
      <point x="689" y="276" type="line"/>
      <point x="829" y="276" type="line"/>
      <point x="843" y="226"/>
      <point x="877" y="194"/>
    </contour>
    <contour>
      <point x="546" y="355" type="line"/>
      <point x="725" y="355" type="line"/>
      <point x="725" y="428" type="line"/>
      <point x="546" y="428" type="line"/>
    </contour>
    <contour>
      <point x="689" y="276" type="line"/>
      <point x="778" y="276" type="line"/>
      <point x="778" y="515" type="line"/>
      <point x="689" y="515" type="line"/>
    </contour>
    <component base="qa.eth"/>
  </outline>
</glyph>
<glyph name="qwaa.eth" format="2">
  <advance width="651"/>
  <unicode hex="124B"/>
  <note>
uni124B
</note>
  <anchor x="325" y="713" name="top"/>
  <outline>
    <contour>
      <point x="220" y="126" type="line"/>
      <point x="576" y="126" type="line"/>
      <point x="576" y="199" type="line"/>
      <point x="220" y="199" type="line"/>
    </contour>
    <contour>
      <point x="487" y="0" type="line"/>
      <point x="576" y="0" type="line"/>
      <point x="576" y="199" type="line"/>
      <point x="487" y="199" type="line"/>
    </contour>
    <component base="midring" yOffset="47"/>
    <component base="leftsingleflag" xOffset="32" yOffset="-207"/>
    <component base="stem1" yScale="0.785" xOffset="200" yOffset="153"/>
  </outline>
</glyph>
<glyph name="qwe.eth" format="2">
  <advance width="941"/>
  <unicode hex="124D"/>
  <note>
uni124D
</note>
  <anchor x="483" y="714" name="top"/>
  <outline>
    <contour>
      <point x="694" y="362" type="line"/>
      <point x="778" y="362" type="line"/>
      <point x="778" y="594" type="line"/>
      <point x="694" y="594" type="line"/>
    </contour>
    <contour>
      <point x="546" y="362" type="line"/>
      <point x="725" y="362" type="line"/>
      <point x="725" y="435" type="line"/>
      <point x="546" y="435" type="line"/>
    </contour>
    <component base="rightsingleflag" xOffset="648" yOffset="29"/>
    <component base="qa.eth"/>
  </outline>
</glyph>
<glyph name="qha.eth" format="2">
	<advance width="651"/>
	<unicode hex="1250"/>
	<anchor x="325" y="854" name="top"/>
	<note>
		uni1250
	</note>
	<outline>
		<contour>
			<point x="280" y="696" type="line"/>
			<point x="371" y="696" type="line"/>
			<point x="371" y="766" type="line"/>
			<point x="280" y="766" type="line"/>
		</contour>
		<component base="qa.eth"/>
		<component base="bonemiddle" xOffset="46"/>
	</outline>
</glyph>
<glyph name="qhu.eth" format="2">
  <advance width="651"/>
  <unicode hex="1251"/>
  <note>
uni1251
</note>
  <anchor x="325" y="854" name="top"/>
  <outline>
    <contour>
      <point x="280" y="676" type="line"/>
      <point x="371" y="676" type="line"/>
      <point x="371" y="766" type="line"/>
      <point x="280" y="766" type="line"/>
    </contour>
    <component base="qu.eth"/>
    <component base="bonemiddle" xOffset="39"/>
  </outline>
</glyph>
<glyph name="qhaa.eth" format="2">
	<advance width="665"/>
	<unicode hex="1253"/>
	<anchor x="332" y="854" name="top"/>
	<note>
		uni1253
	</note>
	<outline>
		<contour>
			<point x="298" y="676" type="line"/>
			<point x="389" y="676" type="line"/>
			<point x="389" y="766" type="line"/>
			<point x="298" y="766" type="line"/>
		</contour>
		<component base="qaa.eth" xOffset="25"/>
		<component base="bonemiddle" xOffset="59"/>
	</outline>
</glyph>
<glyph name="qhee.eth" format="2">
  <advance width="651"/>
  <unicode hex="1254"/>
  <note>
uni1254
</note>
  <anchor x="325" y="877" name="top"/>
  <outline>
    <contour>
      <point x="283" y="696" type="line"/>
      <point x="374" y="696" type="line"/>
      <point x="374" y="766" type="line"/>
      <point x="283" y="766" type="line"/>
    </contour>
    <component base="qee.eth"/>
    <component base="bonemiddle" xOffset="45" yOffset="23"/>
  </outline>
</glyph>
<glyph name="qhe.eth" format="2">
	<advance width="748"/>
	<unicode hex="1255"/>
	<anchor x="361" y="854" name="top"/>
	<note>
		uni1255
	</note>
	<outline>
		<contour>
			<point x="381" y="0" type="line"/>
			<point x="472" y="0" type="line"/>
			<point x="472" y="594" type="line"/>
			<point x="406" y="594" type="line" smooth="yes"/>
			<point x="337" y="594"/>
			<point x="304" y="616"/>
			<point x="304" y="703" type="curve" smooth="yes"/>
			<point x="304" y="721" type="line"/>
			<point x="213" y="721" type="line"/>
			<point x="213" y="695" type="line" smooth="yes"/>
			<point x="213" y="575"/>
			<point x="274" y="524"/>
			<point x="381" y="520" type="curve"/>
		</contour>
		<component base="midringshort" xOffset="97" yOffset="-90"/>
		<component base="bone"/>
	</outline>
</glyph>
<glyph name="qhwa.eth" format="2">
  <advance width="718"/>
  <unicode hex="1258"/>
  <note>
uni1258
</note>
  <anchor x="366" y="877" name="top"/>
  <outline>
    <contour>
      <point x="280" y="696" type="line"/>
      <point x="371" y="696" type="line"/>
      <point x="371" y="766" type="line"/>
      <point x="280" y="766" type="line"/>
    </contour>
    <component base="stem1" xOffset="200"/>
    <component base="rightbulbsmall" xOffset="323" yOffset="-190"/>
    <component base="midringshort" yOffset="52"/>
    <component base="bonemiddle" xOffset="36" yOffset="23"/>
  </outline>
</glyph>
<glyph name="qhwi.eth" format="2">
  <advance width="952"/>
  <unicode hex="125A"/>
  <note>
uni125A
</note>
  <anchor x="488" y="854" name="top"/>
  <outline>
    <contour>
      <point x="917" y="194" type="curve" smooth="yes"/>
      <point x="937" y="194" type="line"/>
      <point x="903" y="349" type="line"/>
      <point x="689" y="349" type="line"/>
      <point x="689" y="276" type="line"/>
      <point x="829" y="276" type="line"/>
      <point x="843" y="226"/>
      <point x="877" y="194"/>
    </contour>
    <contour>
      <point x="546" y="355" type="line"/>
      <point x="725" y="355" type="line"/>
      <point x="725" y="428" type="line"/>
      <point x="546" y="428" type="line"/>
    </contour>
    <contour>
      <point x="689" y="276" type="line"/>
      <point x="778" y="276" type="line"/>
      <point x="778" y="515" type="line"/>
      <point x="689" y="515" type="line"/>
    </contour>
    <component base="qha.eth"/>
  </outline>
</glyph>
<glyph name="qhwaa.eth" format="2">
	<advance width="651"/>
	<unicode hex="125B"/>
	<anchor x="325" y="854" name="top"/>
	<note>
		uni125B
	</note>
	<outline>
		<contour>
			<point x="215" y="127" type="line"/>
			<point x="566" y="127" type="line"/>
			<point x="566" y="199" type="line"/>
			<point x="215" y="199" type="line"/>
		</contour>
		<contour>
			<point x="477" y="0" type="line"/>
			<point x="566" y="0" type="line"/>
			<point x="566" y="199" type="line"/>
			<point x="477" y="199" type="line"/>
		</contour>
		<component base="midringshort" yOffset="49"/>
		<component base="bonemiddle" xOffset="41"/>
		<component base="stem1" yScale="0.882" xOffset="203" yOffset="132"/>
		<component base="leftsingleflag" xOffset="27" yOffset="-206"/>
	</outline>
</glyph>
<glyph name="qhwe.eth" format="2">
  <advance width="941"/>
  <unicode hex="125D"/>
  <note>
uni125D
</note>
  <anchor x="483" y="854" name="top"/>
  <outline>
    <contour>
      <point x="694" y="362" type="line"/>
      <point x="778" y="362" type="line"/>
      <point x="778" y="594" type="line"/>
      <point x="694" y="594" type="line"/>
    </contour>
    <contour>
      <point x="546" y="362" type="line"/>
      <point x="725" y="362" type="line"/>
      <point x="725" y="435" type="line"/>
      <point x="546" y="435" type="line"/>
    </contour>
    <component base="qha.eth"/>
    <component base="rightsingleflag" xOffset="648" yOffset="29"/>
  </outline>
</glyph>
<glyph name="baa.eth" format="2">
  <advance width="610"/>
  <unicode hex="1263"/>
  <note>
uni1263
</note>
  <anchor x="301" y="724" name="top"/>
  <outline>
    <contour>
      <point x="429" y="0" type="line"/>
      <point x="520" y="0" type="line"/>
      <point x="520" y="470" type="line" smooth="yes"/>
      <point x="520" y="634"/>
      <point x="456" y="724"/>
      <point x="303" y="724" type="curve" smooth="yes"/>
      <point x="152" y="724"/>
      <point x="82" y="624"/>
      <point x="82" y="472" type="curve" smooth="yes"/>
      <point x="82" y="240" type="line"/>
      <point x="173" y="240" type="line"/>
      <point x="173" y="464" type="line" smooth="yes"/>
      <point x="173" y="573"/>
      <point x="203" y="644"/>
      <point x="303" y="644" type="curve" smooth="yes"/>
      <point x="394" y="644"/>
      <point x="429" y="579"/>
      <point x="429" y="465" type="curve" smooth="yes"/>
    </contour>
  </outline>
</glyph>
<glyph name="te.eth" format="2">
  <advance width="601"/>
  <unicode hex="1275"/>
  <note>
uni1275
</note>
  <anchor x="300" y="804" name="top"/>
  <outline>
    <contour>
      <point x="262" y="0" type="line"/>
      <point x="353" y="0" type="line"/>
      <point x="353" y="627" type="line"/>
      <point x="287" y="627" type="line" smooth="yes"/>
      <point x="218" y="627"/>
      <point x="185" y="649"/>
      <point x="185" y="736" type="curve" smooth="yes"/>
      <point x="185" y="804" type="line"/>
      <point x="94" y="804" type="line"/>
      <point x="94" y="728" type="line" smooth="yes"/>
      <point x="94" y="608"/>
      <point x="155" y="557"/>
      <point x="262" y="553" type="curve"/>
    </contour>
    <component base="footmiddle" yOffset="410"/>
  </outline>
</glyph>
<glyph name="caa.eth" format="2">
  <advance width="619"/>
  <unicode hex="127B"/>
  <note>
uni127B
</note>
  <anchor x="309" y="854" name="top"/>
  <outline>
    <contour>
      <point x="273" y="655" type="line"/>
      <point x="364" y="655" type="line"/>
      <point x="364" y="770" type="line"/>
      <point x="273" y="770" type="line"/>
    </contour>
    <component base="jstem"/>
    <component base="footmiddle" xOffset="18" yOffset="462"/>
    <component base="bonemiddle" xOffset="39"/>
  </outline>
</glyph>
<glyph name="cee.eth" format="2">
  <advance width="601"/>
  <unicode hex="127C"/>
  <note>
uni127C
</note>
  <anchor x="300" y="854" name="top"/>
  <outline>
    <contour>
      <point x="255" y="645" type="line"/>
      <point x="346" y="645" type="line"/>
      <point x="346" y="738" type="line"/>
      <point x="255" y="738" type="line"/>
    </contour>
    <component base="stem1" xOffset="175"/>
    <component base="baselinebowl" xOffset="215"/>
    <component base="bonemiddle" xOffset="21"/>
    <component base="footmiddle" yOffset="447"/>
  </outline>
</glyph>
<glyph name="ce.eth" format="2">
  <advance width="732"/>
  <unicode hex="127D"/>
  <note>
uni127D
</note>
  <anchor x="366" y="854" name="top"/>
  <outline>
    <contour>
      <point x="391" y="0" type="line"/>
      <point x="482" y="0" type="line"/>
      <point x="482" y="576" type="line"/>
      <point x="416" y="576" type="line" smooth="yes"/>
      <point x="347" y="576"/>
      <point x="314" y="598"/>
      <point x="314" y="685" type="curve" smooth="yes"/>
      <point x="314" y="773" type="line"/>
      <point x="223" y="773" type="line"/>
      <point x="223" y="677" type="line" smooth="yes"/>
      <point x="223" y="557"/>
      <point x="284" y="506"/>
      <point x="391" y="502" type="curve"/>
    </contour>
    <contour>
      <point x="49" y="700" type="line"/>
      <point x="405" y="700" type="line"/>
      <point x="415" y="662"/>
      <point x="447" y="618"/>
      <point x="489" y="618" type="curve" smooth="yes"/>
      <point x="513" y="618" type="line"/>
      <point x="487" y="736" type="line"/>
      <point x="513" y="854" type="line"/>
      <point x="489" y="854" type="line" smooth="yes"/>
      <point x="447" y="854"/>
      <point x="415" y="810"/>
      <point x="405" y="773" type="curve"/>
      <point x="123" y="773" type="line"/>
      <point x="113" y="810"/>
      <point x="81" y="854"/>
      <point x="39" y="854" type="curve" smooth="yes"/>
      <point x="15" y="854" type="line"/>
    </contour>
    <component base="footmiddle" xOffset="131" yOffset="394"/>
  </outline>
</glyph>
<glyph name="co.eth" format="2">
  <advance width="634"/>
  <unicode hex="127E"/>
  <note>
uni127E
</note>
  <anchor x="317" y="867" name="top"/>
  <outline>
    <contour>
      <point x="246" y="740" type="line"/>
      <point x="386" y="740" type="line"/>
      <point x="386" y="785" type="line"/>
      <point x="246" y="785" type="line"/>
    </contour>
    <component base="to.eth" xOffset="13"/>
    <component base="leftdoubleflag" xOffset="15" yOffset="712"/>
    <component base="rightsingleflag" yScale="-1" xOffset="328" yOffset="1118"/>
  </outline>
</glyph>
<glyph name="xaa.eth" format="2">
  <advance width="571"/>
  <unicode hex="1283"/>
  <note>
uni1283
</note>
  <anchor x="243" y="713" name="top"/>
  <outline>
    <contour>
      <point x="15" y="-82" type="line"/>
      <point x="31" y="-82" type="line" smooth="yes"/>
      <point x="76" y="-82"/>
      <point x="108" y="-52"/>
      <point x="122" y="0" type="curve"/>
      <point x="229" y="0" type="line" smooth="yes"/>
      <point x="401" y="0"/>
      <point x="471" y="79"/>
      <point x="471" y="224" type="curve" smooth="yes"/>
      <point x="471" y="351" type="line"/>
      <point x="380" y="351" type="line"/>
      <point x="380" y="231" type="line" smooth="yes"/>
      <point x="380" y="107"/>
      <point x="346" y="73"/>
      <point x="213" y="73" type="curve" smooth="yes"/>
      <point x="49" y="73" type="line"/>
    </contour>
    <contour>
      <point x="380" y="290" type="line"/>
      <point x="471" y="290" type="line"/>
      <point x="471" y="536" type="line"/>
      <point x="405" y="536" type="line" smooth="yes"/>
      <point x="336" y="536"/>
      <point x="303" y="558"/>
      <point x="303" y="645" type="curve" smooth="yes"/>
      <point x="303" y="713" type="line"/>
      <point x="212" y="713" type="line"/>
      <point x="212" y="637" type="line" smooth="yes"/>
      <point x="212" y="517"/>
      <point x="273" y="466"/>
      <point x="380" y="462" type="curve"/>
    </contour>
    <component base="leftsingleflag" xOffset="14" yOffset="230"/>
  </outline>
</glyph>
<glyph name="xe.eth" format="2">
	<advance width="578"/>
	<unicode hex="1285"/>
	<anchor x="253" y="713" name="top"/>
	<note>
		uni1285
	</note>
	<outline>
		<contour>
			<point x="28" y="380" type="curve"/>
			<point x="112" y="380" type="line"/>
			<point x="112" y="506"/>
			<point x="178" y="560"/>
			<point x="247" y="574" type="curve"/>
			<point x="241" y="652" type="line"/>
			<point x="125" y="632"/>
			<point x="28" y="550"/>
		</contour>
		<component base="na.eth" xOffset="159"/>
	</outline>
</glyph>
<glyph name="xwi.eth" format="2">
  <advance width="817"/>
  <unicode hex="128A"/>
  <note>
uni128A
</note>
  <anchor x="408" y="713" name="top"/>
  <outline>
    <contour>
      <point x="782" y="119" type="curve" smooth="yes"/>
      <point x="802" y="119" type="line"/>
      <point x="768" y="274" type="line"/>
      <point x="554" y="274" type="line"/>
      <point x="554" y="201" type="line"/>
      <point x="694" y="201" type="line"/>
      <point x="708" y="151"/>
      <point x="742" y="119"/>
    </contour>
    <contour>
      <point x="411" y="280" type="line"/>
      <point x="590" y="280" type="line"/>
      <point x="590" y="353" type="line"/>
      <point x="411" y="353" type="line"/>
    </contour>
    <contour>
      <point x="554" y="201" type="line"/>
      <point x="643" y="201" type="line"/>
      <point x="643" y="440" type="line"/>
      <point x="554" y="440" type="line"/>
    </contour>
    <component base="xa.eth"/>
  </outline>
</glyph>
<glyph name="xwaa.eth" format="2">
  <advance width="642"/>
  <unicode hex="128B"/>
  <note>
uni128B
</note>
  <anchor x="316" y="713" name="top"/>
  <outline>
    <contour>
      <point x="373" y="153" type="line"/>
      <point x="464" y="153" type="line"/>
      <point x="464" y="536" type="line"/>
      <point x="398" y="536" type="line" smooth="yes"/>
      <point x="329" y="536"/>
      <point x="296" y="558"/>
      <point x="296" y="645" type="curve" smooth="yes"/>
      <point x="296" y="713" type="line"/>
      <point x="205" y="713" type="line"/>
      <point x="205" y="637" type="line" smooth="yes"/>
      <point x="205" y="517"/>
      <point x="266" y="466"/>
      <point x="373" y="462" type="curve"/>
    </contour>
    <contour>
      <point x="227" y="126" type="line"/>
      <point x="617" y="126" type="line"/>
      <point x="617" y="199" type="line"/>
      <point x="227" y="199" type="line"/>
    </contour>
    <contour>
      <point x="528" y="0" type="line"/>
      <point x="617" y="0" type="line"/>
      <point x="617" y="199" type="line"/>
      <point x="528" y="199" type="line"/>
    </contour>
    <component base="leftsingleflag" xOffset="39" yOffset="-207"/>
    <component base="leftsingleflag" yOffset="230"/>
  </outline>
</glyph>
<glyph name="xwee.eth" format="2">
	<advance width="700"/>
	<unicode hex="128C"/>
	<anchor x="348" y="713" name="top"/>
	<note>
		uni128C
	</note>
	<outline>
		<contour>
			<point x="314" y="0" type="line"/>
			<point x="450" y="0" type="line"/>
			<point x="450" y="73" type="line"/>
			<point x="314" y="73" type="line"/>
		</contour>
		<component base="xee.eth"/>
		<component base="leftsingleflag" xOffset="75" yOffset="-333"/>
	</outline>
</glyph>
<glyph name="xwe.eth" format="2">
  <advance width="784"/>
  <unicode hex="128D"/>
  <note>
uni128D
</note>
  <anchor x="392" y="713" name="top"/>
  <outline>
    <contour>
      <point x="402" y="268" type="line"/>
      <point x="584" y="268" type="line"/>
      <point x="584" y="341" type="line"/>
      <point x="402" y="341" type="line"/>
    </contour>
    <contour>
      <point x="550" y="315" type="line"/>
      <point x="634" y="315" type="line"/>
      <point x="634" y="435" type="line"/>
      <point x="550" y="435" type="line"/>
    </contour>
    <component base="xa.eth"/>
    <component base="rightsingleflag" xOffset="491" yOffset="-65"/>
  </outline>
</glyph>
<glyph name="na.eth" format="2">
  <advance width="419"/>
  <unicode hex="1290"/>
  <note>
uni1290
</note>
  <anchor x="189" y="713" name="top"/>
  <outline>
    <contour>
      <point x="228" y="0" type="line"/>
      <point x="319" y="0" type="line"/>
      <point x="319" y="536" type="line"/>
      <point x="253" y="536" type="line" smooth="yes"/>
      <point x="184" y="536"/>
      <point x="151" y="558"/>
      <point x="151" y="645" type="curve" smooth="yes"/>
      <point x="151" y="713" type="line"/>
      <point x="60" y="713" type="line"/>
      <point x="60" y="637" type="line" smooth="yes"/>
      <point x="60" y="517"/>
      <point x="121" y="466"/>
      <point x="228" y="462" type="curve"/>
    </contour>
  </outline>
</glyph>
<glyph name="naa.eth" format="2">
  <advance width="511"/>
  <unicode hex="1293"/>
  <note>
uni1293
</note>
  <anchor x="283" y="714" name="top"/>
  <outline>
    <contour>
      <point x="70" y="271" type="line"/>
      <point x="161" y="295" type="line"/>
      <point x="161" y="304" type="line" smooth="yes"/>
      <point x="161" y="569"/>
      <point x="234" y="641"/>
      <point x="363" y="641" type="curve" smooth="yes"/>
      <point x="388" y="641" type="line"/>
      <point x="405" y="585"/>
      <point x="439" y="559"/>
      <point x="476" y="559" type="curve" smooth="yes"/>
      <point x="496" y="559" type="line"/>
      <point x="462" y="714" type="line"/>
      <point x="367" y="714" type="line" smooth="yes"/>
      <point x="159" y="714"/>
      <point x="70" y="589"/>
      <point x="70" y="313" type="curve" smooth="yes"/>
    </contour>
    <contour>
      <point x="246" y="0" type="line"/>
      <point x="337" y="0" type="line"/>
      <point x="337" y="338" type="line"/>
      <point x="110" y="338" type="line"/>
      <point x="70" y="271" type="line"/>
      <point x="246" y="271" type="line"/>
    </contour>
  </outline>
</glyph>
<glyph name="nee.eth" format="2">
  <advance width="464"/>
  <unicode hex="1294"/>
  <note>
uni1294
</note>
  <anchor x="253" y="713" name="top"/>
  <outline>
    <contour>
      <point x="84" y="0" type="line"/>
      <point x="156" y="0" type="line"/>
      <point x="371" y="536" type="line"/>
      <point x="254" y="536" type="line" smooth="yes"/>
      <point x="185" y="536"/>
      <point x="152" y="558"/>
      <point x="152" y="645" type="curve" smooth="yes"/>
      <point x="152" y="713" type="line"/>
      <point x="61" y="713" type="line"/>
      <point x="61" y="637" type="line" smooth="yes"/>
      <point x="61" y="511"/>
      <point x="122" y="461"/>
      <point x="243" y="457" type="curve"/>
      <point x="84" y="64" type="line"/>
    </contour>
    <contour>
      <point x="165" y="66" type="line"/>
      <point x="218" y="196" type="line"/>
      <point x="282" y="196" type="line" smooth="yes"/>
      <point x="335" y="196"/>
      <point x="357" y="174"/>
      <point x="357" y="137" type="curve" smooth="yes"/>
      <point x="357" y="96"/>
      <point x="334" y="66"/>
      <point x="264" y="66" type="curve" smooth="yes"/>
    </contour>
    <contour>
      <point x="107" y="0" type="line"/>
      <point x="261" y="0" type="line" smooth="yes"/>
      <point x="386" y="0"/>
      <point x="446" y="57"/>
      <point x="446" y="140" type="curve" smooth="yes"/>
      <point x="446" y="219"/>
      <point x="397" y="264"/>
      <point x="298" y="264" type="curve" smooth="yes"/>
      <point x="212" y="264" type="line"/>
    </contour>
  </outline>
</glyph>
<glyph name="ne.eth" format="2">
  <advance width="488"/>
  <unicode hex="1295"/>
  <note>
uni1295
</note>
  <anchor x="239" y="714" name="top"/>
  <outline>
    <contour>
      <point x="153" y="0" type="line"/>
      <point x="253" y="0" type="line"/>
      <point x="464" y="481" type="line"/>
      <point x="323" y="481" type="line"/>
      <point x="323" y="531" type="line" smooth="yes"/>
      <point x="323" y="652"/>
      <point x="269" y="714"/>
      <point x="148" y="714" type="curve" smooth="yes"/>
      <point x="49" y="714" type="line"/>
      <point x="15" y="559" type="line"/>
      <point x="33" y="559" type="line" smooth="yes"/>
      <point x="76" y="559"/>
      <point x="107" y="589"/>
      <point x="123" y="641" type="curve"/>
      <point x="138" y="641" type="line" smooth="yes"/>
      <point x="195" y="641"/>
      <point x="232" y="615"/>
      <point x="232" y="528" type="curve" smooth="yes"/>
      <point x="232" y="403" type="line"/>
      <point x="335" y="403" type="line"/>
    </contour>
  </outline>
</glyph>
<glyph name="no.eth" format="2">
  <advance width="607"/>
  <unicode hex="1296"/>
  <note>
uni1296
</note>
  <anchor x="326" y="714" name="top"/>
  <outline>
    <contour>
      <point x="270" y="0" type="line"/>
      <point x="361" y="0" type="line"/>
      <point x="361" y="348" type="line"/>
      <point x="162" y="348" type="line"/>
      <point x="167" y="504"/>
      <point x="207" y="591"/>
      <point x="265" y="629" type="curve"/>
      <point x="417" y="714" type="line"/>
      <point x="387" y="714" type="line" smooth="yes"/>
      <point x="159" y="714"/>
      <point x="70" y="589"/>
      <point x="70" y="313" type="curve" smooth="yes"/>
      <point x="70" y="271" type="line"/>
      <point x="270" y="271" type="line"/>
    </contour>
    <component base="ballbig" xOffset="231" yOffset="277"/>
  </outline>
</glyph>
<glyph name="nya.eth" format="2">
  <advance width="565"/>
  <unicode hex="1298"/>
  <note>
uni1298
</note>
  <anchor x="264" y="795" name="top"/>
  <outline>
    <contour>
      <point x="384" y="0" type="line"/>
      <point x="475" y="0" type="line"/>
      <point x="475" y="486" type="line"/>
      <point x="409" y="486" type="line" smooth="yes"/>
      <point x="340" y="486"/>
      <point x="307" y="508"/>
      <point x="307" y="595" type="curve" smooth="yes"/>
      <point x="307" y="663" type="line"/>
      <point x="216" y="663" type="line"/>
      <point x="216" y="587" type="line" smooth="yes"/>
      <point x="216" y="467"/>
      <point x="277" y="416"/>
      <point x="384" y="412" type="curve"/>
    </contour>
    <component base="bone" yOffset="-59"/>
  </outline>
</glyph>
<glyph name="nyaa.eth" format="2">
  <advance width="559"/>
  <unicode hex="129B"/>
  <note>
uni129B
</note>
  <anchor x="279" y="801" name="top"/>
  <outline>
    <contour>
      <point x="71" y="221" type="line"/>
      <point x="162" y="245" type="line"/>
      <point x="162" y="291" type="line" smooth="yes"/>
      <point x="162" y="433"/>
      <point x="232" y="488"/>
      <point x="325" y="488" type="curve" smooth="yes"/>
      <point x="337" y="488" type="line"/>
      <point x="352" y="436"/>
      <point x="384" y="406"/>
      <point x="429" y="406" type="curve" smooth="yes"/>
      <point x="445" y="406" type="line"/>
      <point x="411" y="561" type="line"/>
      <point x="331" y="561" type="line" smooth="yes"/>
      <point x="159" y="561"/>
      <point x="71" y="453"/>
      <point x="71" y="300" type="curve" smooth="yes"/>
    </contour>
    <contour>
      <point x="247" y="0" type="line"/>
      <point x="338" y="0" type="line"/>
      <point x="338" y="288" type="line"/>
      <point x="111" y="288" type="line"/>
      <point x="71" y="221" type="line"/>
      <point x="247" y="221" type="line"/>
    </contour>
    <contour>
      <point x="235" y="524" type="line"/>
      <point x="328" y="524" type="line"/>
      <point x="328" y="679" type="line"/>
      <point x="235" y="679" type="line"/>
    </contour>
    <component base="bonemiddle" yOffset="-53"/>
  </outline>
</glyph>
<glyph name="nyee.eth" format="2">
  <advance width="590"/>
  <unicode hex="129C"/>
  <note>
uni129C
</note>
  <anchor x="293" y="804" name="top"/>
  <outline>
    <contour>
      <point x="210" y="0" type="line"/>
      <point x="282" y="0" type="line"/>
      <point x="471" y="469" type="line"/>
      <point x="333" y="469" type="line"/>
      <point x="333" y="691" type="line"/>
      <point x="242" y="691" type="line"/>
      <point x="242" y="403" type="line"/>
      <point x="347" y="403" type="line"/>
      <point x="210" y="64" type="line"/>
    </contour>
    <contour>
      <point x="291" y="66" type="line"/>
      <point x="344" y="196" type="line"/>
      <point x="408" y="196" type="line" smooth="yes"/>
      <point x="461" y="196"/>
      <point x="483" y="174"/>
      <point x="483" y="137" type="curve" smooth="yes"/>
      <point x="483" y="96"/>
      <point x="460" y="66"/>
      <point x="390" y="66" type="curve" smooth="yes"/>
    </contour>
    <contour>
      <point x="233" y="0" type="line"/>
      <point x="387" y="0" type="line" smooth="yes"/>
      <point x="512" y="0"/>
      <point x="572" y="57"/>
      <point x="572" y="140" type="curve" smooth="yes"/>
      <point x="572" y="219"/>
      <point x="523" y="264"/>
      <point x="424" y="264" type="curve" smooth="yes"/>
      <point x="338" y="264" type="line"/>
    </contour>
    <component base="bonemiddle" yOffset="-50"/>
  </outline>
</glyph>
<glyph name="nye.eth" format="2">
  <advance width="539"/>
  <unicode hex="129D"/>
  <note>
uni129D
</note>
  <anchor x="257" y="796" name="top"/>
  <outline>
    <contour>
      <point x="222" y="0" type="line"/>
      <point x="322" y="0" type="line"/>
      <point x="499" y="403" type="line"/>
      <point x="381" y="403" type="line"/>
      <point x="381" y="410" type="line" smooth="yes"/>
      <point x="381" y="481"/>
      <point x="334" y="545"/>
      <point x="213" y="545" type="curve" smooth="yes"/>
      <point x="116" y="545" type="line"/>
      <point x="82" y="390" type="line"/>
      <point x="100" y="390" type="line" smooth="yes"/>
      <point x="143" y="390"/>
      <point x="173" y="419"/>
      <point x="190" y="472" type="curve"/>
      <point x="203" y="472" type="line" smooth="yes"/>
      <point x="260" y="472"/>
      <point x="290" y="446"/>
      <point x="290" y="379" type="curve" smooth="yes"/>
      <point x="290" y="329" type="line"/>
      <point x="375" y="329" type="line"/>
    </contour>
    <contour>
      <point x="202" y="528" type="line"/>
      <point x="295" y="528" type="line"/>
      <point x="295" y="673" type="line"/>
      <point x="202" y="673" type="line"/>
    </contour>
    <component base="footshort" xScale="-1" yScale="-1" xOffset="501" yOffset="714"/>
  </outline>
</glyph>
<glyph name="nyo.eth" format="2">
  <advance width="674"/>
  <unicode hex="129E"/>
  <note>
uni129E
</note>
  <anchor x="340" y="802" name="top"/>
  <outline>
    <contour>
      <point x="274" y="0" type="line"/>
      <point x="365" y="0" type="line"/>
      <point x="365" y="287" type="line"/>
      <point x="165" y="287" type="line"/>
      <point x="165" y="399"/>
      <point x="217" y="480"/>
      <point x="371" y="480" type="curve"/>
      <point x="478" y="550" type="line"/>
      <point x="371" y="550" type="line" smooth="yes"/>
      <point x="143" y="550"/>
      <point x="74" y="429"/>
      <point x="74" y="279" type="curve" smooth="yes"/>
      <point x="74" y="210" type="line"/>
      <point x="274" y="210" type="line"/>
    </contour>
    <contour>
      <point x="486" y="286" type="curve" smooth="yes"/>
      <point x="592" y="286"/>
      <point x="649" y="346"/>
      <point x="649" y="419" type="curve" smooth="yes"/>
      <point x="649" y="497"/>
      <point x="596" y="550"/>
      <point x="486" y="550" type="curve" smooth="yes"/>
      <point x="379" y="550"/>
      <point x="323" y="493"/>
      <point x="323" y="416" type="curve" smooth="yes"/>
      <point x="323" y="342"/>
      <point x="369" y="286"/>
    </contour>
    <contour>
      <point x="254" y="514" type="line"/>
      <point x="345" y="514" type="line"/>
      <point x="345" y="691" type="line"/>
      <point x="254" y="691" type="line"/>
    </contour>
    <contour>
      <point x="486" y="353" type="curve" smooth="yes"/>
      <point x="436" y="353"/>
      <point x="412" y="377"/>
      <point x="412" y="418" type="curve" smooth="yes"/>
      <point x="412" y="458"/>
      <point x="437" y="482"/>
      <point x="486" y="482" type="curve" smooth="yes"/>
      <point x="535" y="482"/>
      <point x="560" y="458"/>
      <point x="560" y="418" type="curve" smooth="yes"/>
      <point x="560" y="377"/>
      <point x="536" y="353"/>
    </contour>
    <component base="bonemiddle" xOffset="17" yOffset="-52"/>
  </outline>
</glyph>
<glyph name="aGlottal.eth" format="2">
  <advance width="553"/>
  <unicode hex="12A0"/>
  <note>
uni12A0
</note>
  <anchor x="291" y="713" name="top"/>
  <outline>
    <contour>
      <point x="55" y="0" type="line"/>
      <point x="156" y="0" type="line"/>
      <point x="371" y="536" type="line"/>
      <point x="254" y="536" type="line" smooth="yes"/>
      <point x="185" y="536"/>
      <point x="152" y="558"/>
      <point x="152" y="645" type="curve" smooth="yes"/>
      <point x="152" y="713" type="line"/>
      <point x="61" y="713" type="line"/>
      <point x="61" y="637" type="line" smooth="yes"/>
      <point x="61" y="517"/>
      <point x="122" y="461"/>
      <point x="243" y="457" type="curve"/>
    </contour>
    <contour>
      <point x="437" y="0" type="curve"/>
      <point x="528" y="0" type="line"/>
      <point x="510" y="251"/>
      <point x="417" y="351"/>
      <point x="298" y="390" type="curve"/>
      <point x="265" y="311" type="line"/>
      <point x="354" y="272"/>
      <point x="426" y="191"/>
    </contour>
  </outline>
</glyph>
<glyph name="aaGlottal.eth" format="2">
  <advance width="547"/>
  <unicode hex="12A3"/>
  <note>
uni12A3
</note>
  <anchor x="288" y="713" name="top"/>
  <outline>
    <contour>
      <point x="110" y="147" type="line"/>
      <point x="209" y="147" type="line"/>
      <point x="365" y="536" type="line"/>
      <point x="248" y="536" type="line" smooth="yes"/>
      <point x="179" y="536"/>
      <point x="146" y="558"/>
      <point x="146" y="645" type="curve" smooth="yes"/>
      <point x="146" y="713" type="line"/>
      <point x="55" y="713" type="line"/>
      <point x="55" y="637" type="line" smooth="yes"/>
      <point x="55" y="517"/>
      <point x="116" y="461"/>
      <point x="237" y="457" type="curve"/>
    </contour>
    <contour>
      <point x="431" y="0" type="curve"/>
      <point x="522" y="0" type="line"/>
      <point x="504" y="251"/>
      <point x="411" y="351"/>
      <point x="292" y="390" type="curve"/>
      <point x="259" y="311" type="line"/>
      <point x="348" y="272"/>
      <point x="420" y="191"/>
    </contour>
  </outline>
</glyph>
<glyph name="eeGlottal.eth" format="2">
  <advance width="742"/>
  <unicode hex="12A4"/>
  <note>
uni12A4
</note>
  <anchor x="389" y="713" name="top"/>
  <outline>
    <contour>
      <point x="465" y="0" type="line"/>
      <point x="539" y="0" type="line" smooth="yes"/>
      <point x="664" y="0"/>
      <point x="724" y="57"/>
      <point x="724" y="140" type="curve" smooth="yes"/>
      <point x="724" y="219"/>
      <point x="675" y="264"/>
      <point x="576" y="264" type="curve" smooth="yes"/>
      <point x="405" y="264" type="line"/>
    </contour>
    <contour>
      <point x="496" y="66" type="line"/>
      <point x="466" y="196" type="line"/>
      <point x="560" y="196" type="line" smooth="yes"/>
      <point x="613" y="196"/>
      <point x="635" y="174"/>
      <point x="635" y="137" type="curve" smooth="yes"/>
      <point x="635" y="96"/>
      <point x="612" y="66"/>
      <point x="542" y="66" type="curve" smooth="yes"/>
    </contour>
    <component base="aGlottal.eth"/>
  </outline>
</glyph>
<glyph name="eGlottal.eth" format="2">
  <advance width="553"/>
  <unicode hex="12A5"/>
  <note>
uni12A5
</note>
  <anchor x="291" y="714" name="top"/>
  <outline>
    <contour>
      <point x="55" y="0" type="line"/>
      <point x="156" y="0" type="line"/>
      <point x="278" y="305" type="line"/>
      <point x="358" y="264"/>
      <point x="426" y="184"/>
      <point x="437" y="0" type="curve"/>
      <point x="528" y="0" type="line"/>
      <point x="508" y="242"/>
      <point x="423" y="345"/>
      <point x="311" y="385" type="curve"/>
      <point x="354" y="492" type="line"/>
      <point x="255" y="492" type="line"/>
      <point x="300" y="596" type="line"/>
      <point x="262" y="596" type="line" smooth="yes"/>
      <point x="199" y="596"/>
      <point x="158" y="605"/>
      <point x="158" y="697" type="curve" smooth="yes"/>
      <point x="158" y="714" type="line"/>
      <point x="67" y="714" type="line"/>
      <point x="67" y="694" type="line" smooth="yes"/>
      <point x="67" y="588"/>
      <point x="106" y="545"/>
      <point x="175" y="530" type="curve"/>
      <point x="128" y="420" type="line"/>
      <point x="228" y="420" type="line"/>
    </contour>
  </outline>
</glyph>
<glyph name="oGlottal.eth" format="2">
  <advance width="532"/>
  <unicode hex="12A6"/>
  <note>
uni12A6
</note>
  <anchor x="281" y="713" name="top"/>
  <outline>
    <contour>
      <point x="55" y="0" type="line"/>
      <point x="156" y="0" type="line"/>
      <point x="371" y="536" type="line"/>
      <point x="254" y="536" type="line" smooth="yes"/>
      <point x="185" y="536"/>
      <point x="152" y="558"/>
      <point x="152" y="645" type="curve" smooth="yes"/>
      <point x="152" y="713" type="line"/>
      <point x="61" y="713" type="line"/>
      <point x="61" y="637" type="line" smooth="yes"/>
      <point x="61" y="517"/>
      <point x="122" y="461"/>
      <point x="243" y="457" type="curve"/>
    </contour>
    <contour>
      <point x="414" y="138" type="curve"/>
      <point x="507" y="138" type="line"/>
      <point x="470" y="290"/>
      <point x="392" y="359"/>
      <point x="298" y="390" type="curve"/>
      <point x="265" y="311" type="line"/>
      <point x="329" y="283"/>
      <point x="384" y="234"/>
    </contour>
  </outline>
</glyph>
<glyph name="waGlottal.eth" format="2">
  <advance width="620"/>
  <unicode hex="12A7"/>
  <note>
uni12A7
</note>
  <anchor x="305" y="795" name="top"/>
  <outline>
    <contour>
      <point x="122" y="0" type="line"/>
      <point x="222" y="0" type="line"/>
      <point x="346" y="306" type="line"/>
      <point x="425" y="262"/>
      <point x="492" y="187"/>
      <point x="504" y="0" type="curve"/>
      <point x="595" y="0" type="line"/>
      <point x="574" y="246"/>
      <point x="488" y="343"/>
      <point x="378" y="386" type="curve"/>
      <point x="431" y="516" type="line"/>
      <point x="316" y="516" type="line"/>
      <point x="316" y="687" type="line"/>
      <point x="225" y="687" type="line"/>
      <point x="225" y="450" type="line"/>
      <point x="307" y="450" type="line"/>
    </contour>
    <component base="bone" yOffset="-59"/>
  </outline>
</glyph>
<glyph name="ka.eth" format="2">
  <advance width="648"/>
  <unicode hex="12A8"/>
  <note>
uni12A8
</note>
  <anchor x="304" y="760" name="top"/>
  <outline>
    <contour>
      <point x="159" y="493" type="curve"/>
      <point x="202" y="560" type="line"/>
      <point x="165" y="572"/>
      <point x="141" y="607"/>
      <point x="141" y="662" type="curve" smooth="yes"/>
      <point x="141" y="760" type="line"/>
      <point x="50" y="760" type="line"/>
      <point x="50" y="659" type="line" smooth="yes"/>
      <point x="50" y="559"/>
      <point x="89" y="517"/>
    </contour>
    <component base="shortnarch" xOffset="30"/>
  </outline>
</glyph>
<glyph name="kaa.eth" format="2">
	<advance width="639"/>
	<unicode hex="12AB"/>
	<anchor x="299" y="760" name="top"/>
	<note>
		uni12AB
	</note>
	<outline>
		<contour>
			<point x="159" y="493" type="curve"/>
			<point x="202" y="560" type="line"/>
			<point x="165" y="572"/>
			<point x="141" y="607"/>
			<point x="141" y="662" type="curve" smooth="yes"/>
			<point x="141" y="760" type="line"/>
			<point x="50" y="760" type="line"/>
			<point x="50" y="659" type="line" smooth="yes"/>
			<point x="50" y="559"/>
			<point x="89" y="517"/>
		</contour>
		<component base="baashort" xOffset="31"/>
	</outline>
</glyph>
<glyph name="ko.eth" format="2">
  <advance width="648"/>
  <unicode hex="12AE"/>
  <note>
uni12AE
</note>
  <anchor x="309" y="760" name="top"/>
  <outline>
    <contour>
      <point x="159" y="493" type="curve"/>
      <point x="202" y="560" type="line"/>
      <point x="165" y="572"/>
      <point x="141" y="607"/>
      <point x="141" y="662" type="curve" smooth="yes"/>
      <point x="141" y="760" type="line"/>
      <point x="50" y="760" type="line"/>
      <point x="50" y="659" type="line" smooth="yes"/>
      <point x="50" y="559"/>
      <point x="89" y="517"/>
    </contour>
    <component base="baashort" xScale="-1" xOffset="648"/>
  </outline>
</glyph>
<glyph name="kwi.eth" format="2">
  <advance width="901"/>
  <unicode hex="12B2"/>
  <note>
uni12B2
</note>
  <anchor x="468" y="760" name="top"/>
  <outline>
    <contour>
      <point x="866" y="145" type="curve" smooth="yes"/>
      <point x="886" y="145" type="line"/>
      <point x="852" y="300" type="line"/>
      <point x="638" y="300" type="line"/>
      <point x="638" y="227" type="line"/>
      <point x="778" y="227" type="line"/>
      <point x="792" y="177"/>
      <point x="826" y="145"/>
    </contour>
    <contour>
      <point x="495" y="306" type="line"/>
      <point x="674" y="306" type="line"/>
      <point x="674" y="379" type="line"/>
      <point x="495" y="379" type="line"/>
    </contour>
    <contour>
      <point x="638" y="227" type="line"/>
      <point x="727" y="227" type="line"/>
      <point x="727" y="466" type="line"/>
      <point x="638" y="466" type="line"/>
    </contour>
    <component base="ka.eth"/>
  </outline>
</glyph>
<glyph name="kwaa.eth" format="2">
  <advance width="682"/>
  <unicode hex="12B3"/>
  <note>
uni12B3
</note>
  <anchor x="348" y="760" name="top"/>
  <outline>
    <contour>
      <point x="458" y="159" type="line"/>
      <point x="549" y="159" type="line"/>
      <point x="549" y="359" type="line" smooth="yes"/>
      <point x="549" y="523"/>
      <point x="485" y="613"/>
      <point x="332" y="613" type="curve" smooth="yes"/>
      <point x="181" y="613"/>
      <point x="111" y="513"/>
      <point x="111" y="361" type="curve" smooth="yes"/>
      <point x="111" y="298" type="line"/>
      <point x="202" y="298" type="line"/>
      <point x="202" y="353" type="line" smooth="yes"/>
      <point x="202" y="462"/>
      <point x="232" y="533"/>
      <point x="332" y="533" type="curve" smooth="yes"/>
      <point x="423" y="533"/>
      <point x="458" y="468"/>
      <point x="458" y="354" type="curve" smooth="yes"/>
    </contour>
    <contour>
      <point x="391" y="136" type="line"/>
      <point x="570" y="136" type="line"/>
      <point x="570" y="209" type="line"/>
      <point x="391" y="209" type="line"/>
    </contour>
    <contour>
      <point x="159" y="493" type="curve"/>
      <point x="202" y="560" type="line"/>
      <point x="165" y="572"/>
      <point x="141" y="607"/>
      <point x="141" y="662" type="curve" smooth="yes"/>
      <point x="141" y="760" type="line"/>
      <point x="50" y="760" type="line"/>
      <point x="50" y="659" type="line" smooth="yes"/>
      <point x="50" y="559"/>
      <point x="89" y="517"/>
    </contour>
    <contour>
      <point x="558" y="0" type="line"/>
      <point x="647" y="0" type="line"/>
      <point x="647" y="209" type="line"/>
      <point x="558" y="209" type="line"/>
    </contour>
    <component base="leftsingleflag" xOffset="146" yOffset="-197"/>
  </outline>
</glyph>
<glyph name="kwee.eth" format="2">
  <advance width="795"/>
  <unicode hex="12B4"/>
  <note>
uni12B4
</note>
  <anchor x="413" y="760" name="top"/>
  <outline>
    <contour>
      <point x="396" y="0" type="line"/>
      <point x="508" y="0" type="line"/>
      <point x="508" y="73" type="line"/>
      <point x="396" y="73" type="line"/>
    </contour>
    <component base="kaa.eth"/>
    <component base="baselinebowl" xOffset="418"/>
    <component base="leftsingleflag" xOffset="160" yOffset="-333"/>
  </outline>
</glyph>
<glyph name="kwe.eth" format="2">
  <advance width="891"/>
  <unicode hex="12B5"/>
  <note>
uni12B5
</note>
  <anchor x="463" y="760" name="top"/>
  <outline>
    <contour>
      <point x="644" y="368" type="line"/>
      <point x="728" y="368" type="line"/>
      <point x="728" y="600" type="line"/>
      <point x="644" y="600" type="line"/>
    </contour>
    <contour>
      <point x="496" y="368" type="line"/>
      <point x="675" y="368" type="line"/>
      <point x="675" y="441" type="line"/>
      <point x="496" y="441" type="line"/>
    </contour>
    <component base="ka.eth"/>
    <component base="rightsingleflag" xOffset="598" yOffset="35"/>
  </outline>
</glyph>
<glyph name="kxa.eth" format="2">
  <advance width="823"/>
  <unicode hex="12B8"/>
  <note>
uni12B8
</note>
  <anchor x="374" y="854" name="top"/>
  <outline>
    <contour>
      <point x="295" y="0" type="line"/>
      <point x="386" y="0" type="line"/>
      <point x="386" y="297" type="line" smooth="yes"/>
      <point x="386" y="406"/>
      <point x="416" y="477"/>
      <point x="516" y="477" type="curve" smooth="yes"/>
      <point x="607" y="477"/>
      <point x="642" y="412"/>
      <point x="642" y="298" type="curve" smooth="yes"/>
      <point x="642" y="0" type="line"/>
      <point x="733" y="0" type="line"/>
      <point x="733" y="303" type="line" smooth="yes"/>
      <point x="733" y="467"/>
      <point x="669" y="557"/>
      <point x="516" y="557" type="curve" smooth="yes"/>
      <point x="365" y="557"/>
      <point x="295" y="457"/>
      <point x="295" y="305" type="curve" smooth="yes"/>
    </contour>
    <contour>
      <point x="334" y="437" type="curve"/>
      <point x="377" y="504" type="line"/>
      <point x="340" y="516"/>
      <point x="316" y="551"/>
      <point x="316" y="606" type="curve" smooth="yes"/>
      <point x="316" y="724" type="line"/>
      <point x="225" y="724" type="line"/>
      <point x="225" y="603" type="line" smooth="yes"/>
      <point x="225" y="503"/>
      <point x="264" y="461"/>
    </contour>
    <component base="bone"/>
  </outline>
</glyph>
<glyph name="kxaa.eth" format="2">
  <advance width="819"/>
  <unicode hex="12BB"/>
  <note>
uni12BB
</note>
  <anchor x="372" y="854" name="top"/>
  <outline>
    <contour>
      <point x="638" y="0" type="line"/>
      <point x="729" y="0" type="line"/>
      <point x="729" y="303" type="line" smooth="yes"/>
      <point x="729" y="467"/>
      <point x="665" y="557"/>
      <point x="512" y="557" type="curve" smooth="yes"/>
      <point x="361" y="557"/>
      <point x="291" y="457"/>
      <point x="291" y="305" type="curve" smooth="yes"/>
      <point x="291" y="258" type="line"/>
      <point x="382" y="258" type="line"/>
      <point x="382" y="297" type="line" smooth="yes"/>
      <point x="382" y="406"/>
      <point x="412" y="477"/>
      <point x="512" y="477" type="curve" smooth="yes"/>
      <point x="603" y="477"/>
      <point x="638" y="412"/>
      <point x="638" y="298" type="curve" smooth="yes"/>
    </contour>
    <contour>
      <point x="330" y="437" type="curve"/>
      <point x="373" y="504" type="line"/>
      <point x="336" y="516"/>
      <point x="312" y="551"/>
      <point x="312" y="606" type="curve" smooth="yes"/>
      <point x="312" y="704" type="line"/>
      <point x="221" y="704" type="line"/>
      <point x="221" y="603" type="line" smooth="yes"/>
      <point x="221" y="503"/>
      <point x="260" y="461"/>
    </contour>
    <component base="bone"/>
  </outline>
</glyph>
<glyph name="kxe.eth" format="2">
  <advance width="822"/>
  <unicode hex="12BD"/>
  <note>
uni12BD
</note>
  <anchor x="373" y="854" name="top"/>
  <outline>
    <contour>
      <point x="641" y="0" type="line"/>
      <point x="732" y="0" type="line"/>
      <point x="732" y="299" type="line" smooth="yes"/>
      <point x="732" y="463"/>
      <point x="668" y="553"/>
      <point x="515" y="553" type="curve" smooth="yes"/>
      <point x="364" y="553"/>
      <point x="294" y="453"/>
      <point x="294" y="301" type="curve" smooth="yes"/>
      <point x="294" y="279" type="line"/>
      <point x="385" y="279" type="line"/>
      <point x="385" y="293" type="line" smooth="yes"/>
      <point x="385" y="402"/>
      <point x="415" y="473"/>
      <point x="515" y="473" type="curve" smooth="yes"/>
      <point x="606" y="473"/>
      <point x="641" y="408"/>
      <point x="641" y="294" type="curve" smooth="yes"/>
    </contour>
    <contour>
      <point x="294" y="0" type="line"/>
      <point x="385" y="0" type="line"/>
      <point x="385" y="122" type="line" smooth="yes"/>
      <point x="385" y="187"/>
      <point x="401" y="224"/>
      <point x="488" y="224" type="curve"/>
      <point x="488" y="304" type="line"/>
      <point x="350" y="304"/>
      <point x="294" y="236"/>
      <point x="294" y="129" type="curve" smooth="yes"/>
    </contour>
    <contour>
      <point x="333" y="433" type="curve"/>
      <point x="376" y="500" type="line"/>
      <point x="339" y="512"/>
      <point x="315" y="547"/>
      <point x="315" y="602" type="curve" smooth="yes"/>
      <point x="315" y="710" type="line"/>
      <point x="224" y="710" type="line"/>
      <point x="224" y="599" type="line" smooth="yes"/>
      <point x="224" y="499"/>
      <point x="263" y="457"/>
    </contour>
    <component base="bone"/>
  </outline>
</glyph>
<glyph name="kxo.eth" format="2">
  <advance width="819"/>
  <unicode hex="12BE"/>
  <note>
uni12BE
</note>
  <anchor x="377" y="854" name="top"/>
  <outline>
    <contour>
      <point x="301" y="0" type="line"/>
      <point x="392" y="0" type="line"/>
      <point x="392" y="304" type="line" smooth="yes"/>
      <point x="392" y="418"/>
      <point x="427" y="483"/>
      <point x="518" y="483" type="curve" smooth="yes"/>
      <point x="618" y="483"/>
      <point x="648" y="412"/>
      <point x="648" y="303" type="curve" smooth="yes"/>
      <point x="648" y="190" type="line"/>
      <point x="739" y="190" type="line"/>
      <point x="739" y="311" type="line" smooth="yes"/>
      <point x="739" y="463"/>
      <point x="669" y="563"/>
      <point x="518" y="563" type="curve" smooth="yes"/>
      <point x="365" y="563"/>
      <point x="301" y="473"/>
      <point x="301" y="309" type="curve" smooth="yes"/>
    </contour>
    <contour>
      <point x="330" y="443" type="curve"/>
      <point x="373" y="510" type="line"/>
      <point x="336" y="522"/>
      <point x="312" y="557"/>
      <point x="312" y="612" type="curve" smooth="yes"/>
      <point x="312" y="760" type="line"/>
      <point x="221" y="760" type="line"/>
      <point x="221" y="609" type="line" smooth="yes"/>
      <point x="221" y="509"/>
      <point x="260" y="467"/>
    </contour>
    <component base="bone"/>
  </outline>
</glyph>
<glyph name="kxwi.eth" format="2">
  <advance width="1068"/>
  <unicode hex="12C2"/>
  <note>
uni12C2
</note>
  <anchor x="534" y="854" name="top"/>
  <outline>
    <contour>
      <point x="1033" y="141" type="curve" smooth="yes"/>
      <point x="1053" y="141" type="line"/>
      <point x="1019" y="296" type="line"/>
      <point x="815" y="296" type="line"/>
      <point x="815" y="223" type="line"/>
      <point x="945" y="223" type="line"/>
      <point x="959" y="173"/>
      <point x="993" y="141"/>
    </contour>
    <contour>
      <point x="672" y="302" type="line"/>
      <point x="851" y="302" type="line"/>
      <point x="851" y="375" type="line"/>
      <point x="672" y="375" type="line"/>
    </contour>
    <contour>
      <point x="815" y="223" type="line"/>
      <point x="904" y="223" type="line"/>
      <point x="904" y="462" type="line"/>
      <point x="815" y="462" type="line"/>
    </contour>
    <component base="kxa.eth"/>
  </outline>
</glyph>
<glyph name="kxwaa.eth" format="2">
	<advance width="858"/>
	<unicode hex="12C3"/>
	<anchor x="429" y="855" name="top"/>
	<note>
		uni12C3
	</note>
	<outline>
		<contour>
			<point x="625" y="0" type="line"/>
			<point x="716" y="0" type="line"/>
			<point x="716" y="303" type="line" smooth="yes"/>
			<point x="716" y="467"/>
			<point x="652" y="557"/>
			<point x="499" y="557" type="curve" smooth="yes"/>
			<point x="348" y="557"/>
			<point x="278" y="457"/>
			<point x="278" y="305" type="curve" smooth="yes"/>
			<point x="278" y="258" type="line"/>
			<point x="369" y="258" type="line"/>
			<point x="369" y="297" type="line" smooth="yes"/>
			<point x="369" y="406"/>
			<point x="399" y="477"/>
			<point x="499" y="477" type="curve" smooth="yes"/>
			<point x="590" y="477"/>
			<point x="625" y="412"/>
			<point x="625" y="298" type="curve" smooth="yes"/>
		</contour>
		<contour>
			<point x="317" y="437" type="curve"/>
			<point x="360" y="504" type="line"/>
			<point x="323" y="516"/>
			<point x="299" y="551"/>
			<point x="299" y="606" type="curve" smooth="yes"/>
			<point x="299" y="704" type="line"/>
			<point x="208" y="704" type="line"/>
			<point x="208" y="603" type="line" smooth="yes"/>
			<point x="208" y="503"/>
			<point x="247" y="461"/>
		</contour>
		<component base="footright" xOffset="332"/>
		<component base="footshort" xScale="-1" yScale="-1" xOffset="501" yOffset="773"/>
	</outline>
</glyph>
<glyph name="kxwee.eth" format="2">
  <advance width="975"/>
  <unicode hex="12C4"/>
  <note>
uni12C4
</note>
  <anchor x="486" y="854" name="top"/>
  <outline>
    <contour>
      <point x="610" y="0" type="line"/>
      <point x="722" y="0" type="line"/>
      <point x="722" y="73" type="line"/>
      <point x="610" y="73" type="line"/>
    </contour>
    <component base="baselinebowl" xOffset="598"/>
    <component base="leftsingleflag" xOffset="366" yOffset="-333"/>
    <component base="kxaa.eth"/>
  </outline>
</glyph>
<glyph name="kxwe.eth" format="2">
  <advance width="1025"/>
  <unicode hex="12C5"/>
  <note>
uni12C5
</note>
  <anchor x="512" y="854" name="top"/>
  <outline>
    <contour>
      <point x="790" y="342" type="line"/>
      <point x="874" y="342" type="line"/>
      <point x="874" y="564" type="line"/>
      <point x="790" y="564" type="line"/>
    </contour>
    <contour>
      <point x="662" y="342" type="line"/>
      <point x="821" y="342" type="line"/>
      <point x="821" y="415" type="line"/>
      <point x="662" y="415" type="line"/>
    </contour>
    <component base="kxa.eth"/>
    <component base="rightsingleflag" xOffset="732" yOffset="9"/>
  </outline>
</glyph>
<glyph name="wa.eth" format="2">
  <advance width="757"/>
  <unicode hex="12C8"/>
  <note>
uni12C8
</note>
  <anchor x="378" y="714" name="top"/>
  <outline>
    <contour>
      <point x="259" y="-10" type="curve" smooth="yes"/>
      <point x="330" y="-10"/>
      <point x="381" y="23"/>
      <point x="421" y="73" type="curve"/>
      <point x="488" y="73" type="line" smooth="yes"/>
      <point x="621" y="73"/>
      <point x="687" y="188"/>
      <point x="687" y="397" type="curve" smooth="yes"/>
      <point x="687" y="608"/>
      <point x="625" y="714"/>
      <point x="488" y="714" type="curve" smooth="yes"/>
      <point x="329" y="714" type="line" smooth="yes"/>
      <point x="161" y="714"/>
      <point x="70" y="551"/>
      <point x="70" y="312" type="curve" smooth="yes"/>
      <point x="70" y="103"/>
      <point x="125" y="-10"/>
    </contour>
    <contour>
      <point x="263" y="63" type="curve" smooth="yes"/>
      <point x="199" y="63"/>
      <point x="159" y="139"/>
      <point x="159" y="315" type="curve" smooth="yes"/>
      <point x="159" y="535"/>
      <point x="223" y="644"/>
      <point x="337" y="644" type="curve" smooth="yes"/>
      <point x="351" y="644" type="line"/>
      <point x="351" y="113" type="line"/>
      <point x="327" y="78"/>
      <point x="300" y="63"/>
    </contour>
    <contour>
      <point x="442" y="145" type="line"/>
      <point x="442" y="644" type="line"/>
      <point x="480" y="644" type="line" smooth="yes"/>
      <point x="568" y="644"/>
      <point x="599" y="542"/>
      <point x="599" y="398" type="curve" smooth="yes"/>
      <point x="599" y="242"/>
      <point x="571" y="145"/>
      <point x="475" y="145" type="curve" smooth="yes"/>
    </contour>
  </outline>
</glyph>
<glyph name="waa.eth" format="2">
  <advance width="680"/>
  <unicode hex="12CB"/>
  <note>
uni12CB
</note>
  <anchor x="347" y="714" name="top"/>
  <outline>
    <contour>
      <point x="223" y="280" type="curve" smooth="yes"/>
      <point x="296" y="280"/>
      <point x="352" y="308"/>
      <point x="394" y="363" type="curve"/>
      <point x="469" y="363" type="line" smooth="yes"/>
      <point x="600" y="363"/>
      <point x="656" y="442"/>
      <point x="656" y="548" type="curve" smooth="yes"/>
      <point x="656" y="647"/>
      <point x="593" y="714"/>
      <point x="475" y="714" type="curve" smooth="yes"/>
      <point x="282" y="714" type="line" smooth="yes"/>
      <point x="127" y="714"/>
      <point x="38" y="623"/>
      <point x="38" y="476" type="curve" smooth="yes"/>
      <point x="38" y="350"/>
      <point x="109" y="280"/>
    </contour>
    <contour>
      <point x="319" y="0" type="line"/>
      <point x="410" y="0" type="line"/>
      <point x="410" y="374" type="line"/>
      <point x="319" y="374" type="line"/>
    </contour>
    <contour>
      <point x="228" y="351" type="curve" smooth="yes"/>
      <point x="167" y="351"/>
      <point x="127" y="394"/>
      <point x="127" y="476" type="curve" smooth="yes"/>
      <point x="127" y="586"/>
      <point x="190" y="648"/>
      <point x="291" y="648" type="curve" smooth="yes"/>
      <point x="319" y="648" type="line"/>
      <point x="319" y="383" type="line"/>
      <point x="298" y="364"/>
      <point x="271" y="351"/>
    </contour>
    <contour>
      <point x="410" y="429" type="line"/>
      <point x="410" y="648" type="line"/>
      <point x="473" y="648" type="line" smooth="yes"/>
      <point x="546" y="648"/>
      <point x="567" y="592"/>
      <point x="567" y="543" type="curve" smooth="yes"/>
      <point x="567" y="487"/>
      <point x="544" y="429"/>
      <point x="464" y="429" type="curve" smooth="yes"/>
    </contour>
  </outline>
</glyph>
<glyph name="aPhr.eth" format="2">
  <advance width="598"/>
  <unicode hex="12D0"/>
  <note>
uni12D0
</note>
  <anchor x="299" y="723" name="top"/>
  <outline>
    <contour>
      <point x="296" y="-10" type="curve" smooth="yes"/>
      <point x="463" y="-10"/>
      <point x="528" y="104"/>
      <point x="528" y="252" type="curve" smooth="yes"/>
      <point x="528" y="461" type="line" smooth="yes"/>
      <point x="528" y="609"/>
      <point x="463" y="723"/>
      <point x="296" y="723" type="curve" smooth="yes"/>
      <point x="139" y="723"/>
      <point x="70" y="618"/>
      <point x="70" y="459" type="curve" smooth="yes"/>
      <point x="70" y="254" type="line" smooth="yes"/>
      <point x="70" y="95"/>
      <point x="139" y="-10"/>
    </contour>
    <contour>
      <point x="301" y="70" type="curve" smooth="yes"/>
      <point x="197" y="70"/>
      <point x="161" y="135"/>
      <point x="161" y="249" type="curve" smooth="yes"/>
      <point x="161" y="464" type="line" smooth="yes"/>
      <point x="161" y="578"/>
      <point x="197" y="643"/>
      <point x="301" y="643" type="curve" smooth="yes"/>
      <point x="407" y="643"/>
      <point x="437" y="569"/>
      <point x="437" y="463" type="curve" smooth="yes"/>
      <point x="437" y="250" type="line" smooth="yes"/>
      <point x="437" y="144"/>
      <point x="407" y="70"/>
    </contour>
  </outline>
</glyph>
<glyph name="aaPhr.eth" format="2">
  <advance width="559"/>
  <unicode hex="12D3"/>
  <note>
uni12D3
</note>
  <anchor x="283" y="724" name="top"/>
  <outline>
    <contour>
      <point x="282" y="0" type="line"/>
      <point x="382" y="0" type="line"/>
      <point x="529" y="363" type="line"/>
      <point x="392" y="363" type="line"/>
      <point x="401" y="382"/>
      <point x="406" y="411"/>
      <point x="406" y="446" type="curve" smooth="yes"/>
      <point x="406" y="560" type="line" smooth="yes"/>
      <point x="406" y="663"/>
      <point x="340" y="724"/>
      <point x="221" y="724" type="curve" smooth="yes"/>
      <point x="101" y="724"/>
      <point x="38" y="663"/>
      <point x="38" y="560" type="curve" smooth="yes"/>
      <point x="38" y="446" type="line" smooth="yes"/>
      <point x="38" y="340"/>
      <point x="105" y="281"/>
      <point x="222" y="281" type="curve" smooth="yes"/>
      <point x="259" y="281"/>
      <point x="291" y="286"/>
      <point x="318" y="297" type="curve"/>
      <point x="404" y="297" type="line"/>
    </contour>
    <contour>
      <point x="222" y="348" type="curve" smooth="yes"/>
      <point x="152" y="348"/>
      <point x="123" y="385"/>
      <point x="123" y="462" type="curve" smooth="yes"/>
      <point x="123" y="548" type="line" smooth="yes"/>
      <point x="123" y="621"/>
      <point x="153" y="657"/>
      <point x="221" y="657" type="curve" smooth="yes"/>
      <point x="293" y="657"/>
      <point x="321" y="621"/>
      <point x="321" y="548" type="curve" smooth="yes"/>
      <point x="321" y="462" type="line" smooth="yes"/>
      <point x="321" y="385"/>
      <point x="294" y="348"/>
    </contour>
  </outline>
</glyph>
<glyph name="eePhr.eth" format="2">
  <advance width="690"/>
  <unicode hex="12D4"/>
  <note>
uni12D4
</note>
  <anchor x="355" y="724" name="top"/>
  <outline>
    <contour>
      <point x="308" y="0" type="line"/>
      <point x="382" y="0" type="line"/>
      <point x="529" y="363" type="line"/>
      <point x="392" y="363" type="line"/>
      <point x="401" y="382"/>
      <point x="406" y="411"/>
      <point x="406" y="446" type="curve" smooth="yes"/>
      <point x="406" y="560" type="line" smooth="yes"/>
      <point x="406" y="663"/>
      <point x="340" y="724"/>
      <point x="221" y="724" type="curve" smooth="yes"/>
      <point x="101" y="724"/>
      <point x="38" y="663"/>
      <point x="38" y="560" type="curve" smooth="yes"/>
      <point x="38" y="446" type="line" smooth="yes"/>
      <point x="38" y="340"/>
      <point x="105" y="281"/>
      <point x="222" y="281" type="curve" smooth="yes"/>
      <point x="259" y="281"/>
      <point x="291" y="286"/>
      <point x="318" y="297" type="curve"/>
      <point x="404" y="297" type="line"/>
      <point x="308" y="64" type="line"/>
    </contour>
    <contour>
      <point x="390" y="66" type="line"/>
      <point x="444" y="196" type="line"/>
      <point x="508" y="196" type="line" smooth="yes"/>
      <point x="561" y="196"/>
      <point x="583" y="174"/>
      <point x="583" y="137" type="curve" smooth="yes"/>
      <point x="583" y="96"/>
      <point x="560" y="66"/>
      <point x="490" y="66" type="curve" smooth="yes"/>
    </contour>
    <contour>
      <point x="323" y="0" type="line"/>
      <point x="487" y="0" type="line" smooth="yes"/>
      <point x="612" y="0"/>
      <point x="672" y="57"/>
      <point x="672" y="140" type="curve" smooth="yes"/>
      <point x="672" y="219"/>
      <point x="623" y="264"/>
      <point x="524" y="264" type="curve" smooth="yes"/>
      <point x="433" y="264" type="line"/>
    </contour>
    <contour>
      <point x="222" y="348" type="curve" smooth="yes"/>
      <point x="152" y="348"/>
      <point x="123" y="385"/>
      <point x="123" y="462" type="curve" smooth="yes"/>
      <point x="123" y="548" type="line" smooth="yes"/>
      <point x="123" y="621"/>
      <point x="153" y="657"/>
      <point x="221" y="657" type="curve" smooth="yes"/>
      <point x="293" y="657"/>
      <point x="321" y="621"/>
      <point x="321" y="548" type="curve" smooth="yes"/>
      <point x="321" y="462" type="line" smooth="yes"/>
      <point x="321" y="385"/>
      <point x="294" y="348"/>
    </contour>
  </outline>
</glyph>
<glyph name="oPhr.eth" format="2">
  <advance width="517"/>
  <unicode hex="12D6"/>
  <note>
uni12D6
</note>
  <anchor x="258" y="724" name="top"/>
  <outline>
    <contour>
      <point x="40" y="0" type="curve"/>
      <point x="131" y="0" type="line"/>
      <point x="144" y="176"/>
      <point x="171" y="231"/>
      <point x="322" y="324" type="curve" smooth="yes"/>
      <point x="404" y="374"/>
      <point x="477" y="432"/>
      <point x="477" y="555" type="curve" smooth="yes"/>
      <point x="477" y="653"/>
      <point x="425" y="724"/>
      <point x="304" y="724" type="curve" smooth="yes"/>
      <point x="203" y="724"/>
      <point x="130" y="661"/>
      <point x="130" y="548" type="curve" smooth="yes"/>
      <point x="130" y="450"/>
      <point x="179" y="389"/>
      <point x="252" y="364" type="curve"/>
      <point x="98" y="280"/>
      <point x="49" y="184"/>
    </contour>
    <contour>
      <point x="321" y="412" type="curve"/>
      <point x="262" y="423"/>
      <point x="218" y="468"/>
      <point x="218" y="546" type="curve" smooth="yes"/>
      <point x="218" y="613"/>
      <point x="247" y="656"/>
      <point x="306" y="656" type="curve" smooth="yes"/>
      <point x="357" y="656"/>
      <point x="388" y="621"/>
      <point x="388" y="548" type="curve" smooth="yes"/>
      <point x="388" y="488"/>
      <point x="366" y="441"/>
    </contour>
  </outline>
</glyph>
<glyph name="za.eth" format="2">
  <advance width="549"/>
  <unicode hex="12D8"/>
  <note>
uni12D8
</note>
  <anchor x="274" y="714" name="top"/>
  <outline>
    <contour>
      <point x="90" y="0" type="line"/>
      <point x="181" y="0" type="line"/>
      <point x="181" y="333" type="line"/>
      <point x="368" y="333" type="line"/>
      <point x="368" y="0" type="line"/>
      <point x="459" y="0" type="line"/>
      <point x="459" y="714" type="line"/>
      <point x="368" y="714" type="line"/>
      <point x="368" y="412" type="line"/>
      <point x="181" y="412" type="line"/>
      <point x="181" y="714" type="line"/>
      <point x="90" y="714" type="line"/>
    </contour>
  </outline>
</glyph>
<glyph name="zaa.eth" format="2">
  <advance width="549"/>
  <unicode hex="12DB"/>
  <note>
uni12DB
</note>
  <anchor x="274" y="714" name="top"/>
  <outline>
    <contour>
      <point x="368" y="0" type="line"/>
      <point x="459" y="0" type="line"/>
      <point x="459" y="714" type="line"/>
      <point x="368" y="714" type="line"/>
      <point x="368" y="412" type="line"/>
      <point x="181" y="412" type="line"/>
      <point x="181" y="714" type="line"/>
      <point x="90" y="714" type="line"/>
      <point x="90" y="177" type="line"/>
      <point x="181" y="177" type="line"/>
      <point x="181" y="333" type="line"/>
      <point x="368" y="333" type="line"/>
    </contour>
  </outline>
</glyph>
<glyph name="ze.eth" format="2">
	<advance width="676"/>
	<unicode hex="12DD"/>
	<anchor x="300" y="714" name="top"/>
	<note>
		uni12DD
	</note>
	<outline>
		<contour>
			<point x="217" y="0" type="line"/>
			<point x="308" y="0" type="line"/>
			<point x="308" y="333" type="line"/>
			<point x="495" y="333" type="line"/>
			<point x="495" y="0" type="line"/>
			<point x="586" y="0" type="line"/>
			<point x="586" y="714" type="line"/>
			<point x="495" y="714" type="line"/>
			<point x="495" y="412" type="line"/>
			<point x="308" y="412" type="line"/>
			<point x="308" y="531" type="line" smooth="yes"/>
			<point x="308" y="660"/>
			<point x="251" y="714"/>
			<point x="135" y="714" type="curve" smooth="yes"/>
			<point x="49" y="714" type="line"/>
			<point x="15" y="559" type="line"/>
			<point x="34" y="559" type="line" smooth="yes"/>
			<point x="79" y="559"/>
			<point x="110" y="596"/>
			<point x="123" y="641" type="curve"/>
			<point x="126" y="641" type="line" smooth="yes"/>
			<point x="169" y="641"/>
			<point x="217" y="629"/>
			<point x="217" y="520" type="curve" smooth="yes"/>
		</contour>
	</outline>
</glyph>
<glyph name="zha.eth" format="2">
  <advance width="803"/>
  <unicode hex="12E0"/>
  <note>
uni12E0
</note>
  <anchor x="401" y="714" name="top"/>
  <outline>
    <contour>
      <point x="217" y="0" type="line"/>
      <point x="308" y="0" type="line"/>
      <point x="308" y="333" type="line"/>
      <point x="495" y="333" type="line"/>
      <point x="495" y="0" type="line"/>
      <point x="586" y="0" type="line"/>
      <point x="586" y="520" type="line" smooth="yes"/>
      <point x="586" y="629"/>
      <point x="634" y="641"/>
      <point x="677" y="641" type="curve" smooth="yes"/>
      <point x="680" y="641" type="line"/>
      <point x="693" y="596"/>
      <point x="724" y="559"/>
      <point x="769" y="559" type="curve" smooth="yes"/>
      <point x="788" y="559" type="line"/>
      <point x="754" y="714" type="line"/>
      <point x="668" y="714" type="line" smooth="yes"/>
      <point x="552" y="714"/>
      <point x="495" y="660"/>
      <point x="495" y="531" type="curve" smooth="yes"/>
      <point x="495" y="412" type="line"/>
      <point x="308" y="412" type="line"/>
      <point x="308" y="531" type="line" smooth="yes"/>
      <point x="308" y="660"/>
      <point x="251" y="714"/>
      <point x="135" y="714" type="curve" smooth="yes"/>
      <point x="49" y="714" type="line"/>
      <point x="15" y="559" type="line"/>
      <point x="34" y="559" type="line" smooth="yes"/>
      <point x="79" y="559"/>
      <point x="110" y="596"/>
      <point x="123" y="641" type="curve"/>
      <point x="126" y="641" type="line" smooth="yes"/>
      <point x="169" y="641"/>
      <point x="217" y="629"/>
      <point x="217" y="520" type="curve" smooth="yes"/>
    </contour>
  </outline>
</glyph>
<glyph name="zhe.eth" format="2">
  <advance width="828"/>
  <unicode hex="12E5"/>
  <note>
uni12E5
</note>
  <anchor x="414" y="855" name="top"/>
  <outline>
    <contour>
      <point x="242" y="0" type="line"/>
      <point x="333" y="0" type="line"/>
      <point x="333" y="248" type="line"/>
      <point x="520" y="248" type="line"/>
      <point x="520" y="0" type="line"/>
      <point x="611" y="0" type="line"/>
      <point x="611" y="354" type="line" smooth="yes"/>
      <point x="611" y="463"/>
      <point x="659" y="475"/>
      <point x="702" y="475" type="curve" smooth="yes"/>
      <point x="705" y="475" type="line"/>
      <point x="718" y="430"/>
      <point x="749" y="393"/>
      <point x="794" y="393" type="curve" smooth="yes"/>
      <point x="813" y="393" type="line"/>
      <point x="779" y="548" type="line"/>
      <point x="693" y="548" type="line" smooth="yes"/>
      <point x="577" y="548"/>
      <point x="520" y="494"/>
      <point x="520" y="365" type="curve" smooth="yes"/>
      <point x="520" y="327" type="line"/>
      <point x="333" y="327" type="line"/>
      <point x="333" y="365" type="line" smooth="yes"/>
      <point x="333" y="494"/>
      <point x="276" y="548"/>
      <point x="160" y="548" type="curve" smooth="yes"/>
      <point x="74" y="548" type="line"/>
      <point x="40" y="393" type="line"/>
      <point x="59" y="393" type="line" smooth="yes"/>
      <point x="104" y="393"/>
      <point x="135" y="430"/>
      <point x="148" y="475" type="curve"/>
      <point x="151" y="475" type="line" smooth="yes"/>
      <point x="194" y="475"/>
      <point x="242" y="463"/>
      <point x="242" y="354" type="curve" smooth="yes"/>
    </contour>
    <contour>
      <point x="298" y="437" type="line"/>
      <point x="298" y="726" type="line"/>
      <point x="207" y="726" type="line"/>
      <point x="207" y="499" type="line"/>
    </contour>
    <component base="footshort" xScale="-1" yScale="-1" xOffset="501" yOffset="773"/>
  </outline>
</glyph>
<glyph name="ya.eth" format="2">
  <advance width="469"/>
  <unicode hex="12E8"/>
  <note>
uni12E8
</note>
  <anchor x="239" y="724" name="top"/>
  <outline>
    <contour>
      <point x="196" y="0" type="line"/>
      <point x="287" y="0" type="line"/>
      <point x="287" y="110" type="line" smooth="yes"/>
      <point x="287" y="215"/>
      <point x="276" y="266"/>
      <point x="236" y="347" type="curve"/>
      <point x="349" y="375"/>
      <point x="429" y="444"/>
      <point x="429" y="552" type="curve" smooth="yes"/>
      <point x="429" y="655"/>
      <point x="369" y="724"/>
      <point x="245" y="724" type="curve" smooth="yes"/>
      <point x="128" y="724"/>
      <point x="50" y="664"/>
      <point x="50" y="547" type="curve" smooth="yes"/>
      <point x="50" y="468"/>
      <point x="94" y="410"/>
      <point x="135" y="346" type="curve" smooth="yes"/>
      <point x="183" y="271"/>
      <point x="196" y="197"/>
      <point x="196" y="94" type="curve" smooth="yes"/>
    </contour>
    <contour>
      <point x="201" y="408" type="curve"/>
      <point x="166" y="451"/>
      <point x="140" y="498"/>
      <point x="140" y="553" type="curve" smooth="yes"/>
      <point x="140" y="619"/>
      <point x="178" y="656"/>
      <point x="241" y="656" type="curve" smooth="yes"/>
      <point x="305" y="656"/>
      <point x="340" y="619"/>
      <point x="340" y="552" type="curve" smooth="yes"/>
      <point x="340" y="473"/>
      <point x="287" y="427"/>
    </contour>
  </outline>
</glyph>
<glyph name="yi.eth" format="2">
  <advance width="646"/>
  <unicode hex="12EA"/>
  <note>
uni12EA
</note>
  <anchor x="340" y="724" name="top"/>
  <outline>
    <contour>
      <point x="611" y="39" type="curve" smooth="yes"/>
      <point x="631" y="39" type="line"/>
      <point x="597" y="194" type="line"/>
      <point x="383" y="194" type="line"/>
      <point x="383" y="121" type="line"/>
      <point x="523" y="121" type="line"/>
      <point x="537" y="71"/>
      <point x="571" y="39"/>
    </contour>
    <contour>
      <point x="240" y="200" type="line"/>
      <point x="419" y="200" type="line"/>
      <point x="419" y="273" type="line"/>
      <point x="240" y="273" type="line"/>
    </contour>
    <contour>
      <point x="383" y="121" type="line"/>
      <point x="472" y="121" type="line"/>
      <point x="472" y="360" type="line"/>
      <point x="383" y="360" type="line"/>
    </contour>
    <component base="ya.eth"/>
  </outline>
</glyph>
<glyph name="ye.eth" format="2">
  <advance width="707"/>
  <unicode hex="12ED"/>
  <note>
uni12ED
</note>
  <anchor x="341" y="725" name="top"/>
  <outline>
    <contour>
      <point x="437" y="0" type="curve" smooth="yes"/>
      <point x="574" y="0"/>
      <point x="652" y="83"/>
      <point x="652" y="238" type="curve" smooth="yes"/>
      <point x="652" y="267" type="line"/>
      <point x="561" y="267" type="line"/>
      <point x="561" y="229" type="line" smooth="yes"/>
      <point x="561" y="140"/>
      <point x="528" y="80"/>
      <point x="438" y="80" type="curve" smooth="yes"/>
      <point x="307" y="80"/>
      <point x="218" y="209"/>
      <point x="210" y="393" type="curve"/>
      <point x="414" y="393"/>
      <point x="492" y="474"/>
      <point x="492" y="580" type="curve" smooth="yes"/>
      <point x="492" y="656"/>
      <point x="452" y="725"/>
      <point x="330" y="725" type="curve" smooth="yes"/>
      <point x="199" y="725"/>
      <point x="115" y="646"/>
      <point x="115" y="435" type="curve" smooth="yes"/>
      <point x="115" y="191"/>
      <point x="228" y="0"/>
    </contour>
    <contour>
      <point x="212" y="0" type="line"/>
      <point x="433" y="0" type="line"/>
      <point x="350" y="73" type="line"/>
      <point x="212" y="73" type="line"/>
    </contour>
    <contour>
      <point x="207" y="464" type="curve"/>
      <point x="207" y="468"/>
      <point x="207" y="473"/>
      <point x="207" y="477" type="curve" smooth="yes"/>
      <point x="207" y="587"/>
      <point x="247" y="657"/>
      <point x="325" y="657" type="curve" smooth="yes"/>
      <point x="372" y="657"/>
      <point x="403" y="631"/>
      <point x="403" y="576" type="curve" smooth="yes"/>
      <point x="403" y="497"/>
      <point x="339" y="465"/>
    </contour>
    <component base="leftsingleflag" xOffset="15" yOffset="-333"/>
  </outline>
</glyph>
<glyph name="da.eth" format="2">
  <advance width="601"/>
  <unicode hex="12F0"/>
  <note>
uni12F0
</note>
  <anchor x="300" y="725" name="top"/>
  <outline>
    <contour>
      <point x="242" y="152" type="curve"/>
      <point x="362" y="152" type="line"/>
      <point x="299" y="202"/>
      <point x="242" y="283"/>
      <point x="233" y="393" type="curve"/>
      <point x="437" y="393"/>
      <point x="515" y="474"/>
      <point x="515" y="580" type="curve" smooth="yes"/>
      <point x="515" y="656"/>
      <point x="474" y="725"/>
      <point x="354" y="725" type="curve" smooth="yes"/>
      <point x="222" y="725"/>
      <point x="138" y="638"/>
      <point x="138" y="451" type="curve" smooth="yes"/>
      <point x="138" y="326"/>
      <point x="178" y="222"/>
    </contour>
    <contour>
      <point x="230" y="464" type="curve"/>
      <point x="230" y="468"/>
      <point x="230" y="473"/>
      <point x="230" y="477" type="curve" smooth="yes"/>
      <point x="230" y="587"/>
      <point x="269" y="657"/>
      <point x="349" y="657" type="curve" smooth="yes"/>
      <point x="395" y="657"/>
      <point x="426" y="629"/>
      <point x="426" y="578" type="curve" smooth="yes"/>
      <point x="426" y="496"/>
      <point x="362" y="465"/>
    </contour>
    <component base="footmiddle" yOffset="82"/>
  </outline>
</glyph>
<glyph name="daa.eth" format="2">
  <advance width="717"/>
  <unicode hex="12F3"/>
  <note>
uni12F3
</note>
  <anchor x="326" y="725" name="top"/>
  <outline>
    <contour>
      <point x="412" y="244" type="curve"/>
      <point x="523" y="282" type="line"/>
      <point x="368" y="289"/>
      <point x="272" y="390"/>
      <point x="272" y="527" type="curve" smooth="yes"/>
      <point x="272" y="608"/>
      <point x="305" y="655"/>
      <point x="370" y="655" type="curve" smooth="yes"/>
      <point x="420" y="655"/>
      <point x="448" y="627"/>
      <point x="448" y="578" type="curve" smooth="yes"/>
      <point x="448" y="507"/>
      <point x="388" y="471"/>
      <point x="260" y="471" type="curve"/>
      <point x="289" y="402" type="line"/>
      <point x="463" y="402"/>
      <point x="537" y="483"/>
      <point x="537" y="580" type="curve" smooth="yes"/>
      <point x="537" y="647"/>
      <point x="501" y="725"/>
      <point x="374" y="725" type="curve" smooth="yes"/>
      <point x="246" y="725"/>
      <point x="180" y="646"/>
      <point x="180" y="519" type="curve" smooth="yes"/>
      <point x="180" y="371"/>
      <point x="270" y="264"/>
    </contour>
    <contour>
      <point x="546" y="0" type="line"/>
      <point x="637" y="0" type="line"/>
      <point x="637" y="285" type="line"/>
      <point x="208" y="285" type="line"/>
      <point x="208" y="212" type="line"/>
      <point x="546" y="212" type="line"/>
    </contour>
    <component base="leftsingleflag" yOffset="-121"/>
  </outline>
</glyph>
<glyph name="dee.eth" format="2">
  <advance width="725"/>
  <unicode hex="12F4"/>
  <note>
uni12F4
</note>
  <anchor x="357" y="725" name="top"/>
  <outline>
    <contour>
      <point x="176" y="142" type="line"/>
      <point x="481" y="142" type="line"/>
      <point x="560" y="214" type="line"/>
      <point x="410" y="214" type="line"/>
      <point x="337" y="248"/>
      <point x="271" y="326"/>
      <point x="255" y="401" type="curve"/>
      <point x="459" y="401"/>
      <point x="530" y="480"/>
      <point x="530" y="580" type="curve" smooth="yes"/>
      <point x="530" y="654"/>
      <point x="489" y="725"/>
      <point x="369" y="725" type="curve" smooth="yes"/>
      <point x="234" y="725"/>
      <point x="153" y="648"/>
      <point x="153" y="482" type="curve" smooth="yes"/>
      <point x="153" y="352"/>
      <point x="206" y="268"/>
      <point x="273" y="214" type="curve"/>
      <point x="176" y="214" type="line"/>
    </contour>
    <contour>
      <point x="245" y="472" type="curve"/>
      <point x="245" y="476"/>
      <point x="245" y="485"/>
      <point x="245" y="491" type="curve" smooth="yes"/>
      <point x="245" y="596"/>
      <point x="284" y="657"/>
      <point x="364" y="657" type="curve" smooth="yes"/>
      <point x="410" y="657"/>
      <point x="441" y="629"/>
      <point x="441" y="582" type="curve" smooth="yes"/>
      <point x="441" y="504"/>
      <point x="377" y="473"/>
    </contour>
    <component base="ballsmall" xOffset="387" yOffset="-212"/>
    <component base="leftsingleflag" yOffset="-191"/>
  </outline>
</glyph>
<glyph name="do.eth" format="2">
  <advance width="688"/>
  <unicode hex="12F6"/>
  <note>
uni12F6
</note>
  <anchor x="344" y="725" name="top"/>
  <outline>
    <contour>
      <point x="377" y="244" type="curve"/>
      <point x="488" y="285" type="line"/>
      <point x="333" y="292"/>
      <point x="237" y="390"/>
      <point x="237" y="527" type="curve" smooth="yes"/>
      <point x="237" y="608"/>
      <point x="270" y="655"/>
      <point x="335" y="655" type="curve" smooth="yes"/>
      <point x="385" y="655"/>
      <point x="413" y="627"/>
      <point x="413" y="578" type="curve" smooth="yes"/>
      <point x="413" y="507"/>
      <point x="353" y="471"/>
      <point x="225" y="471" type="curve"/>
      <point x="254" y="402" type="line"/>
      <point x="428" y="402"/>
      <point x="502" y="483"/>
      <point x="502" y="580" type="curve" smooth="yes"/>
      <point x="502" y="647"/>
      <point x="466" y="725"/>
      <point x="339" y="725" type="curve" smooth="yes"/>
      <point x="211" y="725"/>
      <point x="145" y="646"/>
      <point x="145" y="519" type="curve" smooth="yes"/>
      <point x="145" y="371"/>
      <point x="235" y="264"/>
    </contour>
    <contour>
      <point x="15" y="0" type="line"/>
      <point x="106" y="0" type="line"/>
      <point x="106" y="110" type="line" smooth="yes"/>
      <point x="106" y="190"/>
      <point x="133" y="212"/>
      <point x="200" y="212" type="curve" smooth="yes"/>
      <point x="502" y="212" type="line"/>
      <point x="502" y="285" type="line"/>
      <point x="185" y="285" type="line" smooth="yes"/>
      <point x="63" y="285"/>
      <point x="15" y="224"/>
      <point x="15" y="114" type="curve" smooth="yes"/>
    </contour>
    <component base="rightsingleflag" xOffset="395" yOffset="-121"/>
  </outline>
</glyph>
<glyph name="dwa.eth" format="2">
  <advance width="716"/>
  <unicode hex="12F7"/>
  <note>
uni12F7
</note>
  <anchor x="358" y="725" name="top"/>
  <outline>
    <contour>
      <point x="345" y="244" type="curve"/>
      <point x="456" y="282" type="line"/>
      <point x="305" y="288"/>
      <point x="205" y="389"/>
      <point x="205" y="524" type="curve" smooth="yes"/>
      <point x="205" y="610"/>
      <point x="238" y="655"/>
      <point x="304" y="655" type="curve" smooth="yes"/>
      <point x="352" y="655"/>
      <point x="381" y="627"/>
      <point x="381" y="578" type="curve" smooth="yes"/>
      <point x="381" y="507"/>
      <point x="321" y="471"/>
      <point x="193" y="471" type="curve"/>
      <point x="222" y="402" type="line"/>
      <point x="396" y="402"/>
      <point x="470" y="484"/>
      <point x="470" y="578" type="curve" smooth="yes"/>
      <point x="470" y="647"/>
      <point x="433" y="725"/>
      <point x="309" y="725" type="curve" smooth="yes"/>
      <point x="179" y="725"/>
      <point x="113" y="645"/>
      <point x="113" y="523" type="curve" smooth="yes"/>
      <point x="113" y="370"/>
      <point x="201" y="265"/>
    </contour>
    <contour>
      <point x="439" y="0" type="line"/>
      <point x="530" y="0" type="line"/>
      <point x="530" y="285" type="line"/>
      <point x="161" y="285" type="line"/>
      <point x="161" y="212" type="line"/>
      <point x="439" y="212" type="line"/>
    </contour>
    <component base="leftsingleflag" yOffset="-121"/>
    <component base="footright" xOffset="190"/>
  </outline>
</glyph>
<glyph name="dda.eth" format="2">
  <advance width="601"/>
  <unicode hex="12F8"/>
  <note>
uni12F8
</note>
  <anchor x="300" y="760" name="top"/>
  <outline>
    <contour>
      <point x="237" y="152" type="curve"/>
      <point x="359" y="152" type="line"/>
      <point x="306" y="191"/>
      <point x="258" y="251"/>
      <point x="241" y="315" type="curve"/>
      <point x="445" y="315"/>
      <point x="511" y="390"/>
      <point x="511" y="484" type="curve" smooth="yes"/>
      <point x="511" y="560"/>
      <point x="462" y="629"/>
      <point x="346" y="629" type="curve" smooth="yes"/>
      <point x="222" y="629"/>
      <point x="141" y="551"/>
      <point x="141" y="390" type="curve" smooth="yes"/>
      <point x="141" y="290"/>
      <point x="185" y="203"/>
    </contour>
    <contour>
      <point x="233" y="386" type="curve"/>
      <point x="233" y="390"/>
      <point x="233" y="395"/>
      <point x="233" y="399" type="curve" smooth="yes"/>
      <point x="233" y="500"/>
      <point x="270" y="561"/>
      <point x="343" y="561" type="curve" smooth="yes"/>
      <point x="388" y="561"/>
      <point x="423" y="536"/>
      <point x="423" y="485" type="curve" smooth="yes"/>
      <point x="423" y="414"/>
      <point x="372" y="387"/>
    </contour>
    <contour>
      <point x="290" y="601" type="line"/>
      <point x="381" y="601" type="line"/>
      <point x="381" y="760" type="line"/>
      <point x="290" y="760" type="line"/>
    </contour>
    <component base="footmiddle" yOffset="82"/>
  </outline>
</glyph>
<glyph name="ddaa.eth" format="2">
  <advance width="715"/>
  <unicode hex="12FB"/>
  <note>
uni12FB
</note>
  <anchor x="325" y="760" name="top"/>
  <outline>
    <contour>
      <point x="410" y="220" type="curve"/>
      <point x="521" y="258" type="line"/>
      <point x="370" y="264"/>
      <point x="270" y="335"/>
      <point x="270" y="454" type="curve" smooth="yes"/>
      <point x="270" y="528"/>
      <point x="303" y="573"/>
      <point x="369" y="573" type="curve" smooth="yes"/>
      <point x="417" y="573"/>
      <point x="444" y="546"/>
      <point x="444" y="505" type="curve" smooth="yes"/>
      <point x="444" y="440"/>
      <point x="386" y="407"/>
      <point x="258" y="407" type="curve"/>
      <point x="287" y="338" type="line"/>
      <point x="461" y="338"/>
      <point x="533" y="417"/>
      <point x="533" y="505" type="curve" smooth="yes"/>
      <point x="533" y="567"/>
      <point x="498" y="643"/>
      <point x="374" y="643" type="curve" smooth="yes"/>
      <point x="244" y="643"/>
      <point x="178" y="563"/>
      <point x="178" y="453" type="curve" smooth="yes"/>
      <point x="178" y="316"/>
      <point x="266" y="241"/>
    </contour>
    <contour>
      <point x="544" y="0" type="line"/>
      <point x="635" y="0" type="line"/>
      <point x="635" y="261" type="line"/>
      <point x="206" y="261" type="line"/>
      <point x="206" y="188" type="line"/>
      <point x="544" y="188" type="line"/>
    </contour>
    <contour>
      <point x="321" y="603" type="line"/>
      <point x="412" y="603" type="line"/>
      <point x="412" y="760" type="line"/>
      <point x="321" y="760" type="line"/>
    </contour>
    <component base="leftsingleflag" yOffset="-145"/>
  </outline>
</glyph>
<glyph name="ddee.eth" format="2">
  <advance width="695"/>
  <unicode hex="12FC"/>
  <note>
uni12FC
</note>
  <anchor x="342" y="760" name="top"/>
  <outline>
    <contour>
      <point x="249" y="211" type="curve"/>
      <point x="403" y="211" type="line"/>
      <point x="332" y="239"/>
      <point x="273" y="293"/>
      <point x="256" y="342" type="curve"/>
      <point x="460" y="342"/>
      <point x="523" y="407"/>
      <point x="523" y="507" type="curve" smooth="yes"/>
      <point x="523" y="571"/>
      <point x="482" y="642"/>
      <point x="359" y="642" type="curve" smooth="yes"/>
      <point x="221" y="642"/>
      <point x="146" y="562"/>
      <point x="146" y="426" type="curve" smooth="yes"/>
      <point x="146" y="323"/>
      <point x="198" y="252"/>
    </contour>
    <contour>
      <point x="207" y="141" type="line"/>
      <point x="460" y="141" type="line"/>
      <point x="518" y="214" type="line"/>
      <point x="207" y="214" type="line"/>
    </contour>
    <contour>
      <point x="240" y="409" type="curve"/>
      <point x="239" y="415"/>
      <point x="238" y="422"/>
      <point x="238" y="431" type="curve" smooth="yes"/>
      <point x="238" y="513"/>
      <point x="275" y="574"/>
      <point x="357" y="574" type="curve" smooth="yes"/>
      <point x="403" y="574"/>
      <point x="434" y="546"/>
      <point x="434" y="505" type="curve" smooth="yes"/>
      <point x="434" y="427"/>
      <point x="362" y="409"/>
    </contour>
    <contour>
      <point x="301" y="618" type="line"/>
      <point x="392" y="618" type="line"/>
      <point x="392" y="760" type="line"/>
      <point x="301" y="760" type="line"/>
    </contour>
    <component base="ballsmall" xOffset="357" yOffset="-212"/>
    <component base="leftsingleflag" yOffset="-192"/>
  </outline>
</glyph>
<glyph name="ddo.eth" format="2">
  <advance width="688"/>
  <unicode hex="12FE"/>
  <note>
uni12FE
</note>
  <anchor x="344" y="760" name="top"/>
  <outline>
    <contour>
      <point x="377" y="160" type="curve"/>
      <point x="488" y="201" type="line"/>
      <point x="333" y="208"/>
      <point x="237" y="306"/>
      <point x="237" y="443" type="curve" smooth="yes"/>
      <point x="237" y="524"/>
      <point x="270" y="571"/>
      <point x="335" y="571" type="curve" smooth="yes"/>
      <point x="385" y="571"/>
      <point x="413" y="543"/>
      <point x="413" y="494" type="curve" smooth="yes"/>
      <point x="413" y="423"/>
      <point x="353" y="387"/>
      <point x="225" y="387" type="curve"/>
      <point x="254" y="318" type="line"/>
      <point x="428" y="318"/>
      <point x="502" y="399"/>
      <point x="502" y="496" type="curve" smooth="yes"/>
      <point x="502" y="563"/>
      <point x="466" y="641"/>
      <point x="339" y="641" type="curve" smooth="yes"/>
      <point x="211" y="641"/>
      <point x="145" y="562"/>
      <point x="145" y="435" type="curve" smooth="yes"/>
      <point x="145" y="287"/>
      <point x="235" y="180"/>
    </contour>
    <contour>
      <point x="15" y="0" type="line"/>
      <point x="106" y="0" type="line"/>
      <point x="106" y="26" type="line" smooth="yes"/>
      <point x="106" y="106"/>
      <point x="133" y="128"/>
      <point x="200" y="128" type="curve" smooth="yes"/>
      <point x="502" y="128" type="line"/>
      <point x="502" y="201" type="line"/>
      <point x="185" y="201" type="line" smooth="yes"/>
      <point x="63" y="201"/>
      <point x="15" y="140"/>
      <point x="15" y="30" type="curve" smooth="yes"/>
    </contour>
    <contour>
      <point x="282" y="601" type="line"/>
      <point x="373" y="601" type="line"/>
      <point x="373" y="760" type="line"/>
      <point x="282" y="760" type="line"/>
    </contour>
    <component base="rightsingleflag" xOffset="395" yOffset="-205"/>
  </outline>
</glyph>
<glyph name="ddwa.eth" format="2">
  <advance width="745"/>
  <unicode hex="12FF"/>
  <note>
uni12FF
</note>
  <anchor x="372" y="760" name="top"/>
  <outline>
    <contour>
      <point x="366" y="220" type="curve"/>
      <point x="477" y="258" type="line"/>
      <point x="326" y="264"/>
      <point x="226" y="335"/>
      <point x="226" y="454" type="curve" smooth="yes"/>
      <point x="226" y="528"/>
      <point x="259" y="573"/>
      <point x="325" y="573" type="curve" smooth="yes"/>
      <point x="373" y="573"/>
      <point x="400" y="546"/>
      <point x="400" y="505" type="curve" smooth="yes"/>
      <point x="400" y="440"/>
      <point x="342" y="407"/>
      <point x="214" y="407" type="curve"/>
      <point x="243" y="338" type="line"/>
      <point x="417" y="338"/>
      <point x="489" y="417"/>
      <point x="489" y="505" type="curve" smooth="yes"/>
      <point x="489" y="567"/>
      <point x="454" y="643"/>
      <point x="330" y="643" type="curve" smooth="yes"/>
      <point x="200" y="643"/>
      <point x="134" y="563"/>
      <point x="134" y="453" type="curve" smooth="yes"/>
      <point x="134" y="316"/>
      <point x="222" y="241"/>
    </contour>
    <contour>
      <point x="479" y="0" type="line"/>
      <point x="570" y="0" type="line"/>
      <point x="570" y="261" type="line"/>
      <point x="162" y="261" type="line"/>
      <point x="162" y="188" type="line"/>
      <point x="479" y="188" type="line"/>
    </contour>
    <contour>
      <point x="277" y="603" type="line"/>
      <point x="368" y="603" type="line"/>
      <point x="368" y="760" type="line"/>
      <point x="277" y="760" type="line"/>
    </contour>
    <component base="footright" xOffset="219"/>
    <component base="leftsingleflag" yOffset="-145"/>
  </outline>
</glyph>
<glyph name="ja.eth" format="2">
  <advance width="601"/>
  <unicode hex="1300"/>
  <note>
uni1300
</note>
  <anchor x="300" y="802" name="top"/>
  <outline>
    <contour>
      <point x="211" y="150" type="curve"/>
      <point x="336" y="150" type="line"/>
      <point x="283" y="191"/>
      <point x="248" y="234"/>
      <point x="224" y="285" type="curve"/>
      <point x="428" y="285"/>
      <point x="485" y="360"/>
      <point x="485" y="454" type="curve" smooth="yes"/>
      <point x="485" y="530"/>
      <point x="436" y="599"/>
      <point x="320" y="599" type="curve" smooth="yes"/>
      <point x="196" y="599"/>
      <point x="115" y="521"/>
      <point x="115" y="380" type="curve" smooth="yes"/>
      <point x="115" y="268"/>
      <point x="164" y="195"/>
    </contour>
    <contour>
      <point x="208" y="356" type="curve"/>
      <point x="207" y="363"/>
      <point x="207" y="374"/>
      <point x="207" y="378" type="curve" smooth="yes"/>
      <point x="207" y="479"/>
      <point x="244" y="531"/>
      <point x="317" y="531" type="curve" smooth="yes"/>
      <point x="362" y="531"/>
      <point x="397" y="506"/>
      <point x="397" y="455" type="curve" smooth="yes"/>
      <point x="397" y="384"/>
      <point x="347" y="357"/>
    </contour>
    <contour>
      <point x="255" y="571" type="line"/>
      <point x="346" y="571" type="line"/>
      <point x="346" y="690" type="line"/>
      <point x="255" y="690" type="line"/>
    </contour>
    <component base="footmiddle" yOffset="82"/>
    <component base="bonemiddle" xOffset="21" yOffset="-52"/>
  </outline>
</glyph>
<glyph name="jee.eth" format="2">
  <advance width="773"/>
  <unicode hex="1304"/>
  <note>
uni1304
</note>
  <anchor x="381" y="808" name="top"/>
  <outline>
    <contour>
      <point x="415" y="187" type="curve"/>
      <point x="526" y="225" type="line"/>
      <point x="375" y="231"/>
      <point x="275" y="302"/>
      <point x="275" y="421" type="curve" smooth="yes"/>
      <point x="275" y="495"/>
      <point x="308" y="540"/>
      <point x="374" y="540" type="curve" smooth="yes"/>
      <point x="422" y="540"/>
      <point x="449" y="513"/>
      <point x="449" y="472" type="curve" smooth="yes"/>
      <point x="449" y="407"/>
      <point x="391" y="374"/>
      <point x="263" y="374" type="curve"/>
      <point x="292" y="305" type="line"/>
      <point x="466" y="305"/>
      <point x="538" y="384"/>
      <point x="538" y="472" type="curve" smooth="yes"/>
      <point x="538" y="534"/>
      <point x="503" y="610"/>
      <point x="379" y="610" type="curve" smooth="yes"/>
      <point x="249" y="610"/>
      <point x="183" y="530"/>
      <point x="183" y="420" type="curve" smooth="yes"/>
      <point x="183" y="283"/>
      <point x="271" y="208"/>
    </contour>
    <contour>
      <point x="211" y="155" type="line"/>
      <point x="549" y="155" type="line"/>
      <point x="594" y="228" type="line"/>
      <point x="211" y="228" type="line"/>
    </contour>
    <contour>
      <point x="326" y="570" type="line"/>
      <point x="417" y="570" type="line"/>
      <point x="417" y="687" type="line"/>
      <point x="326" y="687" type="line"/>
    </contour>
    <component base="ballsmall" xOffset="435" yOffset="-198"/>
    <component base="leftsingleflag" yOffset="-178"/>
    <component base="bonelong" xOffset="48" yOffset="-46"/>
  </outline>
</glyph>
<glyph name="jo.eth" format="2">
  <advance width="688"/>
  <unicode hex="1306"/>
  <note>
uni1306
</note>
  <anchor x="344" y="809" name="top"/>
  <outline>
    <contour>
      <point x="390" y="188" type="curve"/>
      <point x="501" y="226" type="line"/>
      <point x="350" y="232"/>
      <point x="250" y="303"/>
      <point x="250" y="422" type="curve" smooth="yes"/>
      <point x="250" y="496"/>
      <point x="283" y="541"/>
      <point x="349" y="541" type="curve" smooth="yes"/>
      <point x="397" y="541"/>
      <point x="424" y="514"/>
      <point x="424" y="473" type="curve" smooth="yes"/>
      <point x="424" y="408"/>
      <point x="366" y="375"/>
      <point x="238" y="375" type="curve"/>
      <point x="267" y="306" type="line"/>
      <point x="441" y="306"/>
      <point x="513" y="385"/>
      <point x="513" y="473" type="curve" smooth="yes"/>
      <point x="513" y="535"/>
      <point x="478" y="611"/>
      <point x="354" y="611" type="curve" smooth="yes"/>
      <point x="224" y="611"/>
      <point x="158" y="531"/>
      <point x="158" y="421" type="curve" smooth="yes"/>
      <point x="158" y="284"/>
      <point x="246" y="209"/>
    </contour>
    <contour>
      <point x="15" y="0" type="line"/>
      <point x="106" y="0" type="line"/>
      <point x="106" y="52" type="line" smooth="yes"/>
      <point x="106" y="132"/>
      <point x="133" y="154"/>
      <point x="200" y="154" type="curve" smooth="yes"/>
      <point x="502" y="154" type="line"/>
      <point x="502" y="227" type="line"/>
      <point x="185" y="227" type="line" smooth="yes"/>
      <point x="63" y="227"/>
      <point x="15" y="166"/>
      <point x="15" y="56" type="curve" smooth="yes"/>
    </contour>
    <contour>
      <point x="301" y="571" type="line"/>
      <point x="392" y="571" type="line"/>
      <point x="392" y="688" type="line"/>
      <point x="301" y="688" type="line"/>
    </contour>
    <component base="bonelong" xOffset="23" yOffset="-45"/>
    <component base="rightsingleflag" xOffset="395" yOffset="-179"/>
  </outline>
</glyph>
<glyph name="jwa.eth" format="2">
  <advance width="818"/>
  <unicode hex="1307"/>
  <note>
uni1307
</note>
  <anchor x="409" y="809" name="top"/>
  <outline>
    <contour>
      <point x="415" y="188" type="curve"/>
      <point x="526" y="226" type="line"/>
      <point x="375" y="232"/>
      <point x="275" y="303"/>
      <point x="275" y="422" type="curve" smooth="yes"/>
      <point x="275" y="496"/>
      <point x="308" y="541"/>
      <point x="374" y="541" type="curve" smooth="yes"/>
      <point x="422" y="541"/>
      <point x="449" y="514"/>
      <point x="449" y="473" type="curve" smooth="yes"/>
      <point x="449" y="408"/>
      <point x="391" y="375"/>
      <point x="263" y="375" type="curve"/>
      <point x="292" y="306" type="line"/>
      <point x="466" y="306"/>
      <point x="538" y="385"/>
      <point x="538" y="473" type="curve" smooth="yes"/>
      <point x="538" y="535"/>
      <point x="503" y="611"/>
      <point x="379" y="611" type="curve" smooth="yes"/>
      <point x="249" y="611"/>
      <point x="183" y="531"/>
      <point x="183" y="421" type="curve" smooth="yes"/>
      <point x="183" y="284"/>
      <point x="271" y="209"/>
    </contour>
    <contour>
      <point x="529" y="0" type="line"/>
      <point x="620" y="0" type="line"/>
      <point x="620" y="229" type="line"/>
      <point x="211" y="229" type="line"/>
      <point x="211" y="156" type="line"/>
      <point x="529" y="156" type="line"/>
    </contour>
    <contour>
      <point x="326" y="571" type="line"/>
      <point x="417" y="571" type="line"/>
      <point x="417" y="688" type="line"/>
      <point x="326" y="688" type="line"/>
    </contour>
    <component base="footright" xOffset="292"/>
    <component base="leftsingleflag" yOffset="-177"/>
    <component base="bonelong" xOffset="51" yOffset="-45"/>
  </outline>
</glyph>
<glyph name="ga.eth" format="2">
  <advance width="571"/>
  <unicode hex="1308"/>
  <note>
uni1308
</note>
  <anchor x="248" y="714" name="top"/>
  <outline>
    <contour>
      <point x="390" y="0" type="line"/>
      <point x="481" y="0" type="line"/>
      <point x="481" y="404" type="line" smooth="yes"/>
      <point x="481" y="659"/>
      <point x="360" y="714"/>
      <point x="144" y="714" type="curve" smooth="yes"/>
      <point x="49" y="714" type="line"/>
      <point x="15" y="559" type="line"/>
      <point x="34" y="559" type="line" smooth="yes"/>
      <point x="71" y="559"/>
      <point x="106" y="584"/>
      <point x="123" y="641" type="curve"/>
      <point x="142" y="641" type="line" smooth="yes"/>
      <point x="321" y="641"/>
      <point x="390" y="590"/>
      <point x="390" y="377" type="curve" smooth="yes"/>
    </contour>
  </outline>
</glyph>
<glyph name="gaa.eth" format="2">
  <advance width="585"/>
  <unicode hex="130B"/>
  <note>
uni130B
</note>
  <anchor x="255" y="714" name="top"/>
  <outline>
    <contour>
      <point x="15" y="-82" type="line"/>
      <point x="31" y="-82" type="line" smooth="yes"/>
      <point x="78" y="-82"/>
      <point x="109" y="-49"/>
      <point x="122" y="0" type="curve"/>
      <point x="253" y="0" type="line" smooth="yes"/>
      <point x="425" y="0"/>
      <point x="495" y="79"/>
      <point x="495" y="224" type="curve" smooth="yes"/>
      <point x="495" y="404" type="line" smooth="yes"/>
      <point x="495" y="659"/>
      <point x="374" y="714"/>
      <point x="158" y="714" type="curve" smooth="yes"/>
      <point x="61" y="714" type="line"/>
      <point x="27" y="559" type="line"/>
      <point x="46" y="559" type="line" smooth="yes"/>
      <point x="93" y="559"/>
      <point x="122" y="595"/>
      <point x="135" y="641" type="curve"/>
      <point x="150" y="641" type="line" smooth="yes"/>
      <point x="329" y="641"/>
      <point x="404" y="590"/>
      <point x="404" y="377" type="curve" smooth="yes"/>
      <point x="404" y="231" type="line" smooth="yes"/>
      <point x="404" y="112"/>
      <point x="370" y="73"/>
      <point x="237" y="73" type="curve" smooth="yes"/>
      <point x="49" y="73" type="line"/>
    </contour>
  </outline>
</glyph>
<glyph name="ge.eth" format="2">
  <advance width="751"/>
  <unicode hex="130D"/>
  <note>
uni130D
</note>
  <anchor x="343" y="714" name="top"/>
  <outline>
    <contour>
      <point x="570" y="0" type="line"/>
      <point x="661" y="0" type="line"/>
      <point x="661" y="404" type="line" smooth="yes"/>
      <point x="661" y="659"/>
      <point x="550" y="714"/>
      <point x="334" y="714" type="curve" smooth="yes"/>
      <point x="192" y="714" type="line"/>
      <point x="314" y="648" type="line"/>
      <point x="339" y="648" type="line" smooth="yes"/>
      <point x="514" y="648"/>
      <point x="570" y="590"/>
      <point x="570" y="377" type="curve" smooth="yes"/>
    </contour>
    <component base="ballbig" yOffset="277"/>
  </outline>
</glyph>
<glyph name="go.eth" format="2">
  <advance width="571"/>
  <unicode hex="130E"/>
  <note>
uni130E
</note>
  <anchor x="248" y="760" name="top"/>
  <outline>
    <contour>
      <point x="390" y="0" type="line"/>
      <point x="481" y="0" type="line"/>
      <point x="481" y="304" type="line" smooth="yes"/>
      <point x="481" y="559"/>
      <point x="360" y="614"/>
      <point x="144" y="614" type="curve" smooth="yes"/>
      <point x="49" y="614" type="line"/>
      <point x="15" y="459" type="line"/>
      <point x="34" y="459" type="line" smooth="yes"/>
      <point x="73" y="459"/>
      <point x="106" y="487"/>
      <point x="123" y="541" type="curve"/>
      <point x="142" y="541" type="line" smooth="yes"/>
      <point x="321" y="541"/>
      <point x="390" y="490"/>
      <point x="390" y="277" type="curve" smooth="yes"/>
    </contour>
    <contour>
      <point x="198" y="583" type="line"/>
      <point x="289" y="583" type="line"/>
      <point x="289" y="760" type="line"/>
      <point x="198" y="760" type="line"/>
    </contour>
  </outline>
</glyph>
<glyph name="goa.eth" format="2">
	<advance width="599"/>
	<unicode hex="130F"/>
	<anchor x="276" y="760" name="top"/>
	<note>
		uni130F
	</note>
	<outline>
		<contour>
			<point x="259" y="0" type="line"/>
			<point x="480" y="0" type="line"/>
			<point x="480" y="73" type="line"/>
			<point x="259" y="73" type="line"/>
		</contour>
		<component base="go.eth" xOffset="28"/>
		<component base="leftdoubleflag" xOffset="31"/>
	</outline>
</glyph>
<glyph name="gwi.eth" format="2">
  <advance width="832"/>
  <unicode hex="1312"/>
  <note>
uni1312
</note>
  <anchor x="416" y="714" name="top"/>
  <outline>
    <contour>
      <point x="797" y="243" type="curve" smooth="yes"/>
      <point x="817" y="243" type="line"/>
      <point x="783" y="398" type="line"/>
      <point x="579" y="398" type="line"/>
      <point x="579" y="325" type="line"/>
      <point x="709" y="325" type="line"/>
      <point x="723" y="275"/>
      <point x="757" y="243"/>
    </contour>
    <contour>
      <point x="436" y="404" type="line"/>
      <point x="615" y="404" type="line"/>
      <point x="615" y="477" type="line"/>
      <point x="436" y="477" type="line"/>
    </contour>
    <contour>
      <point x="579" y="325" type="line"/>
      <point x="668" y="325" type="line"/>
      <point x="668" y="564" type="line"/>
      <point x="579" y="564" type="line"/>
    </contour>
    <component base="ga.eth"/>
  </outline>
</glyph>
<glyph name="gwaa.eth" format="2">
  <advance width="571"/>
  <unicode hex="1313"/>
  <note>
uni1313
</note>
  <anchor x="248" y="714" name="top"/>
  <outline>
    <contour>
      <point x="390" y="0" type="line"/>
      <point x="481" y="0" type="line"/>
      <point x="481" y="138" type="line" smooth="yes"/>
      <point x="481" y="403"/>
      <point x="360" y="448"/>
      <point x="144" y="448" type="curve" smooth="yes"/>
      <point x="49" y="448" type="line"/>
      <point x="15" y="293" type="line"/>
      <point x="34" y="293" type="line" smooth="yes"/>
      <point x="73" y="293"/>
      <point x="108" y="322"/>
      <point x="123" y="375" type="curve"/>
      <point x="142" y="375" type="line" smooth="yes"/>
      <point x="321" y="375"/>
      <point x="390" y="324"/>
      <point x="390" y="111" type="curve" smooth="yes"/>
    </contour>
    <contour>
      <point x="250" y="397" type="line"/>
      <point x="341" y="397" type="line"/>
      <point x="341" y="474" type="line" smooth="yes"/>
      <point x="341" y="696"/>
      <point x="220" y="714"/>
      <point x="124" y="714" type="curve" smooth="yes"/>
      <point x="49" y="714" type="line"/>
      <point x="15" y="559" type="line"/>
      <point x="34" y="559" type="line" smooth="yes"/>
      <point x="75" y="559"/>
      <point x="108" y="589"/>
      <point x="123" y="641" type="curve"/>
      <point x="129" y="641" type="line" smooth="yes"/>
      <point x="208" y="641"/>
      <point x="250" y="617"/>
      <point x="250" y="447" type="curve" smooth="yes"/>
    </contour>
  </outline>
</glyph>
<glyph name="gwe.eth" format="2">
  <advance width="819"/>
  <unicode hex="1315"/>
  <note>
uni1315
</note>
  <anchor x="409" y="714" name="top"/>
  <outline>
    <contour>
      <point x="572" y="362" type="line"/>
      <point x="656" y="362" type="line"/>
      <point x="656" y="594" type="line"/>
      <point x="572" y="594" type="line"/>
    </contour>
    <contour>
      <point x="424" y="362" type="line"/>
      <point x="603" y="362" type="line"/>
      <point x="603" y="435" type="line"/>
      <point x="424" y="435" type="line"/>
    </contour>
    <component base="ga.eth"/>
    <component base="rightsingleflag" xOffset="526" yOffset="29"/>
  </outline>
</glyph>
<glyph name="gga.eth" format="2">
  <advance width="603"/>
  <unicode hex="1318"/>
  <note>
uni1318
</note>
  <anchor x="264" y="795" name="top"/>
  <outline>
    <contour>
      <point x="405" y="0" type="line"/>
      <point x="496" y="0" type="line"/>
      <point x="496" y="201" type="line" smooth="yes"/>
      <point x="496" y="456"/>
      <point x="375" y="511"/>
      <point x="159" y="511" type="curve" smooth="yes"/>
      <point x="64" y="511" type="line"/>
      <point x="30" y="356" type="line"/>
      <point x="49" y="356" type="line" smooth="yes"/>
      <point x="86" y="356"/>
      <point x="121" y="381"/>
      <point x="138" y="438" type="curve"/>
      <point x="157" y="438" type="line" smooth="yes"/>
      <point x="336" y="438"/>
      <point x="405" y="387"/>
      <point x="405" y="174" type="curve" smooth="yes"/>
    </contour>
    <contour>
      <point x="222" y="473" type="line"/>
      <point x="313" y="473" type="line"/>
      <point x="313" y="660" type="line"/>
      <point x="222" y="660" type="line"/>
    </contour>
    <component base="bone" yOffset="-59"/>
  </outline>
</glyph>
<glyph name="ggaa.eth" format="2">
  <advance width="605"/>
  <unicode hex="131B"/>
  <note>
uni131B
</note>
  <anchor x="265" y="795" name="top"/>
  <outline>
    <contour>
      <point x="35" y="-82" type="line"/>
      <point x="51" y="-82" type="line" smooth="yes"/>
      <point x="98" y="-82"/>
      <point x="129" y="-49"/>
      <point x="142" y="0" type="curve"/>
      <point x="273" y="0" type="line" smooth="yes"/>
      <point x="445" y="0"/>
      <point x="515" y="79"/>
      <point x="515" y="224" type="curve" smooth="yes"/>
      <point x="515" y="274" type="line" smooth="yes"/>
      <point x="515" y="480"/>
      <point x="394" y="526"/>
      <point x="178" y="526" type="curve" smooth="yes"/>
      <point x="81" y="526" type="line"/>
      <point x="61" y="370" type="line"/>
      <point x="80" y="370" type="line" smooth="yes"/>
      <point x="127" y="370"/>
      <point x="158" y="409"/>
      <point x="166" y="460" type="curve"/>
      <point x="181" y="460" type="line" smooth="yes"/>
      <point x="360" y="460"/>
      <point x="424" y="413"/>
      <point x="424" y="247" type="curve" smooth="yes"/>
      <point x="424" y="231" type="line" smooth="yes"/>
      <point x="424" y="112"/>
      <point x="390" y="73"/>
      <point x="257" y="73" type="curve" smooth="yes"/>
      <point x="69" y="73" type="line"/>
    </contour>
    <contour>
      <point x="229" y="473" type="line"/>
      <point x="320" y="473" type="line"/>
      <point x="320" y="660" type="line"/>
      <point x="229" y="660" type="line"/>
    </contour>
    <component base="bone" yOffset="-59"/>
  </outline>
</glyph>
<glyph name="gge.eth" format="2">
  <advance width="762"/>
  <unicode hex="131D"/>
  <note>
uni131D
</note>
  <anchor x="343" y="795" name="top"/>
  <outline>
    <contour>
      <point x="581" y="0" type="line"/>
      <point x="672" y="0" type="line"/>
      <point x="672" y="212" type="line" smooth="yes"/>
      <point x="672" y="467"/>
      <point x="561" y="522"/>
      <point x="345" y="522" type="curve" smooth="yes"/>
      <point x="203" y="522" type="line"/>
      <point x="325" y="456" type="line"/>
      <point x="350" y="456" type="line" smooth="yes"/>
      <point x="525" y="456"/>
      <point x="581" y="398"/>
      <point x="581" y="185" type="curve" smooth="yes"/>
    </contour>
    <contour>
      <point x="236" y="488" type="line"/>
      <point x="327" y="488" type="line"/>
      <point x="327" y="660" type="line"/>
      <point x="236" y="660" type="line"/>
    </contour>
    <component base="bonemiddle" yOffset="-59"/>
    <component base="ballbig" xOffset="16" yOffset="85"/>
  </outline>
</glyph>
<glyph name="ggo.eth" format="2">
  <advance width="638"/>
  <unicode hex="131E"/>
  <note>
uni131E
</note>
  <anchor x="319" y="860" name="top"/>
  <outline>
    <contour>
      <point x="469" y="0" type="line"/>
      <point x="560" y="0" type="line"/>
      <point x="560" y="171" type="line" smooth="yes"/>
      <point x="560" y="426"/>
      <point x="439" y="481"/>
      <point x="223" y="481" type="curve" smooth="yes"/>
      <point x="128" y="481" type="line"/>
      <point x="94" y="326" type="line"/>
      <point x="113" y="326" type="line" smooth="yes"/>
      <point x="152" y="326"/>
      <point x="185" y="354"/>
      <point x="202" y="408" type="curve"/>
      <point x="221" y="408" type="line" smooth="yes"/>
      <point x="400" y="408"/>
      <point x="469" y="357"/>
      <point x="469" y="144" type="curve" smooth="yes"/>
    </contour>
    <contour>
      <point x="277" y="420" type="line"/>
      <point x="368" y="420" type="line"/>
      <point x="368" y="461" type="line" smooth="yes"/>
      <point x="368" y="482"/>
      <point x="376" y="499"/>
      <point x="389" y="513" type="curve" smooth="yes"/>
      <point x="418" y="545"/>
      <point x="462" y="581"/>
      <point x="462" y="654" type="curve" smooth="yes"/>
      <point x="462" y="725"/>
      <point x="411" y="773"/>
      <point x="324" y="773" type="curve" smooth="yes"/>
      <point x="241" y="773"/>
      <point x="184" y="724"/>
      <point x="184" y="643" type="curve" smooth="yes"/>
      <point x="184" y="566"/>
      <point x="243" y="526"/>
      <point x="295" y="517" type="curve"/>
      <point x="283" y="500"/>
      <point x="277" y="480"/>
      <point x="277" y="459" type="curve" smooth="yes"/>
    </contour>
    <contour>
      <point x="338" y="574" type="curve"/>
      <point x="291" y="588"/>
      <point x="273" y="614"/>
      <point x="273" y="648" type="curve" smooth="yes"/>
      <point x="273" y="681"/>
      <point x="295" y="705"/>
      <point x="323" y="705" type="curve" smooth="yes"/>
      <point x="356" y="705"/>
      <point x="373" y="684"/>
      <point x="373" y="651" type="curve" smooth="yes"/>
      <point x="373" y="625"/>
      <point x="364" y="599"/>
    </contour>
    <component base="bonelong" yOffset="6"/>
  </outline>
</glyph>
<glyph name="thaa.eth" format="2">
  <advance width="955"/>
  <unicode hex="1323"/>
  <note>
uni1323
</note>
  <anchor x="477" y="714" name="top"/>
  <outline>
    <contour>
      <point x="774" y="0" type="line"/>
      <point x="865" y="0" type="line"/>
      <point x="865" y="461" type="line" smooth="yes"/>
      <point x="865" y="620"/>
      <point x="801" y="714"/>
      <point x="666" y="714" type="curve" smooth="yes"/>
      <point x="600" y="714"/>
      <point x="551" y="691"/>
      <point x="523" y="668" type="curve"/>
      <point x="523" y="714" type="line"/>
      <point x="414" y="714" type="line" smooth="yes"/>
      <point x="197" y="714"/>
      <point x="90" y="593"/>
      <point x="90" y="388" type="curve" smooth="yes"/>
      <point x="90" y="237" type="line"/>
      <point x="181" y="237" type="line"/>
      <point x="181" y="378" type="line" smooth="yes"/>
      <point x="181" y="541"/>
      <point x="247" y="634"/>
      <point x="412" y="634" type="curve" smooth="yes"/>
      <point x="419" y="634"/>
      <point x="425" y="634"/>
      <point x="432" y="634" type="curve"/>
      <point x="432" y="237" type="line"/>
      <point x="523" y="237" type="line"/>
      <point x="523" y="595" type="line"/>
      <point x="547" y="616"/>
      <point x="593" y="634"/>
      <point x="637" y="634" type="curve" smooth="yes"/>
      <point x="750" y="634"/>
      <point x="774" y="558"/>
      <point x="774" y="433" type="curve" smooth="yes"/>
    </contour>
  </outline>
</glyph>
<glyph name="the.eth" format="2">
  <advance width="992"/>
  <unicode hex="1325"/>
  <note>
uni1325
</note>
  <anchor x="496" y="714" name="top"/>
  <outline>
    <contour>
      <point x="493" y="0" type="line"/>
      <point x="584" y="0" type="line"/>
      <point x="584" y="439" type="line"/>
      <point x="495" y="439" type="line"/>
      <point x="495" y="581" type="line"/>
      <point x="519" y="602"/>
      <point x="570" y="634"/>
      <point x="652" y="634" type="curve" smooth="yes"/>
      <point x="770" y="634"/>
      <point x="811" y="558"/>
      <point x="811" y="433" type="curve" smooth="yes"/>
      <point x="811" y="234" type="line"/>
      <point x="902" y="234" type="line"/>
      <point x="902" y="461" type="line" smooth="yes"/>
      <point x="902" y="620"/>
      <point x="821" y="714"/>
      <point x="681" y="714" type="curve" smooth="yes"/>
      <point x="577" y="714"/>
      <point x="523" y="677"/>
      <point x="495" y="654" type="curve"/>
      <point x="495" y="714" type="line"/>
      <point x="386" y="714" type="line" smooth="yes"/>
      <point x="185" y="714"/>
      <point x="90" y="610"/>
      <point x="90" y="405" type="curve" smooth="yes"/>
      <point x="90" y="234" type="line"/>
      <point x="181" y="234" type="line"/>
      <point x="181" y="395" type="line" smooth="yes"/>
      <point x="181" y="558"/>
      <point x="235" y="634"/>
      <point x="384" y="634" type="curve" smooth="yes"/>
      <point x="391" y="634"/>
      <point x="397" y="634"/>
      <point x="404" y="634" type="curve"/>
      <point x="404" y="369" type="line"/>
      <point x="493" y="369" type="line"/>
    </contour>
  </outline>
</glyph>
<glyph name="chaa.eth" format="2">
  <advance width="1097"/>
  <unicode hex="132B"/>
  <note>
uni132B
</note>
  <anchor x="584" y="714" name="top"/>
  <outline>
    <contour>
      <point x="794" y="0" type="line"/>
      <point x="885" y="0" type="line"/>
      <point x="885" y="461" type="line" smooth="yes"/>
      <point x="885" y="620"/>
      <point x="821" y="714"/>
      <point x="681" y="714" type="curve" smooth="yes"/>
      <point x="610" y="714"/>
      <point x="561" y="691"/>
      <point x="533" y="668" type="curve"/>
      <point x="533" y="714" type="line"/>
      <point x="424" y="714" type="line" smooth="yes"/>
      <point x="197" y="714"/>
      <point x="90" y="593"/>
      <point x="90" y="388" type="curve" smooth="yes"/>
      <point x="90" y="237" type="line"/>
      <point x="181" y="237" type="line"/>
      <point x="181" y="378" type="line" smooth="yes"/>
      <point x="181" y="541"/>
      <point x="247" y="634"/>
      <point x="422" y="634" type="curve" smooth="yes"/>
      <point x="429" y="634"/>
      <point x="435" y="634"/>
      <point x="442" y="634" type="curve"/>
      <point x="442" y="237" type="line"/>
      <point x="533" y="237" type="line"/>
      <point x="533" y="595" type="line"/>
      <point x="557" y="616"/>
      <point x="603" y="634"/>
      <point x="652" y="634" type="curve" smooth="yes"/>
      <point x="770" y="634"/>
      <point x="794" y="558"/>
      <point x="794" y="433" type="curve" smooth="yes"/>
    </contour>
    <contour>
      <point x="90" y="237" type="line"/>
      <point x="190" y="237" type="line" smooth="yes"/>
      <point x="322" y="237"/>
      <point x="375" y="294"/>
      <point x="375" y="377" type="curve" smooth="yes"/>
      <point x="375" y="456"/>
      <point x="323" y="501"/>
      <point x="224" y="501" type="curve" smooth="yes"/>
      <point x="116" y="501" type="line"/>
    </contour>
    <contour>
      <point x="181" y="303" type="line"/>
      <point x="181" y="433" type="line"/>
      <point x="208" y="433" type="line" smooth="yes"/>
      <point x="270" y="433"/>
      <point x="286" y="411"/>
      <point x="286" y="374" type="curve" smooth="yes"/>
      <point x="286" y="333"/>
      <point x="259" y="303"/>
      <point x="193" y="303" type="curve" smooth="yes"/>
    </contour>
    <component base="bbowlnarrow" xOffset="402" yOffset="237"/>
    <component base="bbowlnarrow" xOffset="754"/>
  </outline>
</glyph>
<glyph name="che.eth" format="2">
  <advance width="1137"/>
  <unicode hex="132D"/>
  <note>
uni132D
</note>
  <anchor x="604" y="714" name="top"/>
  <outline>
    <contour>
      <point x="90" y="234" type="line"/>
      <point x="181" y="234" type="line"/>
      <point x="181" y="378" type="line" smooth="yes"/>
      <point x="181" y="541"/>
      <point x="247" y="634"/>
      <point x="422" y="634" type="curve" smooth="yes"/>
      <point x="429" y="634"/>
      <point x="435" y="634"/>
      <point x="442" y="634" type="curve"/>
      <point x="442" y="370" type="line"/>
      <point x="533" y="370" type="line"/>
      <point x="533" y="595" type="line"/>
      <point x="561" y="616"/>
      <point x="615" y="634"/>
      <point x="672" y="634" type="curve" smooth="yes"/>
      <point x="807" y="634"/>
      <point x="834" y="558"/>
      <point x="834" y="433" type="curve" smooth="yes"/>
      <point x="834" y="239" type="line"/>
      <point x="925" y="239" type="line"/>
      <point x="925" y="461" type="line" smooth="yes"/>
      <point x="925" y="620"/>
      <point x="855" y="714"/>
      <point x="701" y="714" type="curve" smooth="yes"/>
      <point x="620" y="714"/>
      <point x="565" y="691"/>
      <point x="533" y="668" type="curve"/>
      <point x="533" y="714" type="line"/>
      <point x="424" y="714" type="line" smooth="yes"/>
      <point x="197" y="714"/>
      <point x="90" y="593"/>
      <point x="90" y="388" type="curve" smooth="yes"/>
    </contour>
    <contour>
      <point x="90" y="235" type="line"/>
      <point x="190" y="235" type="line" smooth="yes"/>
      <point x="322" y="235"/>
      <point x="375" y="292"/>
      <point x="375" y="375" type="curve" smooth="yes"/>
      <point x="375" y="454"/>
      <point x="323" y="499"/>
      <point x="224" y="499" type="curve" smooth="yes"/>
      <point x="121" y="499" type="line"/>
    </contour>
    <contour>
      <point x="181" y="301" type="line"/>
      <point x="181" y="431" type="line"/>
      <point x="208" y="431" type="line" smooth="yes"/>
      <point x="270" y="431"/>
      <point x="286" y="409"/>
      <point x="286" y="372" type="curve" smooth="yes"/>
      <point x="286" y="331"/>
      <point x="259" y="301"/>
      <point x="193" y="301" type="curve" smooth="yes"/>
    </contour>
    <contour>
      <point x="542" y="0" type="line"/>
      <point x="633" y="0" type="line"/>
      <point x="633" y="394" type="line"/>
      <point x="542" y="394" type="line"/>
    </contour>
    <contour>
      <point x="442" y="353" type="line"/>
      <point x="633" y="353" type="line"/>
      <point x="633" y="420" type="line"/>
      <point x="442" y="420" type="line"/>
    </contour>
    <component base="bbowlnarrow" xOffset="502"/>
    <component base="bbowlnarrow" xOffset="794" yOffset="239"/>
  </outline>
</glyph>
<glyph name="cho.eth" format="2">
  <advance width="1097"/>
  <unicode hex="132E"/>
  <note>
uni132E
</note>
  <anchor x="584" y="714" name="top"/>
  <outline>
    <contour>
      <point x="90" y="0" type="line"/>
      <point x="181" y="0" type="line"/>
      <point x="181" y="378" type="line" smooth="yes"/>
      <point x="181" y="541"/>
      <point x="247" y="634"/>
      <point x="422" y="634" type="curve" smooth="yes"/>
      <point x="429" y="634"/>
      <point x="435" y="634"/>
      <point x="442" y="634" type="curve"/>
      <point x="442" y="237" type="line"/>
      <point x="533" y="237" type="line"/>
      <point x="533" y="595" type="line"/>
      <point x="557" y="616"/>
      <point x="603" y="634"/>
      <point x="652" y="634" type="curve" smooth="yes"/>
      <point x="770" y="634"/>
      <point x="794" y="558"/>
      <point x="794" y="433" type="curve" smooth="yes"/>
      <point x="794" y="237" type="line"/>
      <point x="885" y="237" type="line"/>
      <point x="885" y="461" type="line" smooth="yes"/>
      <point x="885" y="620"/>
      <point x="821" y="714"/>
      <point x="681" y="714" type="curve" smooth="yes"/>
      <point x="610" y="714"/>
      <point x="561" y="691"/>
      <point x="533" y="668" type="curve"/>
      <point x="533" y="714" type="line"/>
      <point x="424" y="714" type="line" smooth="yes"/>
      <point x="197" y="714"/>
      <point x="90" y="593"/>
      <point x="90" y="388" type="curve" smooth="yes"/>
    </contour>
    <component base="bbowlnarrow" xOffset="402" yOffset="237"/>
    <component base="bbowlnarrow" xOffset="754" yOffset="237"/>
    <component base="bbowlnarrow" xOffset="50"/>
  </outline>
</glyph>
<glyph name="pha.eth" format="2">
  <advance width="551"/>
  <unicode hex="1330"/>
  <note>
uni1330
</note>
  <anchor x="275" y="760" name="top"/>
  <outline>
    <contour>
      <point x="35" y="0" type="curve"/>
      <point x="125" y="0" type="line"/>
      <point x="125" y="144"/>
      <point x="169" y="214"/>
      <point x="311" y="308" type="curve" smooth="yes"/>
      <point x="406" y="371"/>
      <point x="453" y="426"/>
      <point x="453" y="508" type="curve" smooth="yes"/>
      <point x="453" y="595"/>
      <point x="391" y="664"/>
      <point x="276" y="664" type="curve" smooth="yes"/>
      <point x="169" y="664"/>
      <point x="96" y="597"/>
      <point x="96" y="498" type="curve" smooth="yes"/>
      <point x="96" y="402"/>
      <point x="163" y="347"/>
      <point x="253" y="320" type="curve"/>
      <point x="314" y="369" type="line"/>
      <point x="234" y="391"/>
      <point x="183" y="430"/>
      <point x="183" y="499" type="curve" smooth="yes"/>
      <point x="183" y="555"/>
      <point x="218" y="593"/>
      <point x="274" y="593" type="curve" smooth="yes"/>
      <point x="332" y="593"/>
      <point x="364" y="555"/>
      <point x="364" y="503" type="curve" smooth="yes"/>
      <point x="364" y="445"/>
      <point x="333" y="408"/>
      <point x="257" y="358" type="curve" smooth="yes"/>
      <point x="89" y="248"/>
      <point x="35" y="157"/>
    </contour>
    <contour>
      <point x="426" y="0" type="line"/>
      <point x="516" y="0" type="line"/>
      <point x="516" y="27" type="line" smooth="yes"/>
      <point x="516" y="214"/>
      <point x="430" y="281"/>
      <point x="277" y="321" type="curve"/>
      <point x="227" y="264" type="line"/>
      <point x="352" y="233"/>
      <point x="426" y="173"/>
      <point x="426" y="11" type="curve" smooth="yes"/>
    </contour>
    <contour>
      <point x="230" y="641" type="line"/>
      <point x="321" y="641" type="line"/>
      <point x="321" y="760" type="line"/>
      <point x="230" y="760" type="line"/>
    </contour>
  </outline>
</glyph>
<glyph name="phu.eth" format="2">
  <advance width="731"/>
  <unicode hex="1331"/>
  <note>
uni1331
</note>
  <anchor x="375" y="760" name="top"/>
  <outline>
    <contour>
      <point x="410" y="149" type="line"/>
      <point x="535" y="149" type="line"/>
      <point x="535" y="222" type="line"/>
      <point x="410" y="222" type="line"/>
    </contour>
    <component base="pha.eth"/>
    <component base="rightsingleflag" xOffset="438" yOffset="-184"/>
  </outline>
</glyph>
<glyph name="phaa.eth" format="2">
  <advance width="539"/>
  <unicode hex="1333"/>
  <note>
uni1333
</note>
  <anchor x="269" y="760" name="top"/>
  <outline>
    <contour>
      <point x="35" y="111" type="curve"/>
      <point x="126" y="111" type="line"/>
      <point x="148" y="188"/>
      <point x="199" y="242"/>
      <point x="299" y="308" type="curve" smooth="yes"/>
      <point x="394" y="371"/>
      <point x="441" y="426"/>
      <point x="441" y="508" type="curve" smooth="yes"/>
      <point x="441" y="595"/>
      <point x="379" y="664"/>
      <point x="264" y="664" type="curve" smooth="yes"/>
      <point x="157" y="664"/>
      <point x="84" y="597"/>
      <point x="84" y="498" type="curve" smooth="yes"/>
      <point x="84" y="402"/>
      <point x="151" y="347"/>
      <point x="241" y="320" type="curve"/>
      <point x="302" y="369" type="line"/>
      <point x="222" y="391"/>
      <point x="171" y="430"/>
      <point x="171" y="499" type="curve" smooth="yes"/>
      <point x="171" y="555"/>
      <point x="206" y="593"/>
      <point x="262" y="593" type="curve" smooth="yes"/>
      <point x="320" y="593"/>
      <point x="352" y="555"/>
      <point x="352" y="503" type="curve" smooth="yes"/>
      <point x="352" y="445"/>
      <point x="321" y="408"/>
      <point x="245" y="358" type="curve" smooth="yes"/>
      <point x="121" y="277"/>
      <point x="59" y="206"/>
    </contour>
    <contour>
      <point x="414" y="0" type="line"/>
      <point x="504" y="0" type="line"/>
      <point x="504" y="27" type="line" smooth="yes"/>
      <point x="504" y="214"/>
      <point x="418" y="281"/>
      <point x="265" y="321" type="curve"/>
      <point x="215" y="264" type="line"/>
      <point x="340" y="233"/>
      <point x="414" y="173"/>
      <point x="414" y="11" type="curve" smooth="yes"/>
    </contour>
    <contour>
      <point x="218" y="641" type="line"/>
      <point x="309" y="641" type="line"/>
      <point x="309" y="760" type="line"/>
      <point x="218" y="760" type="line"/>
    </contour>
  </outline>
</glyph>
<glyph name="phee.eth" format="2">
  <advance width="741"/>
  <unicode hex="1334"/>
  <note>
uni1334
</note>
  <anchor x="375" y="760" name="top"/>
  <outline>
    <contour>
      <point x="35" y="0" type="curve"/>
      <point x="125" y="0" type="line"/>
      <point x="125" y="144"/>
      <point x="169" y="214"/>
      <point x="311" y="308" type="curve" smooth="yes"/>
      <point x="406" y="371"/>
      <point x="453" y="426"/>
      <point x="453" y="508" type="curve" smooth="yes"/>
      <point x="453" y="595"/>
      <point x="391" y="664"/>
      <point x="276" y="664" type="curve" smooth="yes"/>
      <point x="169" y="664"/>
      <point x="96" y="597"/>
      <point x="96" y="498" type="curve" smooth="yes"/>
      <point x="96" y="402"/>
      <point x="163" y="347"/>
      <point x="253" y="320" type="curve"/>
      <point x="314" y="369" type="line"/>
      <point x="234" y="391"/>
      <point x="183" y="430"/>
      <point x="183" y="499" type="curve" smooth="yes"/>
      <point x="183" y="555"/>
      <point x="218" y="593"/>
      <point x="274" y="593" type="curve" smooth="yes"/>
      <point x="332" y="593"/>
      <point x="364" y="555"/>
      <point x="364" y="503" type="curve" smooth="yes"/>
      <point x="364" y="445"/>
      <point x="333" y="408"/>
      <point x="257" y="358" type="curve" smooth="yes"/>
      <point x="89" y="248"/>
      <point x="35" y="157"/>
    </contour>
    <contour>
      <point x="576" y="-18" type="curve" smooth="yes"/>
      <point x="677" y="-18"/>
      <point x="716" y="50"/>
      <point x="716" y="116" type="curve" smooth="yes"/>
      <point x="716" y="183"/>
      <point x="672" y="241"/>
      <point x="576" y="241" type="curve" smooth="yes"/>
      <point x="531" y="241"/>
      <point x="496" y="217"/>
      <point x="476" y="194" type="curve"/>
      <point x="442" y="248"/>
      <point x="384" y="287"/>
      <point x="311" y="310" type="curve"/>
      <point x="241" y="259" type="line"/>
      <point x="327" y="236"/>
      <point x="390" y="198"/>
      <point x="419" y="127" type="curve" smooth="yes"/>
      <point x="453" y="44"/>
      <point x="480" y="-18"/>
    </contour>
    <contour>
      <point x="578" y="48" type="curve" smooth="yes"/>
      <point x="533" y="48"/>
      <point x="516" y="82"/>
      <point x="516" y="114" type="curve" smooth="yes"/>
      <point x="516" y="142"/>
      <point x="531" y="175"/>
      <point x="578" y="175" type="curve" smooth="yes"/>
      <point x="621" y="175"/>
      <point x="638" y="142"/>
      <point x="638" y="114" type="curve" smooth="yes"/>
      <point x="638" y="82"/>
      <point x="621" y="48"/>
    </contour>
    <contour>
      <point x="230" y="641" type="line"/>
      <point x="321" y="641" type="line"/>
      <point x="321" y="760" type="line"/>
      <point x="230" y="760" type="line"/>
    </contour>
  </outline>
</glyph>
<glyph name="pho.eth" format="2">
  <advance width="542"/>
  <unicode hex="1336"/>
  <note>
uni1336
</note>
  <anchor x="271" y="760" name="top"/>
  <outline>
    <contour>
      <point x="35" y="0" type="curve"/>
      <point x="125" y="0" type="line"/>
      <point x="125" y="144"/>
      <point x="169" y="214"/>
      <point x="311" y="308" type="curve" smooth="yes"/>
      <point x="406" y="371"/>
      <point x="453" y="426"/>
      <point x="453" y="508" type="curve" smooth="yes"/>
      <point x="453" y="595"/>
      <point x="391" y="664"/>
      <point x="276" y="664" type="curve" smooth="yes"/>
      <point x="169" y="664"/>
      <point x="96" y="597"/>
      <point x="96" y="498" type="curve" smooth="yes"/>
      <point x="96" y="402"/>
      <point x="163" y="347"/>
      <point x="253" y="320" type="curve"/>
      <point x="314" y="369" type="line"/>
      <point x="234" y="391"/>
      <point x="183" y="430"/>
      <point x="183" y="499" type="curve" smooth="yes"/>
      <point x="183" y="555"/>
      <point x="218" y="593"/>
      <point x="274" y="593" type="curve" smooth="yes"/>
      <point x="332" y="593"/>
      <point x="364" y="555"/>
      <point x="364" y="503" type="curve" smooth="yes"/>
      <point x="364" y="445"/>
      <point x="333" y="408"/>
      <point x="257" y="358" type="curve" smooth="yes"/>
      <point x="89" y="248"/>
      <point x="35" y="157"/>
    </contour>
    <contour>
      <point x="410" y="122" type="curve"/>
      <point x="507" y="122" type="line"/>
      <point x="481" y="239"/>
      <point x="401" y="289"/>
      <point x="277" y="321" type="curve"/>
      <point x="227" y="264" type="line"/>
      <point x="318" y="241"/>
      <point x="382" y="203"/>
    </contour>
    <contour>
      <point x="230" y="641" type="line"/>
      <point x="321" y="641" type="line"/>
      <point x="321" y="760" type="line"/>
      <point x="230" y="760" type="line"/>
    </contour>
  </outline>
</glyph>
<glyph name="tsaa.eth" format="2">
  <advance width="541"/>
  <unicode hex="133B"/>
  <note>
uni133B
</note>
  <anchor x="270" y="724" name="top"/>
  <outline>
    <contour>
      <point x="35" y="130" type="curve"/>
      <point x="125" y="130" type="line"/>
      <point x="144" y="236"/>
      <point x="196" y="298"/>
      <point x="301" y="368" type="curve" smooth="yes"/>
      <point x="396" y="431"/>
      <point x="443" y="486"/>
      <point x="443" y="568" type="curve" smooth="yes"/>
      <point x="443" y="655"/>
      <point x="381" y="724"/>
      <point x="266" y="724" type="curve" smooth="yes"/>
      <point x="159" y="724"/>
      <point x="86" y="657"/>
      <point x="86" y="558" type="curve" smooth="yes"/>
      <point x="86" y="462"/>
      <point x="153" y="407"/>
      <point x="243" y="380" type="curve"/>
      <point x="304" y="429" type="line"/>
      <point x="224" y="451"/>
      <point x="173" y="490"/>
      <point x="173" y="559" type="curve" smooth="yes"/>
      <point x="173" y="615"/>
      <point x="208" y="653"/>
      <point x="264" y="653" type="curve" smooth="yes"/>
      <point x="322" y="653"/>
      <point x="354" y="615"/>
      <point x="354" y="563" type="curve" smooth="yes"/>
      <point x="354" y="505"/>
      <point x="323" y="468"/>
      <point x="247" y="418" type="curve" smooth="yes"/>
      <point x="119" y="334"/>
      <point x="56" y="255"/>
    </contour>
    <contour>
      <point x="416" y="0" type="line"/>
      <point x="506" y="0" type="line"/>
      <point x="506" y="47" type="line" smooth="yes"/>
      <point x="506" y="244"/>
      <point x="420" y="341"/>
      <point x="267" y="381" type="curve"/>
      <point x="217" y="324" type="line"/>
      <point x="342" y="293"/>
      <point x="416" y="223"/>
      <point x="416" y="31" type="curve" smooth="yes"/>
    </contour>
  </outline>
</glyph>
<glyph name="tsee.eth" format="2">
  <advance width="741"/>
  <unicode hex="133C"/>
  <note>
uni133C
</note>
  <anchor x="375" y="724" name="top"/>
  <outline>
    <contour>
      <point x="35" y="0" type="curve"/>
      <point x="125" y="0" type="line"/>
      <point x="125" y="194"/>
      <point x="169" y="274"/>
      <point x="311" y="368" type="curve" smooth="yes"/>
      <point x="406" y="431"/>
      <point x="453" y="486"/>
      <point x="453" y="568" type="curve" smooth="yes"/>
      <point x="453" y="655"/>
      <point x="391" y="724"/>
      <point x="276" y="724" type="curve" smooth="yes"/>
      <point x="169" y="724"/>
      <point x="96" y="657"/>
      <point x="96" y="558" type="curve" smooth="yes"/>
      <point x="96" y="462"/>
      <point x="163" y="407"/>
      <point x="253" y="380" type="curve"/>
      <point x="314" y="429" type="line"/>
      <point x="234" y="451"/>
      <point x="183" y="490"/>
      <point x="183" y="559" type="curve" smooth="yes"/>
      <point x="183" y="615"/>
      <point x="218" y="653"/>
      <point x="274" y="653" type="curve" smooth="yes"/>
      <point x="332" y="653"/>
      <point x="364" y="615"/>
      <point x="364" y="563" type="curve" smooth="yes"/>
      <point x="364" y="505"/>
      <point x="333" y="468"/>
      <point x="257" y="418" type="curve" smooth="yes"/>
      <point x="89" y="308"/>
      <point x="35" y="207"/>
    </contour>
    <contour>
      <point x="576" y="-18" type="curve" smooth="yes"/>
      <point x="677" y="-18"/>
      <point x="716" y="50"/>
      <point x="716" y="116" type="curve" smooth="yes"/>
      <point x="716" y="183"/>
      <point x="672" y="241"/>
      <point x="576" y="241" type="curve" smooth="yes"/>
      <point x="531" y="241"/>
      <point x="496" y="224"/>
      <point x="476" y="201" type="curve"/>
      <point x="449" y="290"/>
      <point x="386" y="356"/>
      <point x="295" y="379" type="curve"/>
      <point x="225" y="328" type="line"/>
      <point x="332" y="298"/>
      <point x="379" y="256"/>
      <point x="414" y="129" type="curve" smooth="yes"/>
      <point x="438" y="41"/>
      <point x="474" y="-18"/>
    </contour>
    <contour>
      <point x="578" y="48" type="curve" smooth="yes"/>
      <point x="533" y="48"/>
      <point x="516" y="82"/>
      <point x="516" y="114" type="curve" smooth="yes"/>
      <point x="516" y="142"/>
      <point x="531" y="175"/>
      <point x="578" y="175" type="curve" smooth="yes"/>
      <point x="621" y="175"/>
      <point x="638" y="142"/>
      <point x="638" y="114" type="curve" smooth="yes"/>
      <point x="638" y="82"/>
      <point x="621" y="48"/>
    </contour>
  </outline>
</glyph>
<glyph name="tso.eth" format="2">
  <advance width="545"/>
  <unicode hex="133E"/>
  <note>
uni133E
</note>
  <anchor x="272" y="724" name="top"/>
  <outline>
    <contour>
      <point x="35" y="0" type="curve"/>
      <point x="125" y="0" type="line"/>
      <point x="125" y="194"/>
      <point x="169" y="274"/>
      <point x="311" y="368" type="curve" smooth="yes"/>
      <point x="406" y="431"/>
      <point x="453" y="486"/>
      <point x="453" y="568" type="curve" smooth="yes"/>
      <point x="453" y="655"/>
      <point x="391" y="724"/>
      <point x="276" y="724" type="curve" smooth="yes"/>
      <point x="169" y="724"/>
      <point x="96" y="657"/>
      <point x="96" y="558" type="curve" smooth="yes"/>
      <point x="96" y="462"/>
      <point x="163" y="407"/>
      <point x="253" y="380" type="curve"/>
      <point x="314" y="429" type="line"/>
      <point x="234" y="451"/>
      <point x="183" y="490"/>
      <point x="183" y="559" type="curve" smooth="yes"/>
      <point x="183" y="615"/>
      <point x="218" y="653"/>
      <point x="274" y="653" type="curve" smooth="yes"/>
      <point x="332" y="653"/>
      <point x="364" y="615"/>
      <point x="364" y="563" type="curve" smooth="yes"/>
      <point x="364" y="505"/>
      <point x="333" y="468"/>
      <point x="257" y="418" type="curve" smooth="yes"/>
      <point x="89" y="308"/>
      <point x="35" y="207"/>
    </contour>
    <contour>
      <point x="417" y="133" type="curve"/>
      <point x="510" y="133" type="line"/>
      <point x="487" y="273"/>
      <point x="406" y="347"/>
      <point x="277" y="381" type="curve"/>
      <point x="227" y="324" type="line"/>
      <point x="327" y="299"/>
      <point x="394" y="250"/>
    </contour>
  </outline>
</glyph>
<glyph name="tza.eth" format="2">
  <advance width="598"/>
  <unicode hex="1340"/>
  <note>
uni1340
</note>
  <anchor x="299" y="723" name="top"/>
  <outline>
    <contour>
      <point x="131" y="325" type="line"/>
      <point x="468" y="325" type="line"/>
      <point x="468" y="394" type="line"/>
      <point x="131" y="394" type="line"/>
    </contour>
    <component base="aPhr.eth"/>
  </outline>
</glyph>
<glyph name="tzi.eth" format="2">
  <advance width="550"/>
  <unicode hex="1342"/>
  <note>
uni1342
</note>
  <anchor x="287" y="724" name="top"/>
  <outline>
    <contour>
      <point x="234" y="0" type="line"/>
      <point x="348" y="0" type="line"/>
      <point x="348" y="73" type="line"/>
      <point x="234" y="73" type="line"/>
    </contour>
    <component base="tzaa.eth"/>
    <component base="rightdoubleflag" xOffset="257"/>
  </outline>
</glyph>
<glyph name="tzaa.eth" format="2">
  <advance width="484"/>
  <unicode hex="1343"/>
  <note>
uni1343
</note>
  <anchor x="237" y="724" name="top"/>
  <outline>
    <contour>
      <point x="173" y="0" type="line"/>
      <point x="264" y="0" type="line"/>
      <point x="289" y="120" type="line" smooth="yes"/>
      <point x="305" y="198"/>
      <point x="326" y="260"/>
      <point x="355" y="312" type="curve" smooth="yes"/>
      <point x="391" y="376"/>
      <point x="434" y="446"/>
      <point x="434" y="532" type="curve" smooth="yes"/>
      <point x="434" y="639"/>
      <point x="381" y="724"/>
      <point x="243" y="724" type="curve" smooth="yes"/>
      <point x="117" y="724"/>
      <point x="40" y="649"/>
      <point x="40" y="515" type="curve" smooth="yes"/>
      <point x="40" y="380"/>
      <point x="108" y="294"/>
      <point x="244" y="280" type="curve"/>
      <point x="225" y="233"/>
      <point x="213" y="192"/>
      <point x="199" y="124" type="curve" smooth="yes"/>
    </contour>
    <contour>
      <point x="275" y="348" type="curve"/>
      <point x="185" y="353"/>
      <point x="139" y="397"/>
      <point x="131" y="483" type="curve"/>
      <point x="340" y="483" type="line"/>
      <point x="330" y="435"/>
      <point x="296" y="390"/>
    </contour>
    <contour>
      <point x="132" y="544" type="line"/>
      <point x="137" y="613"/>
      <point x="174" y="655"/>
      <point x="238" y="655" type="curve" smooth="yes"/>
      <point x="300" y="655"/>
      <point x="341" y="625"/>
      <point x="342" y="544" type="curve"/>
    </contour>
  </outline>
</glyph>
<glyph name="tzee.eth" format="2">
  <advance width="549"/>
  <unicode hex="1344"/>
  <note>
uni1344
</note>
  <anchor x="285" y="724" name="top"/>
  <outline>
    <contour>
      <point x="212" y="0" type="line"/>
      <point x="356" y="0" type="line" smooth="yes"/>
      <point x="481" y="0"/>
      <point x="531" y="57"/>
      <point x="531" y="132" type="curve" smooth="yes"/>
      <point x="531" y="219"/>
      <point x="482" y="264"/>
      <point x="383" y="264" type="curve" smooth="yes"/>
      <point x="272" y="264" type="line"/>
    </contour>
    <contour>
      <point x="272" y="66" type="line"/>
      <point x="303" y="196" type="line"/>
      <point x="367" y="196" type="line" smooth="yes"/>
      <point x="420" y="196"/>
      <point x="442" y="174"/>
      <point x="442" y="132" type="curve" smooth="yes"/>
      <point x="442" y="91"/>
      <point x="419" y="66"/>
      <point x="349" y="66" type="curve" smooth="yes"/>
    </contour>
    <component base="tzaa.eth"/>
  </outline>
</glyph>
<glyph name="tze.eth" format="2">
  <advance width="598"/>
  <unicode hex="1345"/>
  <note>
uni1345
</note>
  <anchor x="299" y="760" name="top"/>
  <outline>
    <contour>
      <point x="131" y="275" type="line"/>
      <point x="468" y="275" type="line"/>
      <point x="468" y="344" type="line"/>
      <point x="131" y="344" type="line"/>
    </contour>
    <component base="ePhr.eth"/>
  </outline>
</glyph>
<glyph name="tzo.eth" format="2">
  <advance width="517"/>
  <unicode hex="1346"/>
  <note>
uni1346
</note>
  <anchor x="258" y="724" name="top"/>
  <outline>
    <contour>
      <point x="188" y="519" type="line"/>
      <point x="424" y="519" type="line"/>
      <point x="424" y="576" type="line"/>
      <point x="188" y="576" type="line"/>
    </contour>
    <component base="oPhr.eth"/>
  </outline>
</glyph>
<glyph name="fa.eth" format="2">
  <advance width="663"/>
  <unicode hex="1348"/>
  <note>
uni1348
</note>
  <anchor x="349" y="724" name="top"/>
  <outline>
    <contour>
      <point x="224" y="0" type="curve" smooth="yes"/>
      <point x="514" y="0" type="line"/>
      <point x="539" y="73" type="line"/>
      <point x="361" y="73" type="line"/>
      <point x="380" y="95"/>
      <point x="401" y="136"/>
      <point x="401" y="181" type="curve" smooth="yes"/>
      <point x="401" y="275"/>
      <point x="358" y="326"/>
      <point x="290" y="351" type="curve"/>
      <point x="330" y="373"/>
      <point x="367" y="399"/>
      <point x="404" y="443" type="curve" smooth="yes"/>
      <point x="449" y="497"/>
      <point x="492" y="596"/>
      <point x="492" y="724" type="curve"/>
      <point x="401" y="724" type="line"/>
      <point x="401" y="606"/>
      <point x="384" y="546"/>
      <point x="330" y="480" type="curve" smooth="yes"/>
      <point x="296" y="439"/>
      <point x="252" y="412"/>
      <point x="203" y="385" type="curve" smooth="yes"/>
      <point x="116" y="337"/>
      <point x="50" y="284"/>
      <point x="50" y="170" type="curve" smooth="yes"/>
      <point x="50" y="74"/>
      <point x="102" y="0"/>
    </contour>
    <contour>
      <point x="225" y="68" type="curve" smooth="yes"/>
      <point x="175" y="68"/>
      <point x="139" y="103"/>
      <point x="139" y="173" type="curve" smooth="yes"/>
      <point x="139" y="229"/>
      <point x="166" y="273"/>
      <point x="210" y="301" type="curve"/>
      <point x="274" y="288"/>
      <point x="313" y="255"/>
      <point x="313" y="179" type="curve" smooth="yes"/>
      <point x="313" y="115"/>
      <point x="284" y="68"/>
    </contour>
    <component base="rightdoubleflag" xOffset="370"/>
  </outline>
</glyph>
<glyph name="fu.eth" format="2">
  <advance width="609"/>
  <unicode hex="1349"/>
  <note>
uni1349
</note>
  <anchor x="322" y="760" name="top"/>
  <outline>
    <contour>
      <point x="73" y="0" type="curve"/>
      <point x="167" y="0" type="line"/>
      <point x="179" y="87"/>
      <point x="202" y="147"/>
      <point x="295" y="210" type="curve" smooth="yes"/>
      <point x="368" y="260"/>
      <point x="395" y="320"/>
      <point x="395" y="387" type="curve" smooth="yes"/>
      <point x="395" y="481"/>
      <point x="357" y="526"/>
      <point x="304" y="548" type="curve"/>
      <point x="431" y="591"/>
      <point x="474" y="661"/>
      <point x="485" y="760" type="curve"/>
      <point x="394" y="760" type="line"/>
      <point x="381" y="674"/>
      <point x="342" y="621"/>
      <point x="202" y="576" type="curve" smooth="yes"/>
      <point x="101" y="543"/>
      <point x="50" y="492"/>
      <point x="50" y="377" type="curve" smooth="yes"/>
      <point x="50" y="282"/>
      <point x="97" y="229"/>
      <point x="178" y="211" type="curve"/>
      <point x="114" y="169"/>
      <point x="85" y="102"/>
    </contour>
    <contour>
      <point x="220" y="276" type="curve" smooth="yes"/>
      <point x="169" y="276"/>
      <point x="139" y="312"/>
      <point x="139" y="382" type="curve" smooth="yes"/>
      <point x="139" y="451"/>
      <point x="169" y="494"/>
      <point x="227" y="494" type="curve" smooth="yes"/>
      <point x="278" y="494"/>
      <point x="306" y="458"/>
      <point x="306" y="387" type="curve" smooth="yes"/>
      <point x="306" y="323"/>
      <point x="277" y="276"/>
    </contour>
    <contour>
      <point x="247" y="196" type="line"/>
      <point x="378" y="196" type="line"/>
      <point x="378" y="269" type="line"/>
      <point x="247" y="269" type="line"/>
    </contour>
    <component base="rightdoubleflag" xOffset="316" yOffset="196"/>
  </outline>
</glyph>
<glyph name="fi.eth" format="2">
  <advance width="646"/>
  <unicode hex="134A"/>
  <note>
uni134A
</note>
  <anchor x="340" y="724" name="top"/>
  <outline>
    <contour>
      <point x="212" y="0" type="line"/>
      <point x="393" y="0" type="line" smooth="yes"/>
      <point x="552" y="0"/>
      <point x="631" y="72"/>
      <point x="631" y="217" type="curve" smooth="yes"/>
      <point x="631" y="267" type="line"/>
      <point x="540" y="267" type="line"/>
      <point x="540" y="221" type="line" smooth="yes"/>
      <point x="540" y="109"/>
      <point x="492" y="70"/>
      <point x="390" y="70" type="curve" smooth="yes"/>
      <point x="333" y="70" type="line"/>
    </contour>
    <contour>
      <point x="487" y="724" type="curve"/>
      <point x="396" y="724" type="line"/>
      <point x="383" y="548"/>
      <point x="356" y="493"/>
      <point x="205" y="400" type="curve" smooth="yes"/>
      <point x="123" y="350"/>
      <point x="50" y="292"/>
      <point x="50" y="169" type="curve" smooth="yes"/>
      <point x="50" y="71"/>
      <point x="102" y="0"/>
      <point x="223" y="0" type="curve" smooth="yes"/>
      <point x="324" y="0"/>
      <point x="397" y="63"/>
      <point x="397" y="176" type="curve" smooth="yes"/>
      <point x="397" y="274"/>
      <point x="348" y="335"/>
      <point x="275" y="360" type="curve"/>
      <point x="429" y="444"/>
      <point x="478" y="540"/>
    </contour>
    <contour>
      <point x="206" y="312" type="curve"/>
      <point x="265" y="301"/>
      <point x="309" y="256"/>
      <point x="309" y="178" type="curve" smooth="yes"/>
      <point x="309" y="111"/>
      <point x="280" y="68"/>
      <point x="221" y="68" type="curve" smooth="yes"/>
      <point x="170" y="68"/>
      <point x="139" y="103"/>
      <point x="139" y="176" type="curve" smooth="yes"/>
      <point x="139" y="236"/>
      <point x="161" y="283"/>
    </contour>
  </outline>
</glyph>
<glyph name="faa.eth" format="2">
  <advance width="627"/>
  <unicode hex="134B"/>
  <note>
uni134B
</note>
  <anchor x="331" y="761" name="top"/>
  <outline>
    <contour>
      <point x="292" y="0" type="line"/>
      <point x="383" y="0" type="line"/>
      <point x="383" y="208" type="line"/>
      <point x="460" y="208" type="line"/>
      <point x="460" y="281" type="line"/>
      <point x="383" y="281" type="line"/>
      <point x="383" y="392" type="line" smooth="yes"/>
      <point x="383" y="479"/>
      <point x="348" y="527"/>
      <point x="299" y="546" type="curve"/>
      <point x="402" y="581"/>
      <point x="474" y="646"/>
      <point x="486" y="761" type="curve"/>
      <point x="392" y="761" type="line"/>
      <point x="381" y="660"/>
      <point x="310" y="604"/>
      <point x="207" y="576" type="curve" smooth="yes"/>
      <point x="103" y="548"/>
      <point x="50" y="488"/>
      <point x="50" y="382" type="curve" smooth="yes"/>
      <point x="50" y="278"/>
      <point x="101" y="208"/>
      <point x="219" y="208" type="curve" smooth="yes"/>
      <point x="292" y="208" type="line"/>
    </contour>
    <contour>
      <point x="236" y="281" type="line" smooth="yes"/>
      <point x="176" y="281"/>
      <point x="139" y="308"/>
      <point x="139" y="382" type="curve" smooth="yes"/>
      <point x="139" y="457"/>
      <point x="171" y="492"/>
      <point x="216" y="492" type="curve" smooth="yes"/>
      <point x="269" y="492"/>
      <point x="292" y="457"/>
      <point x="292" y="384" type="curve" smooth="yes"/>
      <point x="292" y="281" type="line"/>
    </contour>
    <component base="rightsingleflag" xOffset="334" yOffset="-125"/>
  </outline>
</glyph>
<glyph name="fee.eth" format="2">
  <advance width="738"/>
  <unicode hex="134C"/>
  <note>
uni134C
</note>
  <anchor x="381" y="724" name="top"/>
  <outline>
    <contour>
      <point x="257" y="30" type="line"/>
      <point x="534" y="30" type="line"/>
      <point x="492" y="91" type="line"/>
      <point x="311" y="91" type="line"/>
    </contour>
    <component base="ballsmall" xOffset="400" yOffset="-189"/>
    <component base="oPhr.eth" xScale="-1" yScale="-1" xOffset="527" yOffset="724"/>
  </outline>
</glyph>
<glyph name="fe.eth" format="2">
  <advance width="626"/>
  <unicode hex="134D"/>
  <note>
uni134D
</note>
  <anchor x="335" y="714" name="top"/>
  <outline>
    <contour>
      <point x="590" y="85" type="curve" smooth="yes"/>
      <point x="611" y="85" type="line"/>
      <point x="577" y="240" type="line"/>
      <point x="307" y="240" type="line" smooth="yes"/>
      <point x="193" y="240"/>
      <point x="151" y="307"/>
      <point x="151" y="405" type="curve" smooth="yes"/>
      <point x="151" y="573"/>
      <point x="242" y="641"/>
      <point x="364" y="641" type="curve" smooth="yes"/>
      <point x="503" y="641" type="line"/>
      <point x="518" y="592"/>
      <point x="549" y="559"/>
      <point x="591" y="559" type="curve" smooth="yes"/>
      <point x="611" y="559" type="line"/>
      <point x="577" y="714" type="line"/>
      <point x="376" y="714" type="line" smooth="yes"/>
      <point x="180" y="714"/>
      <point x="60" y="600"/>
      <point x="60" y="399" type="curve" smooth="yes"/>
      <point x="60" y="256"/>
      <point x="126" y="167"/>
      <point x="299" y="167" type="curve" smooth="yes"/>
      <point x="503" y="167" type="line"/>
      <point x="518" y="118"/>
      <point x="549" y="85"/>
    </contour>
    <contour>
      <point x="313" y="0" type="line"/>
      <point x="404" y="0" type="line"/>
      <point x="404" y="240" type="line" smooth="yes"/>
      <point x="404" y="422"/>
      <point x="314" y="487"/>
      <point x="153" y="492" type="curve"/>
      <point x="143" y="426" type="line"/>
      <point x="262" y="423"/>
      <point x="313" y="373"/>
      <point x="313" y="238" type="curve" smooth="yes"/>
    </contour>
  </outline>
</glyph>
<glyph name="fo.eth" format="2">
  <advance width="654"/>
  <unicode hex="134E"/>
  <note>
uni134E
</note>
  <anchor x="354" y="714" name="top"/>
  <outline>
    <contour>
      <point x="70" y="0" type="line"/>
      <point x="161" y="0" type="line"/>
      <point x="161" y="304" type="line" smooth="yes"/>
      <point x="161" y="569"/>
      <point x="233" y="641"/>
      <point x="362" y="641" type="curve"/>
      <point x="421" y="714" type="line"/>
      <point x="367" y="714" type="line" smooth="yes"/>
      <point x="159" y="714"/>
      <point x="70" y="589"/>
      <point x="70" y="313" type="curve" smooth="yes"/>
    </contour>
    <contour>
      <point x="89" y="0" type="line"/>
      <point x="444" y="0" type="line"/>
      <point x="444" y="73" type="line"/>
      <point x="89" y="73" type="line"/>
    </contour>
    <component base="baselinebowl" xOffset="30" yOffset="7"/>
    <component base="ballbig" xOffset="231" yOffset="277"/>
    <component base="rightdoubleflag" xOffset="361"/>
  </outline>
</glyph>
<glyph name="fwa.eth" format="2">
  <advance width="642"/>
  <unicode hex="134F"/>
  <note>
uni134F
</note>
  <anchor x="326" y="714" name="top"/>
  <outline>
    <contour>
      <point x="298" y="36" type="line"/>
      <point x="389" y="36" type="line"/>
      <point x="389" y="224" type="line"/>
      <point x="514" y="224" type="line"/>
      <point x="514" y="297" type="line"/>
      <point x="389" y="297" type="line"/>
      <point x="389" y="416"/>
      <point x="344" y="476"/>
      <point x="236" y="489" type="curve"/>
      <point x="290" y="515"/>
      <point x="334" y="542"/>
      <point x="364" y="572" type="curve" smooth="yes"/>
      <point x="411" y="618"/>
      <point x="423" y="667"/>
      <point x="423" y="714" type="curve"/>
      <point x="332" y="714" type="line"/>
      <point x="332" y="639"/>
      <point x="308" y="609"/>
      <point x="191" y="544" type="curve" smooth="yes"/>
      <point x="81" y="483"/>
      <point x="25" y="444"/>
      <point x="25" y="362" type="curve" smooth="yes"/>
      <point x="25" y="276"/>
      <point x="79" y="224"/>
      <point x="232" y="224" type="curve" smooth="yes"/>
      <point x="298" y="224" type="line"/>
    </contour>
    <contour>
      <point x="245" y="297" type="line" smooth="yes"/>
      <point x="140" y="297"/>
      <point x="116" y="326"/>
      <point x="116" y="368" type="curve" smooth="yes"/>
      <point x="116" y="396"/>
      <point x="130" y="418"/>
      <point x="158" y="437" type="curve"/>
      <point x="274" y="437"/>
      <point x="298" y="393"/>
      <point x="298" y="297" type="curve"/>
    </contour>
    <component base="rightsingleflag" xOffset="343" yOffset="-109"/>
    <component base="footmiddle" xOffset="41"/>
  </outline>
</glyph>
<glyph name="pe.eth" format="2">
  <advance width="601"/>
  <unicode hex="1355"/>
  <note>
uni1355
</note>
  <anchor x="300" y="714" name="top"/>
  <outline>
    <contour>
      <point x="377" y="0" type="line"/>
      <point x="468" y="0" type="line"/>
      <point x="468" y="414" type="line"/>
      <point x="377" y="414" type="line"/>
    </contour>
    <contour>
      <point x="257" y="372" type="line"/>
      <point x="468" y="372" type="line"/>
      <point x="468" y="447" type="line"/>
      <point x="257" y="447" type="line"/>
    </contour>
    <contour>
      <point x="257" y="414" type="line"/>
      <point x="348" y="414" type="line"/>
      <point x="348" y="683" type="line"/>
      <point x="257" y="683" type="line"/>
    </contour>
    <component base="footmiddle" yOffset="641"/>
  </outline>
</glyph>
<glyph name="po.eth" format="2">
  <advance width="671"/>
  <unicode hex="1356"/>
  <note>
uni1356
</note>
  <anchor x="353" y="714" name="top"/>
  <outline>
    <contour>
      <point x="50" y="0" type="line"/>
      <point x="141" y="0" type="line"/>
      <point x="141" y="41" type="line" smooth="yes"/>
      <point x="141" y="153"/>
      <point x="163" y="214"/>
      <point x="269" y="315" type="curve" smooth="yes"/>
      <point x="387" y="427"/>
      <point x="427" y="508"/>
      <point x="427" y="674" type="curve"/>
      <point x="336" y="674" type="line"/>
      <point x="336" y="551"/>
      <point x="320" y="481"/>
      <point x="206" y="374" type="curve" smooth="yes"/>
      <point x="91" y="266"/>
      <point x="50" y="194"/>
      <point x="50" y="48" type="curve" smooth="yes"/>
    </contour>
    <component base="footmiddle" xOffset="70" yOffset="641"/>
  </outline>
</glyph>
<glyph name="rya.eth" format="2">
  <advance width="651"/>
  <unicode hex="1358"/>
  <note>
uni1358
</note>
  <anchor x="343" y="752" name="top"/>
  <outline>
    <contour>
      <point x="280" y="-10" type="curve" smooth="yes"/>
      <point x="451" y="-10"/>
      <point x="524" y="81"/>
      <point x="524" y="231" type="curve" smooth="yes"/>
      <point x="524" y="256" type="line"/>
      <point x="432" y="256" type="line"/>
      <point x="432" y="232" type="line" smooth="yes"/>
      <point x="432" y="128"/>
      <point x="387" y="72"/>
      <point x="280" y="72" type="curve" smooth="yes"/>
      <point x="175" y="72"/>
      <point x="145" y="123"/>
      <point x="145" y="188" type="curve" smooth="yes"/>
      <point x="145" y="267"/>
      <point x="186" y="307"/>
      <point x="280" y="369" type="curve" smooth="yes"/>
      <point x="404" y="451"/>
      <point x="449" y="528"/>
      <point x="449" y="655" type="curve"/>
      <point x="358" y="655" type="line"/>
      <point x="358" y="554"/>
      <point x="343" y="508"/>
      <point x="227" y="431" type="curve" smooth="yes"/>
      <point x="115" y="356"/>
      <point x="50" y="303"/>
      <point x="50" y="183" type="curve" smooth="yes"/>
      <point x="50" y="63"/>
      <point x="124" y="-10"/>
    </contour>
    <component base="footright" xScale="-1" yScale="-1" xOffset="651" yOffset="670"/>
  </outline>
</glyph>
<glyph name="mya.eth" format="2">
  <advance width="1008"/>
  <unicode hex="1359"/>
  <note>
uni1359
</note>
  <anchor x="515" y="830" name="top"/>
  <outline>
    <contour>
      <point x="625" y="0" type="line"/>
      <point x="692" y="0" type="line"/>
      <point x="802" y="264" type="line" smooth="yes"/>
      <point x="828" y="325"/>
      <point x="854" y="402"/>
      <point x="854" y="453" type="curve" smooth="yes"/>
      <point x="854" y="547"/>
      <point x="795" y="594"/>
      <point x="681" y="594" type="curve" smooth="yes"/>
      <point x="285" y="594" type="line" smooth="yes"/>
      <point x="130" y="594"/>
      <point x="38" y="503"/>
      <point x="38" y="356" type="curve" smooth="yes"/>
      <point x="38" y="230"/>
      <point x="109" y="160"/>
      <point x="223" y="160" type="curve" smooth="yes"/>
      <point x="302" y="160"/>
      <point x="365" y="193"/>
      <point x="410" y="240" type="curve"/>
      <point x="410" y="528" type="line"/>
      <point x="518" y="528" type="line"/>
      <point x="507" y="477"/>
      <point x="501" y="425"/>
      <point x="501" y="378" type="curve" smooth="yes"/>
      <point x="501" y="289"/>
      <point x="553" y="242"/>
      <point x="646" y="242" type="curve" smooth="yes"/>
      <point x="699" y="242" type="line"/>
      <point x="625" y="63" type="line"/>
    </contour>
    <contour>
      <point x="228" y="231" type="curve" smooth="yes"/>
      <point x="167" y="231"/>
      <point x="127" y="274"/>
      <point x="127" y="356" type="curve" smooth="yes"/>
      <point x="127" y="466"/>
      <point x="190" y="528"/>
      <point x="291" y="528" type="curve" smooth="yes"/>
      <point x="319" y="528" type="line"/>
      <point x="319" y="263" type="line"/>
      <point x="296" y="244"/>
      <point x="271" y="231"/>
    </contour>
    <contour>
      <point x="676" y="0" type="line"/>
      <point x="779" y="0" type="line"/>
      <point x="779" y="73" type="line"/>
      <point x="676" y="73" type="line"/>
    </contour>
    <contour>
      <point x="409" y="563" type="line"/>
      <point x="500" y="563" type="line"/>
      <point x="500" y="715" type="line"/>
      <point x="409" y="715" type="line"/>
    </contour>
    <contour>
      <point x="697" y="308" type="line" smooth="yes"/>
      <point x="615" y="308"/>
      <point x="589" y="330"/>
      <point x="589" y="388" type="curve" smooth="yes"/>
      <point x="589" y="428"/>
      <point x="594" y="469"/>
      <point x="606" y="528" type="curve"/>
      <point x="673" y="528" type="line" smooth="yes"/>
      <point x="732" y="528"/>
      <point x="767" y="500"/>
      <point x="767" y="449" type="curve" smooth="yes"/>
      <point x="767" y="419"/>
      <point x="758" y="388"/>
      <point x="748" y="363" type="curve" smooth="yes"/>
      <point x="726" y="308" type="line"/>
    </contour>
    <component base="rightdoubleflag" xOffset="715"/>
    <component base="footmiddle" xScale="-1" yScale="-1" xOffset="756" yOffset="748"/>
  </outline>
</glyph>
